<?xml version="1.0" encoding="UTF-8"?>
<svg id="Layer_1" xmlns="http://www.w3.org/2000/svg" xmlns:xlink="http://www.w3.org/1999/xlink" viewBox="0 0 526.95 294.34">
  <defs>
    <filter id="outer-glow-1" x="205" y="49.35" width="98" height="98" filterUnits="userSpaceOnUse">
      <feOffset dx="0" dy="0"/>
      <feGaussianBlur result="blur" stdDeviation="5"/>
      <feFlood flood-color="#fff" flood-opacity="1"/>
      <feComposite in2="blur" operator="in"/>
      <feComposite in="SourceGraphic"/>
    </filter>
  </defs>
  <path d="M349.52,104.11c.6,4.11.24,8.03-2.19,11.56-.26.38-.56.74-.88,1.07-2.98,3.06-6.5,5.28-10.43,6.98-6.31,2.73-12.96,4.44-19.44,6.64-4.23,1.44-8.61,2.08-13,2.73-2.56.38-5.1.84-7.65,1.26-.64.1-1.29.14-1.92.28-1.88.42-3.77.79-5.62,1.32-1.95.56-3.61,1.63-4.84,3.3-.89,1.2-1.08,2.57-.77,3.97.23,1.03.66,2.02,1.04,3.01.2.52.58.98.71,1.51.79,3.33,3.22,5.41,5.65,7.5.77.66,1.59,1.26,2.4,1.88,2.76,2.12,5.96,2.4,9.26,2.05,2.22-.23,4.42-.24,6.64,0,1.91.22,3.71.67,5.47,1.46,4.12,1.86,6.29,5.2,7.14,9.47.64,3.21.47,6.46-.12,9.66-.54,2.9-1.34,5.76-1.91,8.66-.22,1.12-.27,2.32-.13,3.45.27,2.28,2.07,3.17,3.97,3.79,2.2.72,4.42,1.35,6.65,1.98,1.98.56,3.66,1.48,4.79,3.3,1.97,3.17.86,7.79-2.39,10.09-2.17,1.54-4.6,2.38-7.13,2.98-2.88.68-5.77,1.29-8.68,1.82-2.5.46-4.99.89-7.54,1.07-3.75.26-7.4-.2-10.94-1.23-3.36-.98-6.02-2.95-6.74-6.67-.39-2.02-.24-4.06.26-6.06.95-3.76,2.39-7.29,4.61-10.5,1.4-2.02,2.81-4.04,3.46-6.46.46-1.71-.2-3.46-1.72-4.12-.83-.36-1.77-.57-2.68-.65-2.9-.25-5.83-.27-8.71-.62-3.3-.4-6.58-1-9.72-2.18-2.77-1.04-4.78-2.96-6.31-5.42-2.24-3.58-3.44-7.57-4.67-11.56-.29-.93-.56-1.86-.8-2.8-.5-1.95-1.83-3.05-3.66-3.65-1.66-.55-3.18.14-3.92,1.69-.3.63-.29,1.22-.07,1.88.58,1.74,1.52,3.29,2.64,4.71,3.82,4.88,6.46,10.36,8.51,16.16.99,2.81,1.26,5.71.57,8.61-.64,2.69-2.19,4.79-4.67,6.1-4.74,2.52-9.8,3.71-15.15,3.16-2.23-.23-4.41-.99-6.62-1.49-1.12-.25-2.25-.57-3.39-.65-3.09-.21-4.53,2.29-3.49,4.71.49,1.14,1.15,2.21,1.76,3.29.61,1.09,1.29,2.14,1.88,3.24,1.3,2.41,1.3,4.97.83,7.58-.58,3.23-2.65,5.25-5.57,6.4-4.4,1.73-8.45.95-12.08-2.04-4.26-3.5-7.13-7.99-9.06-13.09-.87-2.3-1.3-4.74-1.42-7.19-.14-3,.44-5.94,1.95-8.55,1.86-3.2,4.84-4.89,8.44-5.51,2.27-.4,4.58-.62,6.82-1.15,2.39-.57,4.7-1.41,6.73-2.88,2.4-1.75,3.65-4.18,4.08-7.01.66-4.4.11-8.75-.99-13.04-.71-2.78-1.46-5.54-2.21-8.31-.12-.43-.32-.83-.52-1.33-.28.17-.46.23-.58.35-2.68,2.56-5.41,5.07-8.01,7.72-2.15,2.19-4.61,3.83-7.48,4.92-3.38,1.27-6.71,2.67-10.1,3.92-2.39.88-4.87,1.47-7.44,1.5-1.3.02-2.6.03-3.9,0-3.52-.09-7.02.22-10.53.48-1.42.1-2.86-.08-4.29-.24-2.62-.29-5.23-.68-7.72-1.62-2.18-.82-4.24-1.9-6-3.44-2.13-1.86-3.24-4.3-3.41-7.08-.25-3.99.6-7.75,3.07-10.99.67-.88,1.48-1.67,2.34-2.36,1.01-.81,2.11-1.52,3.23-2.17,1.43-.82,2.85-1.19,4.61-.57,2.3.8,4.44,1.8,6.52,3.03,2.73,1.6,5.62,2.96,8.77,3.38,2.19.29,4.47.33,6.66.06,2.32-.28,4.62-.93,6.85-1.65,3.16-1.01,5.32-3.27,6.82-6.18,2.15-4.16,4.21-8.37,6.43-12.49.92-1.7,2.07-3.29,3.23-4.84,1.41-1.89,3.49-2.67,5.71-3.14,1.94-.41,3.89-.82,5.83-1.25,2.36-.52,4.75.53,5.22,3.2.38,2.18.75,4.37,1.24,6.53.37,1.62.88,3.22,1.42,4.79.75,2.15,3.32,2.68,4.76.94,1.08-1.31,1.95-2.8,2.88-4.24.59-.92,1.3-1.67,2.28-2.17.95-.49,1.82-.34,2.55.39.42.42.8.91,1.08,1.43.66,1.24,1.6,2.13,2.84,2.76,1.41.71,2.23.49,3.02-.87.18-.32.24-.71.42-1.02.4-.67.76-1.39,1.28-1.95.68-.73,1.66-.69,2.32.06.42.48.77,1.06,1.01,1.65.53,1.29,1.41,2.3,2.45,3.16,1.35,1.11,2.96,1.51,4.68,1.31,1.06-.12,1.84-1.16,1.81-2.46-.03-1.34-.2-2.67-.35-4-.23-1.97-.49-3.94-.74-5.91-.26-2.06-.59-4.11-.74-6.18-.06-.89.17-1.82.42-2.7.22-.8,1.04-.95,1.71-.96,1.9-.02,3.79.09,5.69.15.46.02.92.07,1.39.08,3.11.02,6.22,0,9.33.05,2.5.04,5,.14,7.49.29,2.82.17,5.43-.55,7.91-1.76,2.46-1.19,4.94-2.38,7.26-3.81,1.96-1.21,3.71-2.76,5.56-4.15,2.33-1.75,4.63-3.54,7.01-5.23,1.46-1.04,3.23-1.34,4.96-1.68,2.2-.43,4.4-.47,6.6.01,4.49.98,7.32,3.57,8.07,8.22.01.19.02.37.04.56h0Z" style="fill: #fde0a6;"/>
  <path d="M408.82,9.46v1.11c.1.28.19.56.29.84.08.56.16,1.11.24,1.67-.37.56-.39,1.12.04,1.67v1.11c-.42.46-.4.92-.03,1.39-.02.73-.04,1.46-.05,2.18-.32.11-.63.23-.21.6-.02.45-.04.91-.06,1.36-.14.11-.38.19-.41.32-.33,1.48-.62,2.96-.92,4.44-.02.27-.04.53-.05.8-.3.38-.68.72-.9,1.14-1.44,2.84-3.03,5.58-5.33,7.84-.49.48-.89,1.05-1.3,1.6-.32.43-.29.78.34.87,2.96.55,5.55,1.91,7.96,3.66,1.53,1.11,2.97,2.34,4.1,3.85.76,1.01,1.29,2.2,1.92,3.31.37,1.13.74,2.26,1.13,3.38.05.14.27.22.42.32.01.26.03.53.04.79-.33.3-.32.58.05.83v3.62c-.41.36-.39.73-.04,1.11-.01.45-.03.9-.04,1.35-.77.3-.42.94-.44,1.47-.01.27-.02.53-.03.8-.08.29-.16.58-.25.87-.11.64-.21,1.27-.32,1.91-.08.2-.16.4-.25.6-.01.17-.02.34-.03.52-.29.93-.57,1.86-.86,2.78-.18.56-.37,1.12-.55,1.68,0,.18-.01.37-.02.55-.07.2-.14.4-.21.59.05.78-.02,1.59.19,2.32.42,1.48,1.44,2.45,2.95,2.85,2.12.57,4.25,1.1,6.37.08.99-.48,1.96-1.05,2.83-1.73,1.1-.85,2.06-1.86,3.11-2.76,2.33-1.98,4.7-3.92,7.73-4.77,3.96-1.12,7.61-.57,10.85,2.05,1.11.9,2.16,1.88,3.19,2.88.46.44.78,1.02,1.17,1.54.17.2.34.4.5.6.23.45.48.88.68,1.34.2.45.34.92.5,1.39.46,1.31.91,2.62,1.37,3.92.09.37.18.74.27,1.11.1.28.21.56.31.84,0,.17.02.35.03.52.08.2.16.4.24.6.01.27.03.53.04.8.08.2.15.4.23.6.08.37.15.74.23,1.11-.31.3-.31.57.05.83.08.65.16,1.3.24,1.95-.34,1.06-.34,5.93,0,6.96-.08.93-.17,1.86-.25,2.78-.36.26-.36.54-.04.83-.01.36-.02.72-.03,1.08-.78.3-.43.94-.44,1.46-.01.27-.02.53-.03.8-.08.29-.16.58-.24.87,0,.17-.01.35-.02.52-.09.38-.18.76-.27,1.14,0,.17-.02.35-.03.52-.18.56-.37,1.11-.55,1.67-.47,1.58-.94,3.16-1.41,4.74-.08.2-.16.39-.23.59-.02.17-.04.34-.06.51-.13.04-.32.05-.38.14-.89,1.34-1.76,2.69-2.62,4.05-.09.14-.05.36-.07.54-1.09,1.41-2.48,2.26-4.25,2.62-1.23.25-2.44.5-3.7.44-2.04-.1-3.63-.91-4.6-2.81-1.33-2.6-1.97-5.39-2.17-8.25-.23-3.13-.14-6.29-.35-9.42-.16-2.42-.09-4.91-1.32-7.16-.45-.82-.88-1.61-1.8-2.22-.52.35-1.12.63-1.55,1.07-1.51,1.56-3.01,3.14-4.43,4.78-2.47,2.85-5.07,5.57-8.31,7.5-3.15,1.87-6.57,2.18-9.98.69-1.95-.85-3.23-2.46-3.97-4.44-.84-2.26-1.34-4.62-1.45-7.03-.15-3.23-.23-6.47-.34-9.7-.08-.19-.17-.38-.25-.57v-7.52c0-.51-.02-1.01-.03-1.52-.12,0-.24,0-.35-.01-.06.32-.11.64-.17.95-.19.37-.38.74-.56,1.12-.78.44-.86,1.25-1.05,2-.03.26-.06.52-.09.77-.17.2-.34.39-.51.59-.27,1-.53,2-.81,3-.08.3-.21.59-.31.89-.28.84-.55,1.68-.83,2.51v.27l-.22.6c-.01.17-.03.34-.04.51-.19.56-.38,1.11-.57,1.67-.28,1.11-.56,2.23-.84,3.34-.65,2.5-1.3,5.01-1.95,7.51-.26,1.03-.52,2.07-.78,3.1-.03.44-.07.88-.1,1.33-.53.11-.53.49-.46.9-.02.17-.04.34-.06.52-.44.78-.78,1.58-.57,2.51-.01.17-.02.34-.03.52-.16.2-.33.4-.49.61-.74,2.46-.57,4.99-.58,7.51.01.19.02.37.03.56.01.26.03.53.04.79.08.2.16.4.24.6.01.17.02.34.04.51.15.77.15,1.61,1,2.03.42,1.15.84,2.31,1.26,3.46.08.22.15.43.22.65.27.84.54,1.69.8,2.53.09.55.19,1.11.28,1.66.09.28.19.56.28.84.18,1.3.38,2.6,0,3.9-.39.36-.38.73-.04,1.11-.07.37-.14.74-.21,1.11-.1.37-.2.75-.3,1.12,0,.18-.01.37-.02.55-.43,1.06-.82,2.14-1.31,3.17-1.19,2.5-2.53,4.91-4.29,7.08-.13.16-.14.42-.21.64-2.29,3.39-4.95,6.48-8.29,8.84-2.83,2-5.78,3.87-9.13,4.95-3.54,1.14-7.13,1.98-10.9,1.79-2.61-.13-4.88-1.06-6.73-2.89-.54-.53-.94-1.25-1.24-1.96-1.08-2.54-.84-5.15-.35-7.77.8-4.23,2.85-7.81,5.71-10.94,2.12-2.33,4.36-4.55,6.53-6.84,1.08-1.14,2.15-2.31,3.2-3.48,1.2-1.33,1.48-2.94,1.35-4.66-.08-1.11-.17-2.21-.24-3.32-.09-1.29-.24-2.58-.23-3.87.02-1.66.09-3.33.28-4.98.27-2.24.67-4.47,1.01-6.7.56-3.69,1.78-7.17,3.15-10.62,1.54-3.88,3.23-7.69,5.14-11.4,1.43-2.77,2.05-5.75,2.04-8.84-.02-2.59-.05-5.19-.28-7.77-.28-3.24-1.22-6.35-2.44-9.36-.03-.07-.13-.11-.3-.24-.1.59-.24,1.12-.27,1.66-.26,4.38-.64,8.75-1.59,13.05-.59,2.65-1.18,5.3-1.77,7.95,0,.19-.02.37-.03.56-.01.17-.02.35-.03.52-.19.23-.45.44-.54.71-.38,1.03-.74,2.07-1.04,3.13-.66,2.26-1.52,4.4-3.13,6.19-.35.39-.53.94-.79,1.42-.17.11-.35.21-.52.32-.56-.04-.81.27-.88.78-3.41,1.82-7.03,2.82-10.91,2.79-3.19-.02-5.34-1.57-6.33-4.63-.69-2.13-.84-4.3-.62-6.55.24-2.48.76-4.85,2.07-6.98.99-1.61,2.13-3.14,3.19-4.71,2.89-4.29,5.36-8.76,6.25-13.95.15-.84.22-1.75,1.12-2.28.6-.35,1.13-.44,1.63.06.35.36.7.75.93,1.19.39.76.97,1.3,1.79,1.4,1.23.15,2.53.41,3.69.16,1.34-.29,2.36-1.38,2.71-2.74.65-2.57.78-5.2.17-7.81-.04-.18-.08-.36-.08-.55-.11-2.22-.21-4.43-.32-6.65,0-.19,0-.37-.01-.56-.12-1.3.04-1.68,1.3-1.94.92-.19,1.92-.16,2.87-.07,1.74.16,3.47.6,5.21.62,1.55.02,3.15-.21,4.65-.61,1.57-.42,2.47-1.53,2.76-3.28.45-2.72-.94-4.37-2.86-5.83-.62-.47-1.3-.89-1.86-1.43-1.28-1.25-1.06-2.88.5-3.81,1.07-.64,2.2-1.2,3.29-1.8,2.6-1.42,4.71-3.43,6.69-5.58.98-1.07,1.37-2.44,1.4-3.84.04-1.52-.2-3.04-.2-4.56,0-2.08.13-4.15.2-6.23.08-.11.23-.2.25-.32.3-1.85.82-3.59,2.29-4.89.15-.14.19-.4.28-.61.88-.58,1.82-1,2.87-1.24,1.93-.44,3.54.07,4.92,1.39.79.75,1.71,1.42,1.95,2.59.38.88.33,1.99,1.32,2.56.03.35.07.7.1,1.05.08.2.17.39.25.59.01.17.02.35.03.52.08.2.15.39.23.59v.02Z" style="fill: #fde0a6;"/>
  <path d="M148.99,43.99c2.27.21,3.4,1.38,3.37,3.88-.05,4.45,0,8.91-.04,13.36,0,1.06.28,2.01.76,2.92.71,1.31,1.75,1.71,3.09,1.15,1.03-.43,1.96-.97,2.61-1.97,1.16-1.79,2.41-3.51,3.63-5.25.34-.49.68-1,1.08-1.45.86-.95,1.65-.92,2.36.16.86,1.31,1.59,2.72,2.45,4.03.78,1.18,1.34,2.44,1.57,3.82.51,3,.44,5.97-.35,8.93-1.12,4.24-2.39,8.47-3.17,12.78-.69,3.81-1.07,7.74-.62,11.62.7,6.12,1.85,12.14,4.38,17.84,1.46,3.29,2.97,6.62,3.47,10.23.64,4.61-.19,8.86-3.59,12.32-.74.76-1.52,1.5-2.39,2.11-2.49,1.73-5.12,1.89-7.89.6-5.84-2.73-9.31-7.31-10.68-13.55-.78-3.55-1-7.14-.85-10.76.1-2.4.34-4.79.53-7.19.27-3.36.6-6.72.83-10.08.15-2.26.36-4.54.2-6.79-.19-2.75-.62-5.5-1.17-8.21-.38-1.84-1.65-2.09-3.02-.76-.36.35-.68.77-.92,1.21-.96,1.83-1.46,3.79-1.53,5.86-.09,2.59-.11,5.19-.32,7.77-.3,3.64-1.03,7.23-2.03,10.74-.8,2.8-1.7,5.58-2.77,8.28-1.05,2.66-2.88,4.77-5.03,6.7-3.44,3.09-7.51,5.06-11.55,7.13-1.27.65-2.5,1.42-3.61,2.31-2.53,2.01-3.83,4.71-3.89,7.94-.07,3.25-.38,6.47-1.17,9.61-.83,3.3-2.81,5.6-6.26,6.38-2.54.57-4.82,0-6.66-1.82-.98-.96-1.88-2.07-2.57-3.26-2.48-4.29-3.98-8.93-4.83-13.82-.61-3.54-.61-7.1-.5-10.66.07-2.47.7-4.84,1.7-7.11,1.3-2.96,3.68-4.78,6.64-5.73,2.85-.92,5.8-1.55,8.73-2.21,2.66-.6,5.35-1.03,7.91-2.04,2.67-1.06,4.62-2.86,5.97-5.35,1.59-2.95,2.89-6.02,3.41-9.35.15-.95.19-1.95.1-2.9-.15-1.6-1.25-2.05-2.49-1.02-.84.71-1.62,1.54-2.26,2.43-.92,1.27-1.67,2.66-2.53,3.98-1.2,1.85-2.69,3.4-4.69,4.42-1.58.8-3.23,1.28-5.01,1.5-2.97.37-5.76-.25-8.6-.99-2.22-.58-4.49-1.04-6.85-.5-2.22.51-3.99,1.61-5.4,3.38-1.3,1.63-2.63,3.23-4.06,4.74-1.64,1.75-3.78,2.71-6.12,3-2.43.3-5.91-.62-7.03-3.81-.32-.9-.49-1.88-.56-2.84-.21-3,.44-5.89,1.29-8.74,2.17-7.27,5.6-13.92,10.3-19.87,1.45-1.84,3.15-3.5,5.31-4.64,2.51-1.32,4.96-1.27,7.48-.18,1.62.7,3.1,1.63,4.52,2.66,1.28.92,2.51,1.93,3.88,2.69,1.11.61,2.39,1.22,3.62,1.28,2.3.11,4.57-.96,5.59-3.54.41-1.04.62-2.11.63-3.25.02-1.66.09-3.33.3-4.98.27-2.11,1.32-3.95,2.4-5.73,1.34-2.19,3.06-3.98,5.26-5.42,1.85-1.21,3.76-2.14,5.81-2.9.93-.35,1.79-.94,2.61-1.52.69-.49.89-1.25.86-2.1-.02-.54-.17-.93-.59-1.31-2.05-1.87-4.03-3.83-6.09-5.7-2.46-2.22-4.34-4.93-6.45-7.45-1.55-1.85-2.99-3.77-4.12-5.91-1.5-2.81-2.52-5.74-2.58-8.98-.05-2.97.39-5.8,1.7-8.49.8-1.63,2.02-2.89,3.39-4,2.78-2.24,7.48-1.77,9.53,1.79.64,1.1.53,2.33.69,3.5.37,2.74.47,5.53.93,8.25.38,2.25,1.23,4.38,3.02,5.97,1.25,1.1,2.52,2.17,3.77,3.26.28.24.58.48.82.75.73.84.54,2.05-.43,2.61-.84.49-1.74.87-2.56,1.4-1.93,1.24-1.8,4.12.23,5.21.6.32,1.28.57,1.95.69,1.04.19,2.11.24,3.16.34.26.37.54.36.83.03,1.21.09,2.41.17,3.62.26.27.35.55.35.84.02,1.86.08,3.71.16,5.57.25.36.41.73.39,1.11.03h.02Z" style="fill: #fde0a6;"/>
  <path d="M496.23,144.18c.75.19,1.43.46,2.14.52,2.28.21,4.53.05,6.69-.83,2.42-.98,4.2-2.68,5.51-4.89,1.94-3.29,2.73-6.88,2.4-10.67-.2-2.31-1.11-4.38-2.49-6.24-.68-.92-.66-.95,0-1.92,2.38-3.47,4.75-6.96,7.13-10.43.49-.72,1.02-1.42,1.63-2.27.4.41.77.73,1.07,1.12,2.11,2.77,4.01,5.68,5.22,8.97.8,2.18,1.39,4.41,1.39,6.76,0,1.44-.04,2.88.02,4.31.1,2.35-.41,4.61-1,6.84-.99,3.72-2.27,7.35-4.1,10.75-1.78,3.31-3.84,6.46-6.67,9.01-3.9,3.51-8.33,6.01-13.58,6.82-5.19.8-10.24.2-15.16-1.6-2.8-1.02-5.47-2.3-7.9-4.03-6.01-4.26-9.99-9.86-11.15-17.24-.51-3.21-.43-6.43.12-9.66.86-4.98,2.53-9.67,4.8-14.15,1.82-3.59,4.19-6.8,7.28-9.39,3.44-2.88,7.37-4.66,11.89-5.25,5.34-.7,10.41.16,15.35,2.11.86.34,1.73.65,2.59.99,1.53.6,1.62.79,1.05,2.38-.58,1.61-1.19,3.21-1.8,4.81-1.81,4.81-3.63,9.61-5.45,14.42-2.24,5.93-4.49,11.86-6.73,17.79-.1.25-.14.52-.25.95v.02ZM494.54,119.2c-.27-.1-.55-.29-.84-.31-1.6-.1-3.17-.35-4.82-.1-2.34.35-4.29,1.35-5.7,3.11-2.21,2.74-3.28,5.91-2.83,9.53.51,4.07,2.8,6.79,6.14,8.85.69-.95,7.77-19.52,8.05-21.07h0Z" style="fill: #fde0a6;"/>
  <path d="M239.94,269.03c-.05.19-.13.33-.11.45.48,2.81,1.28,5.51,3.16,7.74,1.64,1.95,3.8,3.12,6.26,3.6,4.16.82,8.19.4,12-1.62,1.81-.96,3.16-2.41,4.31-4.05.42-.6.86-.8,1.51-.62,4.68,1.28,9.37,2.56,14.05,3.84.31.08.59.24.93.39-.06.21-.07.41-.16.55-2.52,4.1-5.45,7.84-9.63,10.4-3.26,1.99-6.76,3.38-10.57,4.03-4.29.73-8.6.69-12.89.42-4.69-.3-9.22-1.5-13.39-3.78-4.31-2.36-7.82-5.57-10.32-9.85-1.88-3.21-2.92-6.68-3.43-10.33-.81-5.84-.17-11.54,1.97-17.04,1-2.56,2.4-4.89,4.18-7.01,4.25-5.05,9.79-7.75,16.16-8.98,4.18-.81,8.41-.74,12.6-.48,4.3.27,8.5,1.28,12.39,3.26,5.67,2.88,9.59,7.3,11.74,13.29,1.12,3.12,1.71,6.33,1.68,9.65-.02,1.86,0,3.71-.03,5.57-.03,1.44-.19,1.58-1.64,1.56-4.82-.09-9.64-.19-14.45-.3-3.57-.08-7.13-.18-10.69-.27-4.08-.1-8.15-.18-12.23-.3-.88-.02-1.75-.16-2.62-.22-.26-.02-.53.06-.8.09h.02ZM240.43,258.84c7.52.19,14.93.39,22.57.58-.16-1.13-.2-2.05-.44-2.92-.88-3.18-2.59-5.76-5.77-7.03-2.13-.85-4.34-.97-6.66-.67-5.25.68-9.02,5.18-9.71,10.03h0Z" style="fill: #fde0a6;"/>
  <path d="M32.74,185.6c.13-7.46,2.78-13.82,8.03-19.09,3.69-3.7,7.91-6.55,12.96-8.06,1.73-.52,3.5-.76,5.31-.94,4.15-.41,8.1.33,11.96,1.7,3.52,1.25,6.68,3.16,9.57,5.52,3,2.45,5.58,5.29,7.79,8.45,2.66,3.8,4.52,7.99,5.41,12.54.38,1.94.63,3.95.58,5.92-.15,5.98-1.89,11.47-5.6,16.25-2.85,3.67-6.34,6.62-10.46,8.78-2.97,1.56-6.16,2.38-9.53,2.77-4.3.49-8.38-.17-12.4-1.56-3.67-1.27-6.95-3.24-9.95-5.7-4.7-3.86-8.28-8.57-10.83-14.08-1.24-2.66-2.05-5.45-2.44-8.36-.19-1.37-.27-2.76-.4-4.13h0ZM63.04,202.21c.98-.2,2.38-.33,3.67-.78,3.42-1.19,6.18-3.33,8.21-6.34,2.22-3.27,2.87-6.88,1.89-10.71-.59-2.29-1.84-4.21-3.58-5.85-3.27-3.09-7.07-4.16-11.48-3.28-3.18.63-5.67,2.38-7.91,4.61-4.03,4.01-5.38,10.23-2.34,15.55,2.46,4.3,6.25,6.39,11.53,6.79h.01Z" style="fill: #fde0a6;"/>
  <path d="M378.47,234.95c.17-3.07.35-6.14.51-9.21.04-.83.02-1.66.03-2.49,0-.19,0-.37.01-.56.32-3.67.11-7.37.66-11.29,7.37,4.37,14.46,8.8,21.61,13.14,7.12,4.33,14.22,8.71,21.43,13.13,2.95-1.55,5.96-3.14,9.07-4.78,3.83,7.2,7.58,14.26,11.41,21.47-4.88,2.59-9.61,5.11-14.52,7.71-1.68-3.09-3.3-6.07-5.01-9.22-11.26,5.99-22.41,11.91-33.71,17.91,1.29,3.28,3.2,6.08,4.68,9.28-.8.47-1.59,1-2.43,1.44-3.68,1.96-7.38,3.89-11.07,5.83-.25.13-.5.25-.74.38-.57.28-.95.13-1.24-.44-.7-1.36-1.44-2.7-2.15-4.05-2.1-3.98-4.19-7.96-6.28-11.94-.63-1.19-1.28-2.36-1.9-3.55-.17-.32-.28-.66-.45-1.09,1.18-.66,2.3-1.29,3.44-1.91,1.55-.84,3.1-1.68,4.67-2.47.62-.31.86-.69.88-1.39.06-2.73.18-5.46.28-8.19.09-2.45.18-4.9.3-7.35.16-3.28.34-6.56.52-9.83,0-.19,0-.37.01-.56v.03ZM391.35,233.85c.48,6.63.95,13.13,1.42,19.79,4.9-2.6,9.59-5.09,14.31-7.59-.97-1.09-14.57-11.87-15.74-12.2h0Z" style="fill: #fde0a6;"/>
  <path d="M165.86,221.32c.41.04.78.02,1.12.11,4.47,1.2,8.93,2.41,13.39,3.62,4.24,1.15,8.46,2.38,12.72,3.46,4.29,1.09,8.27,2.83,11.54,5.81,2.55,2.33,4.2,5.25,4.29,8.88.07,2.84-.44,5.51-1.75,8.04-.99,1.91-2.47,3.34-4.31,4.4-1.78,1.03-3.69,1.71-5.75,1.9-.12.01-.22.11-.49.25.45.27.77.48,1.11.68,2,1.13,3.69,2.6,5.06,4.47,1.6,2.17,2.17,4.62,1.87,7.22-.32,2.82-1.1,5.52-2.72,7.93-1.68,2.51-3.94,4.3-6.71,5.4-1.05.42-2.23.62-3.37.72-3.41.29-6.72-.33-10-1.24-4.9-1.36-9.81-2.69-14.72-4.02-4.64-1.26-9.28-2.5-13.92-3.76-.53-.14-1.05-.35-1.7-.57.04-.41.04-.81.14-1.19,2.66-9.86,5.32-19.73,8-29.58,1.94-7.14,3.89-14.27,5.84-21.41.1-.35.24-.69.39-1.11h-.03ZM171.3,268.18c3.19.89,6.28,1.9,9.43,2.56,2.13.44,4.29.42,6.01-1.52,2.2-2.48,1.92-5.96-.79-7.87-1.16-.82-2.47-1.25-3.81-1.62-2.23-.6-4.47-1.2-6.7-1.81-1.22-.33-1.38-.25-1.73,1-.77,2.76-1.54,5.53-2.29,8.29-.08.3-.08.61-.13.96h0ZM179.69,236.83c-.9,3.39-1.91,6.58-2.63,10.01,3.09.79,5.99,1.85,8.99,2.21,4.05.49,6.15-3.36,5.38-6.4-.6-2.39-2.4-3.4-4.54-4.01-1.73-.49-3.48-.93-5.23-1.38-.58-.15-1.16-.25-1.96-.43h-.01Z" style="fill: #fde0a6;"/>
  <path d="M494.02,195.73c-4.35,3.89-8.59,7.67-12.98,11.6-1.99-2.2-3.91-4.3-5.81-6.42-1.94-2.17-3.86-4.37-5.8-6.55-1.9-2.14-3.81-4.27-5.89-6.59-.19.48-.36.77-.41,1.09-.96,5.41-1.88,10.82-2.85,16.23-.58,3.27-1.24,6.53-1.83,9.8-.69,3.86-1.34,7.73-2.02,11.6-.56,3.22-1.14,6.44-1.74,9.82-.38-.33-.67-.54-.9-.8-2.06-2.31-4.11-4.64-6.18-6.95-1.63-1.83-3.27-3.65-4.9-5.49-2.95-3.32-5.9-6.64-8.86-9.96-1.76-1.97-3.54-3.91-5.3-5.88-2.67-3.01-5.33-6.04-8-9.05-1.63-1.84-3.27-3.66-4.9-5.49-.18-.2-.32-.44-.6-.81,4.24-3.89,8.53-7.66,12.8-11.43,1.1.6,6,5.94,8.96,9.49,2.77,3.32,5.68,6.53,8.84,9.92,2.9-16.29,5.75-32.26,8.6-48.23.67-.14.87.37,1.15.68,1.27,1.41,2.51,2.84,3.77,4.26,2.05,2.32,4.1,4.65,6.16,6.97,1.72,1.94,3.47,3.85,5.2,5.79,1.97,2.21,3.92,4.44,5.88,6.66.95,1.07,1.92,2.13,2.89,3.2,2.63,2.92,5.27,5.84,7.9,8.77,2.16,2.41,4.3,4.85,6.45,7.27.12.13.21.29.38.52v-.02Z" style="fill: #fde0a6;"/>
  <path d="M157.65,61.26c-.68,1.04-1.57,1.42-2.67,1.07-.26-.08-.59-.37-.65-.61-.15-.71-.22-1.45-.24-2.18,0-.45.12-.91.19-1.36,0-.19,0-.37.02-.56.26-2.34.53-4.68.77-7.01.22-2.07.41-4.14.61-6.2.05-.55.1-1.1.16-1.74-.2-.1-.43-.29-.67-.31-2.35-.22-4.7-.4-7.04-.63-2.39-.23-4.77-.56-7.16-.77-1.93-.17-3.88-.26-5.82-.29-1.34-.02-1.52-.31-1.46-1.72.03-.57.43-.8.87-.97,1.5-.6,3.01-1.2,4.53-1.76,3.43-1.25,6.89-2.44,10.31-3.72,1.86-.7,3.66-1.56,5.51-2.3.81-.32,1.06-.83,1.07-1.69.06-5.74.15-11.49.29-17.23.04-1.52.23-3.05.82-4.48.17-.42.38-.85.67-1.2.54-.67,1.11-.77,1.83-.27.49.34.95.76,1.3,1.24,2.66,3.61,5.28,7.25,7.92,10.88.58.8.75.9,1.6.4,1.6-.93,3.2-1.88,4.71-2.95,3.29-2.32,6.54-4.69,9.78-7.08,2.23-1.64,4.42-3.35,6.63-5.02.15-.11.3-.22.47-.3.7-.35,1.47-.46,2.13-.04.72.47.83,1.29.76,2.11-.14,1.64-.9,3.09-1.47,4.6-1.2,3.21-2.43,6.4-3.74,9.57-1.54,3.72-3.08,7.45-4.79,11.09-.93,1.97-.85,3.64.64,5.19,1.73,1.8,3.52,3.54,5.29,5.31.23.23.46.46.7.68,3.34,3.07,6.69,6.13,10.03,9.2.71.65,1.47,1.27,1.71,2.3.26,1.14-.37,2.05-1.55,2.09-.46.02-.94-.02-1.37-.15-4.93-1.43-9.85-2.89-14.78-4.34-1.99-.59-3.96-1.2-6.01-1.83-.06.24-.14.41-.14.57.07,2.54.17,5.09.21,7.63.02,1.2-.11,2.4-.14,3.6-.03,1.2-.16,2.43,0,3.61.38,2.79.12,5.53-.34,8.28-.11.67-.38,1.13-1.09,1.24-.83.14-1.31-.05-1.72-.84-.46-.9-.91-1.83-1.24-2.79-1.34-3.99-3.5-7.55-5.64-11.13-1.21-2.03-2.31-4.12-3.47-6.18-.25-.44-.53-.87-.79-1.3-.12-.14-.23-.28-.35-.43-.08.14-.15.28-.23.42-.1.18-.19.37-.29.55-.63.13-.73.63-.79,1.15,0,.08-.03.16-.04.24-.17.2-.34.4-.51.6,0,.08-.03.16-.04.24-.17.2-.34.4-.51.59-.2.36-.4.72-.6,1.08-.17.2-.34.39-.51.59-.48.82-.97,1.64-1.45,2.46-.17.2-.34.39-.52.59-.29.46-.57.91-.86,1.37-.52.05-.81.32-.8.87l-.04-.03Z" style="fill: #fde0a6;"/>
  <path d="M340.15,255.86c.33.09.63.18.92.26,2.91.74,5.63,1.9,7.82,4.01,2.26,2.18,3.36,4.88,3.72,8,.46,3.86-.59,7.24-2.88,10.26-1.63,2.15-3.65,3.93-5.97,5.36-3.92,2.43-8.21,3.85-12.71,4.62-2.36.41-4.77.8-7.15.79-5.89-.03-11.52-1.17-16.19-5.13-3.15-2.67-5.33-6.02-6.57-9.96-.13-.41-.09-.88-.13-1.37,5.61-.88,11.07-1.74,16.67-2.62.35.56.69,1.15,1.08,1.71,1.41,2.05,3.16,3.71,5.72,4.05,2.27.3,4.57.09,6.67-.9,1.15-.54,2.32-1.29,3.13-2.24,2.69-3.16,1.06-8.39-3.61-9.33-1.55-.31-3.11-.49-4.68-.13-.57.13-.89-.08-.98-.66-.37-2.46-.74-4.93-1.11-7.39-.01-.08.05-.17.11-.38.41-.12.92-.2,1.37-.39,1.06-.45,2.23-.77,3.12-1.46,2.79-2.15,2.26-6.7-.95-8.18-3.26-1.51-9.09.29-9.93,4.37-.17.85-.19,1.73-.29,2.71-5.37.85-10.73,1.69-16.17,2.55-.2-1.7-.44-3.23-.24-4.89.24-1.96.64-3.82,1.45-5.61,1.1-2.43,2.66-4.5,4.66-6.29,3.98-3.58,8.76-5.27,13.88-6.21,1.4-.26,2.85-.25,4.28-.37,3.98-.33,7.84.26,11.54,1.7,3.21,1.25,5.98,3.14,7.88,6.1,2.68,4.17,2.69,10.39-1.35,14.17-1,.94-2.04,1.86-3.14,2.86h.03Z" style="fill: #fde0a6;"/>
  <path d="M132.67,235.56c.76,1.14,1.49,2.14,2.13,3.2,1.33,2.21,2.18,4.58,2.22,7.2.04,2.83-.86,5.39-2.46,7.67-2.64,3.76-6.37,5.6-10.89,6.13-5.77.68-11.08-.74-16.25-3.11-3.65-1.67-7.01-3.79-10.03-6.4-4.18-3.62-7.13-8.08-7.89-13.65-.49-3.61-.14-7.21,1.22-10.65.13-.34.34-.65.59-1.11,1.21.64,2.4,1.25,3.55,1.89,2.91,1.62,5.82,3.26,8.72,4.89.44.25.88.52,1.32.78,1.3.77,1.36.91,1.15,2.29-.57,3.6.64,6.47,3.66,8.5,1.89,1.27,3.93,2.31,6.29,2.34,2.75.03,5.13-1.63,5.84-4.26.4-1.47.36-3.01-.54-4.42-.95-1.46-2.12-2.68-3.59-3.61-.46-.29-.89-.62-1.43-1,1.41-2.51,2.76-4.91,4.17-7.42.57.25,1.01.47,1.47.66,1.42.56,2.84,1.04,4.43.62,3.12-.83,4.65-4.21,3.12-7.03-1.45-2.68-6.38-5.43-10.22-2.76-.56.39-1.12.86-1.51,1.41-.48.66-.93.63-1.54.29-2.42-1.36-4.85-2.72-7.27-4.07-1.58-.88-3.15-1.76-4.74-2.62-1.42-.77-1.45-.91-.56-2.3,2.89-4.55,7.13-7.05,12.34-7.94,3.22-.55,6.46-.26,9.6.64,5.95,1.71,11.15,4.73,15.4,9.26,3.07,3.28,5.3,7.1,5.71,11.63.51,5.56-2.61,11.29-9.11,12.61-1.39.28-2.85.22-4.28.31-.17,0-.33.03-.62.05v-.02Z" style="fill: #fde0a6;"/>
  <path d="M41.71,146.9c2.34-3.76,3.24-7.78,3.08-12.03-.19-4.89-1.7-9.27-5.55-12.57-3.37-2.87-7.23-4-11.62-3.23-3.59.63-6.65,2.23-9.05,5-1.82,2.1-2.78,4.55-3,7.32-.3,3.91.55,7.54,2.64,10.87,2.6,4.14,6.1,7.17,11,8.76-.39.2-.63.36-.88.45-4.9,1.7-9.8,3.38-14.69,5.1-.67.23-1.17.05-1.68-.32-2.04-1.48-3.76-3.29-5.24-5.32-2.38-3.26-3.87-6.96-4.98-10.79-.77-2.65-1.35-5.39-1.64-8.13-.24-2.28.02-4.62.16-6.92.17-2.7.93-5.27,1.96-7.76,2.24-5.38,5.75-9.65,10.8-12.65,3.96-2.36,8.24-3.85,12.77-4.39,4.71-.56,9.32.11,13.7,2.1,4.04,1.83,7.48,4.46,10.37,7.78,2.76,3.16,4.83,6.77,6.37,10.69,1.09,2.77,1.95,5.6,2.42,8.52.44,2.74.66,5.51.15,8.28-.14.77-.23,1.55-.32,2.33-.11.96-.68,1.41-1.56,1.71-4.39,1.46-8.77,2.97-13.15,4.47-.69.23-1.37.48-2.05.72h-.01Z" style="fill: #fde0a6;"/>
  <g id="star-1" style="filter: url(#outer-glow-1);">
    <path d="M262.94,126.42c-.05.38-.12.74-.61.79-1.11.11-2.06.03-2.77-1.07-1.44-2.21-2.98-4.35-4.5-6.51-.31-.44-.69-.84-1.18-1.43-.47,1.2-.85,2.22-1.27,3.22-1.01,2.39-2.03,4.77-3.08,7.14-.18.4-.5.79-.85,1.06-1.02.79-2.15.53-2.58-.68-.44-1.26-.73-2.58-.98-3.89-.5-2.63-.94-5.27-1.38-7.91-.1-.63-.09-1.29-.14-2-.28-.06-.54-.17-.8-.17-4.03.09-8.07.07-12.08.34-3.04.21-6.08.57-9.14.51-1.3-.02-1.65-.35-1.55-1.67.1-1.36.56-2.36,2.06-2.93,3.15-1.21,6.26-2.57,9.29-4.06,4.12-2.02,8.15-4.22,12.21-6.36,1.2-.63,1.14-.66.99-2.04-.25-2.39-.43-4.78-.64-7.18-.26-3.04-.53-6.07-.79-9.11-.11-1.29-.19-2.58-.27-3.87-.11-1.71-.21-3.41-.31-5.12.37-.37.37-.75,0-1.11-.08-1.61-.16-3.23-.26-4.84-.05-.86.08-1.66.56-2.39.63-.29,1.26-.3,1.89,0,1.28,3.27,2.5,6.56,3.86,9.8,1.35,3.25,2.81,6.45,4.27,9.65.36.79.87,1.51,1.38,2.38.56-.35,1.01-.65,1.47-.92,2.78-1.66,5.52-3.4,8.37-4.93,2.65-1.42,5.48-2.47,8.4-3.27,1.25-.34,2.13.36,1.95,1.64-.11.77-.33,1.54-.57,2.28-1.18,3.61-2.39,7.2-3.57,10.81-.13.38-.16.8-.25,1.21.31.19.53.37.78.46,3.5,1.33,7.01,2.65,10.52,3.98,1.3.49,2.6.97,3.89,1.5.51.21.99.51,1.44.83,1.16.84,1.04,2.51-.29,3.01-1.29.48-2.66.73-4.01,1.05-3.15.75-6.29,1.51-9.45,2.22-.71.16-.92.51-.8,1.18.52,3.05,1.07,6.09,1.53,9.14.28,1.82.38,3.67.65,5.5.23,1.55.63,3.08.86,4.63.15,1,.22,2.02.16,3.03-.02.43-.37,1.02-.74,1.21-.57.28-1.31.26-1.76-.37-.64-.9-1.3-1.8-1.82-2.77-.96-1.8-1.8-3.66-2.76-5.46-1.19-2.24-2.46-4.44-3.95-6.61-.1.65-.25,1.29-.31,1.95-.2,2.29-.14,4.62-.82,6.86-.06.21,0,.46,0,.69-.08.2-.17.39-.25.59h.01Z" style="fill: #fff;"/>
    <path d="M262.94,126.42c-.05.38-.12.74-.61.79-1.11.11-2.06.03-2.77-1.07-1.44-2.21-2.98-4.35-4.5-6.51-.31-.44-.69-.84-1.18-1.43-.47,1.2-.85,2.22-1.27,3.22-1.01,2.39-2.03,4.77-3.08,7.14-.18.4-.5.79-.85,1.06-1.02.79-2.15.53-2.58-.68-.44-1.26-.73-2.58-.98-3.89-.5-2.63-.94-5.27-1.38-7.91-.1-.63-.09-1.29-.14-2-.28-.06-.54-.17-.8-.17-4.03.09-8.07.07-12.08.34-3.04.21-6.08.57-9.14.51-1.3-.02-1.65-.35-1.55-1.67.1-1.36.56-2.36,2.06-2.93,3.15-1.21,6.26-2.57,9.29-4.06,4.12-2.02,8.15-4.22,12.21-6.36,1.2-.63,1.14-.66.99-2.04-.25-2.39-.43-4.78-.64-7.18-.26-3.04-.53-6.07-.79-9.11-.11-1.29-.19-2.58-.27-3.87-.11-1.71-.21-3.41-.31-5.12.37-.37.37-.75,0-1.11-.08-1.61-.16-3.23-.26-4.84-.05-.86.08-1.66.56-2.39.63-.29,1.26-.3,1.89,0,1.28,3.27,2.5,6.56,3.86,9.8,1.35,3.25,2.81,6.45,4.27,9.65.36.79.87,1.51,1.38,2.38.56-.35,1.01-.65,1.47-.92,2.78-1.66,5.52-3.4,8.37-4.93,2.65-1.42,5.48-2.47,8.4-3.27,1.25-.34,2.13.36,1.95,1.64-.11.77-.33,1.54-.57,2.28-1.18,3.61-2.39,7.2-3.57,10.81-.13.38-.16.8-.25,1.21.31.19.53.37.78.46,3.5,1.33,7.01,2.65,10.52,3.98,1.3.49,2.6.97,3.89,1.5.51.21.99.51,1.44.83,1.16.84,1.04,2.51-.29,3.01-1.29.48-2.66.73-4.01,1.05-3.15.75-6.29,1.51-9.45,2.22-.71.16-.92.51-.8,1.18.52,3.05,1.07,6.09,1.53,9.14.28,1.82.38,3.67.65,5.5.23,1.55.63,3.08.86,4.63.15,1,.22,2.02.16,3.03-.02.43-.37,1.02-.74,1.21-.57.28-1.31.26-1.76-.37-.64-.9-1.3-1.8-1.82-2.77-.96-1.8-1.8-3.66-2.76-5.46-1.19-2.24-2.46-4.44-3.95-6.61-.1.65-.25,1.29-.31,1.95-.2,2.29-.14,4.62-.82,6.86-.06.21,0,.46,0,.69-.08.2-.17.39-.25.59h.01Z" style="fill: #fff;"/>
  </g>
  <path d="M342.98,45.95c-.44,0-.85-.04-1.25,0-4.49.54-8.98,1.09-13.46,1.67-1.19.15-2.36.44-3.54.66-.32.06-.64.12-.96.13-1.2.02-1.59-.36-1.54-1.59.04-1.1.35-2.13,1.24-2.84,1.3-1.04,2.63-2.05,3.98-3.02,3.68-2.65,7.36-5.3,10.74-8.32,1.13-1.01,2.32-1.96,3.55-2.99-.99-4.71-1.96-9.36-2.93-14.01-.69-3.3-1.46-6.58-2.03-9.9-.2-1.15-.05-2.41.22-3.56.28-1.22,1.04-1.37,1.86-.42,1.61,1.84,3.23,3.7,4.7,5.65,2.5,3.33,4.88,6.74,7.33,10.11.54.74,1.14,1.45,1.81,2.28,2.04-.78,4.07-1.51,6.07-2.32,2.02-.81,4.01-1.69,6.01-2.55,2-.85,3.96-1.82,6.01-2.54,2.02-.71,3.71-2.29,5.99-2.4.99,1.57.86,3.02-.08,4.45-2.53,3.82-5.06,7.63-7.59,11.45-.25.38-.48.77-.8,1.3.93.69,1.74,1.36,2.62,1.93,1.79,1.15,3.61,2.25,5.42,3.37,2.28,1.42,4.58,2.8,6.82,4.28,1.25.82,1.61,3.36.66,4.38-.31.33-.9.53-1.37.56-1.06.07-2.13.05-3.19-.04-1.01-.09-2-.33-3.01-.47-1.37-.19-2.74-.37-4.12-.52-1.24-.13-2.48-.22-3.73-.31-.4-.03-.81.03-1.28.05,0,2.03-.1,3.96.03,5.89.15,2.3.5,4.58.74,6.88.12,1.19.26,2.4.23,3.59-.03,1.1-.31,2.18-.44,3.28-.22,1.83-2.5,1.8-3.34.79-.38-.46-.71-.98-1-1.5-2.41-4.22-4.88-8.41-7.74-12.35-.64-.88-1.38-1.69-2.48-2.35-.31.94-.59,1.71-.82,2.49-1.48,5.23-4.09,9.91-6.96,14.47-.52.82-1.14,1.57-1.76,2.31-.26.31-.61.62-.98.75-1.5.52-2.42.18-2.27-1.41.14-1.51.37-3.02.62-4.52.69-4.05,1.42-8.09,2.12-12.13.03-.17-.04-.35-.08-.65h-.02Z" style="fill: #fde0a6;"/>
  <path d="M400.46,38.41c-.63-.09-.66-.44-.34-.87.41-.55.82-1.12,1.3-1.6,2.3-2.27,3.88-5,5.33-7.84.21-.42.59-.76.9-1.14-.34,1.71-1.26,3.17-2.19,4.57-1.38,2.06-2.99,3.96-4.48,5.94-.21.28-.35.62-.52.94h0Z" style="fill: #fde0a6;"/>
  <path d="M387.41,151.19c.07-.21.08-.47.21-.64,1.76-2.16,3.1-4.58,4.29-7.08.49-1.03.88-2.11,1.31-3.17.41.3.23.65.07.98-.95,2.04-1.85,4.1-2.88,6.1-.54,1.05-1.27,2.02-1.97,2.98-.25.34-.69.55-1.04.82h.01Z" style="fill: #fde0a6;"/>
  <path d="M366.48,96.31c.26-.48.44-1.03.79-1.42,1.61-1.79,2.48-3.93,3.13-6.19.31-1.05.66-2.1,1.04-3.13.1-.27.36-.47.54-.71-.83,3.29-1.67,6.58-3.57,9.45-.5.76-.83,1.78-1.94,2h0Z" style="fill: #fde0a6;"/>
  <path d="M397.14,1.42c-.09.21-.13.47-.28.61-1.47,1.3-1.99,3.04-2.29,4.89-.02.12-.16.21-.25.32-.08-.16-.25-.34-.22-.48.38-1.65.6-3.36,1.74-4.73.36-.43.73-.7,1.3-.61h0Z" style="fill: #fde0a6;"/>
  <path d="M456.14,97.43c-.35-1.03-.35-5.9,0-6.96.1.24.28.48.28.73.02,1.83.02,3.67,0,5.5,0,.25-.18.49-.27.73h-.01Z" style="fill: #fde0a6;"/>
  <path d="M449.47,119.7c.02-.18-.02-.4.07-.54.86-1.36,1.73-2.71,2.62-4.05.06-.09.25-.1.38-.14-.63,1.83-1.49,3.51-3.06,4.73h-.01Z" style="fill: #fde0a6;"/>
  <path d="M407.71,26.17c.3-1.48.6-2.97.92-4.44.03-.13.27-.22.41-.32.12,1.63-.48,3.12-.96,4.62-.03.08-.24.1-.37.15h0Z" style="fill: #fde0a6;"/>
  <path d="M452.83,113.86c.47-1.58.94-3.16,1.41-4.74h.27c-.05,1.7-.65,3.24-1.41,4.73h-.27Z" style="fill: #fde0a6;"/>
  <path d="M415.99,52.93c-.14-.11-.37-.18-.42-.32-.4-1.12-.76-2.25-1.13-3.38.32.41.74.78.92,1.24.3.79.43,1.64.63,2.46Z" style="fill: #fde0a6;"/>
  <path d="M454.5,82.12c-.46-1.31-.91-2.62-1.37-3.92.15.09.38.15.43.28.4,1.01.78,2.02,1.12,3.05.05.16-.12.39-.19.59h.01Z" style="fill: #fde0a6;"/>
  <path d="M394.62,94.37c.28-1.11.56-2.23.84-3.34h.27c-.21,1.03-.42,2.06-.66,3.08-.03.12-.29.18-.45.26h0Z" style="fill: #fde0a6;"/>
  <path d="M391.89,104.98c.26-1.03.52-2.07.78-3.1.58.51.05,1.04-.06,1.49-.13.55.04,1.32-.72,1.61Z" style="fill: #fde0a6;"/>
  <path d="M408.21,6.71c-.99-.57-.94-1.67-1.32-2.56,1.04.54.99,1.65,1.32,2.56Z" style="fill: #fde0a6;"/>
  <path d="M413.83,69.59c.29-.93.57-1.86.86-2.78.22,1.02-.25,1.89-.59,2.78h-.27Z" style="fill: #fde0a6;"/>
  <path d="M393.23,130c-.27-.84-.54-1.69-.8-2.53.76.7,1.06,1.64.8,2.53Z" style="fill: #fde0a6;"/>
  <path d="M390.69,110.24c-.21-.93.14-1.73.57-2.51.23.93-.09,1.74-.57,2.51Z" style="fill: #fde0a6;"/>
  <path d="M396.29,87.97c.28-.84.55-1.68.83-2.51.18,1.12-.08,1.91-.83,2.51Z" style="fill: #fde0a6;"/>
  <path d="M244.76,65.16c-.63-.3-1.26-.29-1.89,0,.69-1.1,1.22-1.1,1.89,0Z" style="fill: #fde0a6;"/>
  <path d="M398.84,80.21c.19-.75.27-1.56,1.05-2-.22.73-.18,1.61-1.05,2Z" style="fill: #fde0a6;"/>
  <path d="M390.94,123.35c-.85-.42-.85-1.26-1-2.03.7.49.83,1.27,1,2.03Z" style="fill: #fde0a6;"/>
  <path d="M409.39,14.75c-.43-.55-.41-1.1-.04-1.67.43.55.41,1.1.04,1.67Z" style="fill: #fde0a6;"/>
  <path d="M454.51,109.13h-.27c.19-.56.37-1.11.55-1.67.47.65,0,1.15-.28,1.67Z" style="fill: #fde0a6;"/>
  <path d="M395.72,91.03h-.27c.19-.56.38-1.11.57-1.67.26.62,0,1.15-.3,1.67h0Z" style="fill: #fde0a6;"/>
  <path d="M413.83,69.59h.27c-.09.65,0,1.38-.82,1.68.18-.56.37-1.12.55-1.68h0Z" style="fill: #fde0a6;"/>
  <path d="M409.36,17.25c-.37-.47-.39-.94.03-1.39.37.47.39.94-.03,1.39Z" style="fill: #fde0a6;"/>
  <path d="M415.56,62.11c.02-.53-.33-1.17.44-1.47-.01.53.34,1.17-.44,1.47Z" style="fill: #fde0a6;"/>
  <path d="M455.38,103.59c.02-.53-.33-1.17.44-1.46-.02.53.34,1.17-.44,1.46Z" style="fill: #fde0a6;"/>
  <path d="M400.45,77.09c.06-.32.11-.64.17-.95.12,0,.24,0,.35.01,0,.51.02,1.01.03,1.52-.18-.19-.37-.39-.55-.58h0Z" style="fill: #fde0a6;"/>
  <path d="M454.82,106.93c.09-.38.18-.76.27-1.14.34.48.4.9-.27,1.14Z" style="fill: #fde0a6;"/>
  <path d="M416.04,59.29c-.35-.38-.37-.76.04-1.11.36.38.37.76-.04,1.11Z" style="fill: #fde0a6;"/>
  <path d="M393.74,137.52c-.34-.39-.35-.76.04-1.11.37.39.39.76-.04,1.11Z" style="fill: #fde0a6;"/>
  <path d="M163.49,52.63c.06-.52.16-1.02.79-1.15-.06.52-.17,1.02-.79,1.15Z" style="fill: #fde0a6;"/>
  <path d="M242.56,72.38c.38.37.38.74,0,1.11-.39-.37-.39-.74,0-1.11Z" style="fill: #fde0a6;"/>
  <path d="M148.99,43.99c-.38.36-.75.38-1.11-.03.38-.36.75-.37,1.11.03Z" style="fill: #fde0a6;"/>
  <path d="M393.23,139.75c.1-.37.2-.75.3-1.12.33.49.45.92-.3,1.12Z" style="fill: #fde0a6;"/>
  <path d="M157.65,61.26c0-.55.28-.81.8-.87,0,.53-.29.8-.8.87Z" style="fill: #fde0a6;"/>
  <path d="M365.08,97.41c.07-.52.32-.82.88-.78-.08.5-.35.78-.88.78Z" style="fill: #fde0a6;"/>
  <path d="M415.28,63.78c.08-.29.16-.58.25-.87.39.42.28.71-.25.87Z" style="fill: #fde0a6;"/>
  <path d="M455.86,101.05c-.32-.29-.32-.57.04-.83.33.29.34.57-.04.83Z" style="fill: #fde0a6;"/>
  <path d="M409.12,11.41c-.1-.28-.19-.56-.29-.84.57.12.68.39.29.84Z" style="fill: #fde0a6;"/>
  <path d="M455.9,88.52c-.36-.26-.36-.54-.05-.83.38.26.38.54.05.83Z" style="fill: #fde0a6;"/>
  <path d="M137.85,43.44c-.29.33-.57.33-.83-.03.29-.33.57-.32.83.03Z" style="fill: #fde0a6;"/>
  <path d="M391.32,107.21c-.07-.41-.08-.8.46-.9.06.41.06.79-.46.9Z" style="fill: #fde0a6;"/>
  <path d="M455.11,105.26c.08-.29.16-.58.24-.87.39.42.29.7-.24.87Z" style="fill: #fde0a6;"/>
  <path d="M393.79,132.51c-.09-.28-.19-.56-.28-.84.58.12.69.39.28.84Z" style="fill: #fde0a6;"/>
  <path d="M416.09,54.56c-.37-.26-.38-.54-.05-.83.37.26.37.54.05.83Z" style="fill: #fde0a6;"/>
  <path d="M455.08,84.07c-.1-.28-.21-.56-.31-.84.57.1.69.38.31.84Z" style="fill: #fde0a6;"/>
  <path d="M142.3,43.71c-.29.33-.56.33-.84-.02.29-.34.56-.34.84.02Z" style="fill: #fde0a6;"/>
  <path d="M455.35,85.18c-.08-.2-.16-.4-.24-.6.31.11.63.21.24.6Z" style="fill: #fde0a6;"/>
  <path d="M372.03,84.35c0-.19.02-.37.03-.56.28.2.28.39-.03.56Z" style="fill: #fde0a6;"/>
  <path d="M389.9,120.82c-.08-.2-.16-.4-.24-.6.31.11.63.21.24.6Z" style="fill: #fde0a6;"/>
  <path d="M159.31,59.03c.17-.2.34-.39.52-.59-.17.2-.34.39-.52.59Z" style="fill: #fde0a6;"/>
  <path d="M262.94,126.42c.08-.2.17-.39.25-.59.4.4.07.49-.25.59Z" style="fill: #fde0a6;"/>
  <path d="M455.62,86.57c-.08-.2-.15-.4-.23-.6.31.11.63.22.23.6Z" style="fill: #fde0a6;"/>
  <path d="M396.07,88.84l.22-.6c.41.38.1.49-.22.6Z" style="fill: #fde0a6;"/>
  <path d="M401,85.19c.08.19.17.38.25.57-.33-.09-.64-.17-.25-.57Z" style="fill: #fde0a6;"/>
  <path d="M349.52,104.11c-.01-.19-.02-.37-.04-.56.01.19.02.37.04.56Z" style="fill: #fde0a6;"/>
  <path d="M408.55,8.35c-.08-.2-.17-.39-.25-.59.32.1.65.19.25.59Z" style="fill: #fde0a6;"/>
  <path d="M408.82,9.46c-.08-.2-.15-.39-.23-.59.32.1.65.2.23.59Z" style="fill: #fde0a6;"/>
  <path d="M398.24,81.57c.17-.2.34-.39.51-.59-.17.2-.34.39-.51.59Z" style="fill: #fde0a6;"/>
  <path d="M409.1,20.04c-.42-.37-.11-.49.21-.6-.07.2-.14.4-.21.6Z" style="fill: #fde0a6;"/>
  <path d="M164.57,50.93c.08-.14.15-.28.23-.42.12.14.23.28.35.43h-.58Z" style="fill: #fde0a6;"/>
  <path d="M162.94,53.47c.17-.2.34-.4.51-.6-.17.2-.34.4-.51.6Z" style="fill: #fde0a6;"/>
  <path d="M162.38,54.3c.17-.2.34-.4.51-.59-.17.2-.34.4-.51.59Z" style="fill: #fde0a6;"/>
  <path d="M379.03,222.7c0,.19,0,.37-.01.56,0-.19,0-.37.01-.56Z" style="fill: #fde0a6;"/>
  <path d="M451.95,75.46c-.17-.2-.34-.4-.5-.6.17.2.34.4.5.6Z" style="fill: #fde0a6;"/>
  <path d="M161.27,55.97c.17-.2.34-.39.51-.59-.17.2-.34.39-.51.59Z" style="fill: #fde0a6;"/>
  <path d="M413.06,72.41c.07-.2.14-.4.21-.59.43.37.12.48-.21.59Z" style="fill: #fde0a6;"/>
  <path d="M378.47,234.95c0,.19,0,.37-.01.56,0-.19,0-.37.01-.56Z" style="fill: #fde0a6;"/>
  <path d="M390.17,111.36c.16-.2.33-.4.49-.61.07.39-.13.56-.49.61Z" style="fill: #fde0a6;"/>
  <path d="M452.83,113.86h.27c-.17.2-.34.39-.5.59.08-.2.16-.39.23-.59Z" style="fill: #fde0a6;"/>
  <path d="M414.72,66.29c.08-.2.16-.4.25-.6.4.4.07.49-.25.6Z" style="fill: #fde0a6;"/>
  <path d="M154.29,57.62c0,.19,0,.37-.02.56,0-.19,0-.37.02-.56Z" style="fill: #fde0a6;"/>
  <path d="M389.62,119.42c0-.19-.02-.37-.03-.56,0,.19.02.37.03.56Z" style="fill: #fde0a6;"/>
</svg>