<?xml version="1.0" encoding="utf-8"?>
<svg xmlns="http://www.w3.org/2000/svg" viewBox="49.1216 57.2476 369.0845 269.8661" width="369.084px" height="269.866px" preserveAspectRatio="none"><path class="cls-1" d="M 452.454 180.835 C 452.454 213.315 459.954 323.595 429.134 345.435 C 396.124 368.825 349.479 358.925 297.729 358.925 C 292.31 358.925 279.299 381.75 273.522 381.849 C 267.678 381.948 257.38 358.707 251.306 358.823 C 206.025 359.684 136.536 359.183 110.494 340.845 C 79.454 318.975 85.214 268.495 85.214 235.895 C 85.214 203.295 83.544 155.025 112.024 133.515 C 145.204 108.445 212.534 114.105 266.364 114.105 C 324.274 114.105 400.564 103.035 433.724 131.465 C 449.814 145.255 443.764 140.655 451.934 153.085 C 454.714 157.315 453.688 165.564 453.706 167.031 C 453.729 168.849 452.444 175.075 452.444 180.835 L 452.454 180.835 Z" style="fill: rgb(188, 190, 192); opacity: 0.1; stroke: rgb(35, 31, 32); stroke-miterlimit: 10; stroke-width: 1;" id="object-0" transform="matrix(1, 0, 0, 1, -35.67035675048828, -54.73554611206055)"/></svg>