<?xml version="1.0" encoding="UTF-8"?>
<svg xmlns="http://www.w3.org/2000/svg" viewBox="0 0 580.66 819.83">
  <g id="Layer_5" style="opacity: .5;">
    <g id="small">
      <path d="M30.65,594l.16.56c.26.91.98,1.63,1.89,1.89l.56.16-.56.16c-.91.26-1.63.98-1.89,1.89l-.16.56-.16-.56c-.26-.91-.98-1.63-1.89-1.89l-.56-.16.56-.16c.91-.26,1.63-.98,1.89-1.89l.16-.56Z" style="fill: #fff; opacity: .5;"/>
      <path d="M28.04,538.82l.16.56c.26.91.98,1.63,1.89,1.89l.56.16-.56.16c-.91.26-1.63.98-1.89,1.89l-.16.56-.16-.56c-.26-.91-.98-1.63-1.89-1.89l-.56-.16.56-.16c.91-.26,1.63-.98,1.89-1.89l.16-.56Z" style="fill: #fff; opacity: .5;"/>
      <path d="M143.27,615.07h0c.28.96,1.03,1.71,1.99,1.99h0c.14.04.14.24,0,.28h0c-.96.28-1.71,1.03-1.99,1.99h0c-.04.14-.24.14-.28,0h0c-.28-.96-1.03-1.71-1.99-1.99h0c-.14-.04-.14-.24,0-.28h0c.96-.28,1.71-1.03,1.99-1.99h0c.04-.14.24-.14.28,0Z" style="fill: #fff; opacity: .5;"/>
      <path d="M297.25,518.5h0c.28.96,1.03,1.71,1.99,1.99h0c.14.04.14.24,0,.28h0c-.96.28-1.71,1.03-1.99,1.99h0c-.04.14-.24.14-.28,0h0c-.28-.96-1.03-1.71-1.99-1.99h0c-.14-.04-.14-.24,0-.28h0c.96-.28,1.71-1.03,1.99-1.99h0c.04-.14.24-.14.28,0Z" style="fill: #fff; opacity: .5;"/>
      <path d="M89.93,483.46h0c.28.96,1.03,1.71,1.99,1.99h0c.14.04.14.24,0,.28h0c-.96.28-1.71,1.03-1.99,1.99h0c-.04.14-.24.14-.28,0h0c-.28-.96-1.03-1.71-1.99-1.99h0c-.14-.04-.14-.24,0-.28h0c.96-.28,1.71-1.03,1.99-1.99h0c.04-.14.24-.14.28,0Z" style="fill: #fff; opacity: .5;"/>
      <path d="M36.01,459.34h0c.28.96,1.03,1.71,1.99,1.99h0c.14.04.14.24,0,.28h0c-.96.28-1.71,1.03-1.99,1.99h0c-.04.14-.24.14-.28,0h0c-.28-.96-1.03-1.71-1.99-1.99l-.48-.14.48-.14c.96-.28,1.71-1.03,1.99-1.99h0c.04-.14.24-.14.28,0Z" style="fill: #fff; opacity: .5;"/>
      <path d="M199.22,462.12l.16.56c.26.91.98,1.63,1.89,1.89l.56.16-.56.16c-.91.26-1.63.98-1.89,1.89l-.16.56-.16-.56c-.26-.91-.98-1.63-1.89-1.89l-.56-.16.56-.16c.91-.26,1.63-.98,1.89-1.89l.16-.56Z" style="fill: #fff; opacity: .5;"/>
      <path d="M556.52,727.13c-.26-.91-.98-1.63-1.89-1.89l-.56-.16.56-.16c.91-.26,1.63-.98,1.89-1.89l.16-.56.16.56c.26.91.98,1.63,1.89,1.89l.56.16-.56.16c-.91.26-1.63.98-1.89,1.89" style="fill: #fff; opacity: .5;"/>
      <path d="M528.82,806.11l-.56.16c-.91.26-1.63.98-1.89,1.89l-.16.56-.16-.56c-.26-.91-.98-1.63-1.89-1.89l-.56-.16.56-.16c.91-.26,1.63-.98,1.89-1.89l.16-.56.16.56c.26.91.98,1.63,1.89,1.89l.56.16Z" style="fill: #fff; opacity: .5;"/>
      <path d="M232.34,500.45l.16.56c.26.91.98,1.63,1.89,1.89l.56.16-.56.16c-.91.26-1.63.98-1.89,1.89l-.16.56-.16-.56c-.26-.91-.98-1.63-1.89-1.89l-.56-.16.56-.16c.91-.26,1.63-.98,1.89-1.89l.16-.56Z" style="fill: #fff; opacity: .5;"/>
      <path d="M261.63,444.49l.16.56c.26.91.98,1.63,1.89,1.89l.56.16-.56.16c-.91.26-1.63.98-1.89,1.89l-.16.56-.16-.56c-.26-.91-.98-1.63-1.89-1.89l-.56-.16.56-.16c.91-.26,1.63-.98,1.89-1.89l.16-.56Z" style="fill: #fff; opacity: .5;"/>
      <path d="M150.92,581.93h0c.28.96,1.03,1.71,1.99,1.99h0c.14.04.14.24,0,.28h0c-.96.28-1.71,1.03-1.99,1.99h0c-.04.14-.24.14-.28,0h0c-.28-.96-1.03-1.71-1.99-1.99h0c-.14-.04-.14-.24,0-.28h0c.96-.28,1.71-1.03,1.99-1.99h0c.04-.14.24-.14.28,0Z" style="fill: #fff; opacity: .5;"/>
      <path d="M272.17,651.67h0c.28.96,1.03,1.71,1.99,1.99h0c.14.04.14.24,0,.28h0c-.96.28-1.71,1.03-1.99,1.99h0c-.04.14-.24.14-.28,0h0c-.28-.96-1.03-1.71-1.99-1.99l-.48-.14.48-.14c.96-.28,1.71-1.03,1.99-1.99h0c.04-.14.24-.14.28,0Z" style="fill: #fff; opacity: .5;"/>
      <path d="M166.79,451.28l.16.56c.26.91.98,1.63,1.89,1.89l.56.16-.56.16c-.91.26-1.63.98-1.89,1.89l-.16.56-.16-.56c-.26-.91-.98-1.63-1.89-1.89l-.56-.16.56-.16c.91-.26,1.63-.98,1.89-1.89l.16-.56Z" style="fill: #fff; opacity: .5;"/>
      <path d="M89.61,682.79l.16.56c.26.91.98,1.63,1.89,1.89l.56.16-.56.16c-.91.26-1.63.98-1.89,1.89l-.16.56-.16-.56c-.26-.91-.98-1.63-1.89-1.89l-.56-.16.56-.16c.91-.26,1.63-.98,1.89-1.89l.16-.56Z" style="fill: #fff; opacity: .5;"/>
      <path d="M126.47,766.49l.56.16-.56.16c-.91.26-1.63.98-1.89,1.89l-.16.56-.16-.56c-.26-.91-.98-1.63-1.89-1.89l-.56-.16.56-.16" style="fill: #fff; opacity: .5;"/>
      <path d="M534.53,612.54l.16.56c.26.91.98,1.63,1.89,1.89l.56.16-.56.16c-.91.26-1.63.98-1.89,1.89l-.16.56-.16-.56c-.26-.91-.98-1.63-1.89-1.89l-.56-.16.56-.16c.91-.26,1.63-.98,1.89-1.89l.16-.56Z" style="fill: #fff; opacity: .5;"/>
      <path d="M215.06,705.1l.16.56c.26.91.98,1.63,1.89,1.89l.56.16-.56.16c-.91.26-1.63.98-1.89,1.89l-.16.56-.16-.56c-.26-.91-.98-1.63-1.89-1.89l-.56-.16.56-.16c.91-.26,1.63-.98,1.89-1.89l.16-.56Z" style="fill: #fff; opacity: .5;"/>
      <path d="M368.17,482.97l.16.56c.26.91.98,1.63,1.89,1.89l.56.16-.56.16c-.91.26-1.63.98-1.89,1.89l-.16.56-.16-.56c-.26-.91-.98-1.63-1.89-1.89l-.56-.16.56-.16c.91-.26,1.63-.98,1.89-1.89l.16-.56Z" style="fill: #fff; opacity: .5;"/>
      <path d="M432.15,469.69l.16.56c.26.91.98,1.63,1.89,1.89l.56.16-.56.16c-.91.26-1.63.98-1.89,1.89l-.16.56-.16-.56c-.26-.91-.98-1.63-1.89-1.89l-.56-.16.56-.16c.91-.26,1.63-.98,1.89-1.89l.16-.56Z" style="fill: #fff; opacity: .5;"/>
      <path d="M413.43,520.62l.16.56c.26.91.98,1.63,1.89,1.89l.56.16-.56.16c-.91.26-1.63.98-1.89,1.89l-.16.56-.16-.56c-.26-.91-.98-1.63-1.89-1.89l-.56-.16.56-.16c.91-.26,1.63-.98,1.89-1.89l.16-.56Z" style="fill: #fff; opacity: .5;"/>
      <path d="M552.08,460l.16.56c.26.91.98,1.63,1.89,1.89l.56.16-.56.16c-.91.26-1.63.98-1.89,1.89l-.16.56-.16-.56c-.26-.91-.98-1.63-1.89-1.89l-.56-.16.56-.16c.91-.26,1.63-.98,1.89-1.89l.16-.56Z" style="fill: #fff; opacity: .5;"/>
      <path d="M261.69,738.49l.16.56c.26.91.98,1.63,1.89,1.89l.56.16-.56.16c-.91.26-1.63.98-1.89,1.89l-.16.56-.16-.56c-.26-.91-.98-1.63-1.89-1.89l-.56-.16.56-.16c.91-.26,1.63-.98,1.89-1.89l.16-.56Z" style="fill: #fff; opacity: .5;"/>
      <path d="M240.74,591.81l.16.56c.26.91.98,1.63,1.89,1.89l.56.16-.56.16c-.91.26-1.63.98-1.89,1.89l-.16.56-.16-.56c-.26-.91-.98-1.63-1.89-1.89l-.56-.16.56-.16c.91-.26,1.63-.98,1.89-1.89l.16-.56Z" style="fill: #fff; opacity: .5;"/>
      <path d="M313.91,726.57l.16.56c.26.91.98,1.63,1.89,1.89l.56.16-.56.16c-.91.26-1.63.98-1.89,1.89l-.16.56-.16-.56c-.26-.91-.98-1.63-1.89-1.89l-.56-.16.56-.16c.91-.26,1.63-.98,1.89-1.89l.16-.56Z" style="fill: #fff; opacity: .5;"/>
      <path d="M213.53,800.1l.16.56c.26.91.98,1.63,1.89,1.89l.56.16-.56.16c-.91.26-1.63.98-1.89,1.89l-.16.56-.16-.56c-.26-.91-.98-1.63-1.89-1.89l-.56-.16.56-.16c.91-.26,1.63-.98,1.89-1.89l.16-.56Z" style="fill: #fff; opacity: .5;"/>
      <path d="M409.18,670.41l.16.56c.26.91.98,1.63,1.89,1.89l.56.16-.56.16c-.91.26-1.63.98-1.89,1.89l-.16.56-.16-.56c-.26-.91-.98-1.63-1.89-1.89l-.56-.16.56-.16c.91-.26,1.63-.98,1.89-1.89l.16-.56Z" style="fill: #fff; opacity: .5;"/>
      <path d="M409.18,759.02l.16.56c.26.91.98,1.63,1.89,1.89l.56.16-.56.16c-.91.26-1.63.98-1.89,1.89l-.16.56-.16-.56c-.26-.91-.98-1.63-1.89-1.89l-.56-.16.56-.16c.91-.26,1.63-.98,1.89-1.89l.16-.56Z" style="fill: #fff; opacity: .5;"/>
      <path d="M343.8,761.83l.16.56c.26.91.98,1.63,1.89,1.89l.56.16-.56.16c-.91.26-1.63.98-1.89,1.89l-.16.56-.16-.56c-.26-.91-.98-1.63-1.89-1.89l-.56-.16.56-.16c.91-.26,1.63-.98,1.89-1.89l.16-.56Z" style="fill: #fff; opacity: .5;"/>
      <path d="M330.79,692.34l.16.56c.26.91.98,1.63,1.89,1.89l.56.16-.56.16c-.91.26-1.63.98-1.89,1.89l-.16.56-.16-.56c-.26-.91-.98-1.63-1.89-1.89l-.56-.16.56-.16c.91-.26,1.63-.98,1.89-1.89l.16-.56Z" style="fill: #fff; opacity: .5;"/>
      <path d="M17.42,193.99l.16.56c.26.91.98,1.63,1.89,1.89l.56.16-.56.16c-.91.26-1.63.98-1.89,1.89l-.16.56-.16-.56c-.26-.91-.98-1.63-1.89-1.89l-.56-.16.56-.16c.91-.26,1.63-.98,1.89-1.89l.16-.56Z" style="fill: #fff; opacity: .5;"/>
      <path d="M105.59,124.25l.16.56c.26.91.98,1.63,1.89,1.89l.56.16-.56.16c-.91.26-1.63.98-1.89,1.89l-.16.56-.16-.56c-.26-.91-.98-1.63-1.89-1.89l-.56-.16.56-.16c.91-.26,1.63-.98,1.89-1.89l.16-.56Z" style="fill: #fff; opacity: .5;"/>
      <path d="M117.69,181.76h0c.28.96,1.03,1.71,1.99,1.99h0c.14.04.14.24,0,.28h0c-.96.28-1.71,1.03-1.99,1.99h0c-.04.14-.24.14-.28,0h0c-.28-.96-1.03-1.71-1.99-1.99h0c-.14-.04-.14-.24,0-.28h0c.96-.28,1.71-1.03,1.99-1.99h0c.04-.14.24-.14.28,0Z" style="fill: #fff; opacity: .5;"/>
      <path d="M284.02,118.49h0c.28.96,1.03,1.71,1.99,1.99h0c.14.04.14.24,0,.28h0c-.96.28-1.71,1.03-1.99,1.99h0c-.04.14-.24.14-.28,0h0c-.28-.96-1.03-1.71-1.99-1.99h0c-.14-.04-.14-.24,0-.28h0c.96-.28,1.71-1.03,1.99-1.99h0c.04-.14.24-.14.28,0Z" style="fill: #fff; opacity: .5;"/>
      <path d="M76.69,83.45h0c.28.96,1.03,1.71,1.99,1.99h0c.14.04.14.24,0,.28h0c-.96.28-1.71,1.03-1.99,1.99h0c-.04.14-.24.14-.28,0h0c-.28-.96-1.03-1.71-1.99-1.99h0c-.14-.04-.14-.24,0-.28h0c.96-.28,1.71-1.03,1.99-1.99h0c.04-.14.24-.14.28,0Z" style="fill: #fff; opacity: .5;"/>
      <path d="M22.78,59.33h0c.28.96,1.03,1.71,1.99,1.99h0c.14.04.14.24,0,.28h0c-.96.28-1.71,1.03-1.99,1.99h0c-.04.14-.24.14-.28,0h0c-.28-.96-1.03-1.71-1.99-1.99l-.48-.14.48-.14c.96-.28,1.71-1.03,1.99-1.99h0c.04-.14.24-.14.28,0Z" style="fill: #fff; opacity: .5;"/>
      <path d="M185.98,62.11l.16.56c.26.91.98,1.63,1.89,1.89l.56.16-.56.16c-.91.26-1.63.98-1.89,1.89l-.16.56-.16-.56c-.26-.91-.98-1.63-1.89-1.89l-.56-.16.56-.16c.91-.26,1.63-.98,1.89-1.89l.16-.56Z" style="fill: #fff; opacity: .5;"/>
      <path d="M543.28,327.12c-.26-.91-.98-1.63-1.89-1.89l-.56-.16.56-.16c.91-.26,1.63-.98,1.89-1.89l.16-.56.16.56c.26.91.98,1.63,1.89,1.89l.56.16-.56.16c-.91.26-1.63.98-1.89,1.89" style="fill: #fff; opacity: .5;"/>
      <path d="M515.59,406.1l-.56.16c-.91.26-1.63.98-1.89,1.89l-.16.56-.16-.56c-.26-.91-.98-1.63-1.89-1.89l-.56-.16.56-.16c.91-.26,1.63-.98,1.89-1.89l.16-.56.16.56c.26.91.98,1.63,1.89,1.89l.56.16Z" style="fill: #fff; opacity: .5;"/>
      <path d="M219.1,100.44l.16.56c.26.91.98,1.63,1.89,1.89l.56.16-.56.16c-.91.26-1.63.98-1.89,1.89l-.16.56-.16-.56c-.26-.91-.98-1.63-1.89-1.89l-.56-.16.56-.16c.91-.26,1.63-.98,1.89-1.89l.16-.56Z" style="fill: #fff; opacity: .5;"/>
      <path d="M278.85,32.09l.16.56c.26.91.98,1.63,1.89,1.89l.56.16-.56.16c-.91.26-1.63.98-1.89,1.89l-.16.56-.16-.56c-.26-.91-.98-1.63-1.89-1.89l-.56-.16.56-.16c.91-.26,1.63-.98,1.89-1.89l.16-.56Z" style="fill: #fff; opacity: .5;"/>
      <path d="M160.12,236.18h0c.28.96,1.03,1.71,1.99,1.99h0c.14.04.14.24,0,.28h0c-.96.28-1.71,1.03-1.99,1.99h0c-.04.14-.24.14-.28,0h0c-.28-.96-1.03-1.71-1.99-1.99h0c-.14-.04-.14-.24,0-.28h0c.96-.28,1.71-1.03,1.99-1.99h0c.04-.14.24-.14.28,0Z" style="fill: #fff; opacity: .5;"/>
      <path d="M347.75,215.81h0c.28.96,1.03,1.71,1.99,1.99h0c.14.04.14.24,0,.28h0c-.96.28-1.71,1.03-1.99,1.99h0c-.04.14-.24.14-.28,0h0c-.28-.96-1.03-1.71-1.99-1.99l-.48-.14.48-.14c.96-.28,1.71-1.03,1.99-1.99h0c.04-.14.24-.14.28,0Z" style="fill: #fff; opacity: .5;"/>
      <path d="M153.56,51.27l.16.56c.26.91.98,1.63,1.89,1.89l.56.16-.56.16c-.91.26-1.63.98-1.89,1.89l-.16.56-.16-.56c-.26-.91-.98-1.63-1.89-1.89l-.56-.16.56-.16c.91-.26,1.63-.98,1.89-1.89l.16-.56Z" style="fill: #fff; opacity: .5;"/>
      <path d="M76.37,282.78l.16.56c.26.91.98,1.63,1.89,1.89l.56.16-.56.16c-.91.26-1.63.98-1.89,1.89l-.16.56-.16-.56c-.26-.91-.98-1.63-1.89-1.89l-.56-.16.56-.16c.91-.26,1.63-.98,1.89-1.89l.16-.56Z" style="fill: #fff; opacity: .5;"/>
      <path d="M113.23,366.48l.56.16-.56.16c-.91.26-1.63.98-1.89,1.89l-.16.56-.16-.56c-.26-.91-.98-1.63-1.89-1.89l-.56-.16.56-.16" style="fill: #fff; opacity: .5;"/>
      <path d="M567.15,277.44l.16.56c.26.91.98,1.63,1.89,1.89l.56.16-.56.16c-.91.26-1.63.98-1.89,1.89l-.16.56-.16-.56c-.26-.91-.98-1.63-1.89-1.89l-.56-.16.56-.16c.91-.26,1.63-.98,1.89-1.89l.16-.56Z" style="fill: #fff; opacity: .5;"/>
      <path d="M201.83,305.09l.16.56c.26.91.98,1.63,1.89,1.89l.56.16-.56.16c-.91.26-1.63.98-1.89,1.89l-.16.56-.16-.56c-.26-.91-.98-1.63-1.89-1.89l-.56-.16.56-.16c.91-.26,1.63-.98,1.89-1.89l.16-.56Z" style="fill: #fff; opacity: .5;"/>
      <path d="M354.93,82.96l.16.56c.26.91.98,1.63,1.89,1.89l.56.16-.56.16c-.91.26-1.63.98-1.89,1.89l-.16.56-.16-.56c-.26-.91-.98-1.63-1.89-1.89l-.56-.16.56-.16c.91-.26,1.63-.98,1.89-1.89l.16-.56Z" style="fill: #fff; opacity: .5;"/>
      <path d="M418.91,69.68l.16.56c.26.91.98,1.63,1.89,1.89l.56.16-.56.16c-.91.26-1.63.98-1.89,1.89l-.16.56-.16-.56c-.26-.91-.98-1.63-1.89-1.89l-.56-.16.56-.16c.91-.26,1.63-.98,1.89-1.89l.16-.56Z" style="fill: #fff; opacity: .5;"/>
      <path d="M400.2,120.61l.16.56c.26.91.98,1.63,1.89,1.89l.56.16-.56.16c-.91.26-1.63.98-1.89,1.89l-.16.56-.16-.56c-.26-.91-.98-1.63-1.89-1.89l-.56-.16.56-.16c.91-.26,1.63-.98,1.89-1.89l.16-.56Z" style="fill: #fff; opacity: .5;"/>
      <path d="M538.85,59.99l.16.56c.26.91.98,1.63,1.89,1.89l.56.16-.56.16c-.91.26-1.63.98-1.89,1.89l-.16.56-.16-.56c-.26-.91-.98-1.63-1.89-1.89l-.56-.16.56-.16c.91-.26,1.63-.98,1.89-1.89l.16-.56Z" style="fill: #fff; opacity: .5;"/>
      <path d="M248.46,338.48l.16.56c.26.91.98,1.63,1.89,1.89l.56.16-.56.16c-.91.26-1.63.98-1.89,1.89l-.16.56-.16-.56c-.26-.91-.98-1.63-1.89-1.89l-.56-.16.56-.16c.91-.26,1.63-.98,1.89-1.89l.16-.56Z" style="fill: #fff; opacity: .5;"/>
      <path d="M227.51,191.8l.16.56c.26.91.98,1.63,1.89,1.89l.56.16-.56.16c-.91.26-1.63.98-1.89,1.89l-.16.56-.16-.56c-.26-.91-.98-1.63-1.89-1.89l-.56-.16.56-.16c.91-.26,1.63-.98,1.89-1.89l.16-.56Z" style="fill: #fff; opacity: .5;"/>
      <path d="M300.67,326.56l.16.56c.26.91.98,1.63,1.89,1.89l.56.16-.56.16c-.91.26-1.63.98-1.89,1.89l-.16.56-.16-.56c-.26-.91-.98-1.63-1.89-1.89l-.56-.16.56-.16c.91-.26,1.63-.98,1.89-1.89l.16-.56Z" style="fill: #fff; opacity: .5;"/>
      <path d="M200.29,400.09l.16.56c.26.91.98,1.63,1.89,1.89l.56.16-.56.16c-.91.26-1.63.98-1.89,1.89l-.16.56-.16-.56c-.26-.91-.98-1.63-1.89-1.89l-.56-.16.56-.16c.91-.26,1.63-.98,1.89-1.89l.16-.56Z" style="fill: #fff; opacity: .5;"/>
      <path d="M418.91,297.55l.16.56c.26.91.98,1.63,1.89,1.89l.56.16-.56.16c-.91.26-1.63.98-1.89,1.89l-.16.56-.16-.56c-.26-.91-.98-1.63-1.89-1.89l-.56-.16.56-.16c.91-.26,1.63-.98,1.89-1.89l.16-.56Z" style="fill: #fff; opacity: .5;"/>
      <path d="M395.95,359.01l.16.56c.26.91.98,1.63,1.89,1.89l.56.16-.56.16c-.91.26-1.63.98-1.89,1.89l-.16.56-.16-.56c-.26-.91-.98-1.63-1.89-1.89l-.56-.16.56-.16c.91-.26,1.63-.98,1.89-1.89l.16-.56Z" style="fill: #fff; opacity: .5;"/>
      <path d="M330.56,361.82l.16.56c.26.91.98,1.63,1.89,1.89l.56.16-.56.16c-.91.26-1.63.98-1.89,1.89l-.16.56-.16-.56c-.26-.91-.98-1.63-1.89-1.89l-.56-.16.56-.16c.91-.26,1.63-.98,1.89-1.89l.16-.56Z" style="fill: #fff; opacity: .5;"/>
      <path d="M317.55,292.33l.16.56c.26.91.98,1.63,1.89,1.89l.56.16-.56.16c-.91.26-1.63.98-1.89,1.89l-.16.56-.16-.56c-.26-.91-.98-1.63-1.89-1.89l-.56-.16.56-.16c.91-.26,1.63-.98,1.89-1.89l.16-.56Z" style="fill: #fff; opacity: .5;"/>
    </g>
    <g id="medium" style="opacity: .75;">
      <path d="M268.16,794.15l1-.29c1.63-.47,2.9-1.74,3.37-3.37l.29-1,.29,1c.47,1.63,1.74,2.9,3.37,3.37l1,.29-1,.29c-1.63.47-2.9,1.74-3.37,3.37l-.29,1-.29-1c-.47-1.63-1.74-2.9-3.37-3.37l-1-.29Z" style="fill: #fff;"/>
      <path d="M244.48,680.07l1-.29c1.63-.47,2.9-1.74,3.37-3.37l.29-1,.29,1c.47,1.63,1.74,2.9,3.37,3.37l1,.29-1,.29c-1.63.47-2.9,1.74-3.37,3.37l-.29,1-.29-1c-.47-1.63-1.74-2.9-3.37-3.37l-1-.29Z" style="fill: #fff;"/>
      <path d="M231.21,631.62l1-.29c1.63-.47,2.9-1.74,3.37-3.37l.29-1,.29,1c.47,1.63,1.74,2.9,3.37,3.37l1,.29-1,.29c-1.63.47-2.9,1.74-3.37,3.37l-.29,1-.29-1c-.47-1.63-1.74-2.9-3.37-3.37l-1-.29Z" style="fill: #fff;"/>
      <path d="M169.77,798.81l1-.29c1.63-.47,2.9-1.74,3.37-3.37l.29-1,.29,1c.47,1.63,1.74,2.9,3.37,3.37l1,.29-1,.29c-1.63.47-2.9,1.74-3.37,3.37l-.29,1-.29-1c-.47-1.63-1.74-2.9-3.37-3.37l-1-.29Z" style="fill: #fff;"/>
      <path d="M141.4,708.54h0c1.72-.49,3.06-1.83,3.55-3.55h0c.07-.25.42-.25.49,0h0c.49,1.72,1.83,3.06,3.55,3.55h0c.25.07.25.42,0,.49h0c-1.72.49-3.06,1.83-3.55,3.55h0c-.07.25-.42.25-.49,0h0c-.49-1.72-1.83-3.06-3.55-3.55h0c-.25-.07-.25-.42,0-.49Z" style="fill: #fff;"/>
      <path d="M71.05,688.46h0c1.72-.49,3.06-1.83,3.55-3.55h0c.07-.25.42-.25.49,0h0c.49,1.72,1.83,3.06,3.55,3.55h0c.25.07.25.42,0,.49h0c-1.72.49-3.06,1.83-3.55,3.55h0c-.07.25-.42.25-.49,0h0c-.49-1.72-1.83-3.06-3.55-3.55h0c-.25-.07-.25-.42,0-.49Z" style="fill: #fff;"/>
      <path d="M155.7,620.77h0c1.72-.49,3.06-1.83,3.55-3.55h0c.07-.25.42-.25.49,0h0c.49,1.72,1.83,3.06,3.55,3.55h0c.25.07.25.42,0,.49h0c-1.72.49-3.06,1.83-3.55,3.55l-.25.86-.25-.86c-.49-1.72-1.83-3.06-3.55-3.55h0c-.25-.07-.25-.42,0-.49Z" style="fill: #fff;"/>
      <path d="M28.05,784.6h0c1.72-.49,3.06-1.83,3.55-3.55h0c.07-.25.42-.25.49,0h0c.49,1.72,1.83,3.06,3.55,3.55h0c.25.07.25.42,0,.49h0c-1.72.49-3.06,1.83-3.55,3.55l-.25.86-.25-.86c-.49-1.72-1.83-3.06-3.55-3.55h0c-.25-.07-.25-.42,0-.49Z" style="fill: #fff;"/>
      <path d="M312.83,621.02l1-.29c1.63-.47,2.9-1.74,3.37-3.37l.29-1,.29,1c.47,1.63,1.74,2.9,3.37,3.37l1,.29-1,.29c-1.63.47-2.9,1.74-3.37,3.37l-.29,1-.29-1c-.47-1.63-1.74-2.9-3.37-3.37l-1-.29Z" style="fill: #fff;"/>
      <path d="M278.01,559.48l1-.29c1.63-.47,2.9-1.74,3.37-3.37l.29-1,.29,1c.47,1.63,1.74,2.9,3.37,3.37l1,.29-1,.29c-1.63.47-2.9,1.74-3.37,3.37l-.29,1-.29-1c-.47-1.63-1.74-2.9-3.37-3.37l-1-.29Z" style="fill: #fff;"/>
      <path d="M213.91,568.54h0c1.72-.49,3.06-1.83,3.55-3.55h0c.07-.25.42-.25.49,0h0c.49,1.72,1.83,3.06,3.55,3.55h0c.25.07.25.42,0,.49h0c-1.72.49-3.06,1.83-3.55,3.55h0c-.07.25-.42.25-.49,0h0c-.49-1.72-1.83-3.06-3.55-3.55h0c-.25-.07-.25-.42,0-.49Z" style="fill: #fff;"/>
      <path d="M376.6,564.13l1-.29c1.63-.47,2.9-1.74,3.37-3.37l.29-1,.29,1c.47,1.63,1.74,2.9,3.37,3.37l1,.29-1,.29c-1.63.47-2.9,1.74-3.37,3.37l-.29,1-.29-1c-.47-1.63-1.74-2.9-3.37-3.37l-1-.29Z" style="fill: #fff;"/>
      <path d="M335.29,713.44l1-.29c1.63-.47,2.9-1.74,3.37-3.37l.29-1,.29,1c.47,1.63,1.74,2.9,3.37,3.37l1,.29-1,.29c-1.63.47-2.9,1.74-3.37,3.37l-.29,1-.29-1c-.47-1.63-1.74-2.9-3.37-3.37l-1-.29Z" style="fill: #fff;"/>
      <path d="M381.25,761.38l1-.29c1.63-.47,2.9-1.74,3.37-3.37l.29-1,.29,1c.47,1.63,1.74,2.9,3.37,3.37l1,.29-1,.29c-1.63.47-2.9,1.74-3.37,3.37l-.29,1-.29-1c-.47-1.63-1.74-2.9-3.37-3.37l-1-.29Z" style="fill: #fff;"/>
      <path d="M428.54,680.07l1-.29c1.63-.47,2.9-1.74,3.37-3.37l.29-1,.29,1c.47,1.63,1.74,2.9,3.37,3.37l1,.29-1,.29c-1.63.47-2.9,1.74-3.37,3.37l-.29,1-.29-1c-.47-1.63-1.74-2.9-3.37-3.37l-1-.29Z" style="fill: #fff;"/>
      <path d="M225.16,737.89l1-.29c1.63-.47,2.9-1.74,3.37-3.37l.29-1,.29,1c.47,1.63,1.74,2.9,3.37,3.37l1,.29-1,.29c-1.63.47-2.9,1.74-3.37,3.37l-.29,1-.29-1c-.47-1.63-1.74-2.9-3.37-3.37l-1-.29Z" style="fill: #fff;"/>
      <path d="M56.68,607.67l1-.29c1.63-.47,2.9-1.74,3.37-3.37l.29-1,.29,1c.47,1.63,1.74,2.9,3.37,3.37l1,.29-1,.29c-1.63.47-2.9,1.74-3.37,3.37l-.29,1-.29-1c-.47-1.63-1.74-2.9-3.37-3.37l-1-.29Z" style="fill: #fff;"/>
      <path d="M32.99,493.58l1-.29c1.63-.47,2.9-1.74,3.37-3.37l.29-1,.29,1c.47,1.63,1.74,2.9,3.37,3.37l1,.29-1,.29c-1.63.47-2.9,1.74-3.37,3.37l-.29,1-.29-1c-.47-1.63-1.74-2.9-3.37-3.37l-1-.29Z" style="fill: #fff;"/>
      <path d="M413.74,30.19l.29,1c.47,1.63,1.74,2.9,3.37,3.37l1,.29-1,.29c-1.63.47-2.9,1.74-3.37,3.37l-.29,1-.29-1c-.47-1.63-1.74-2.9-3.37-3.37l-1-.29,1-.29c1.63-.47,2.9-1.74,3.37-3.37l.29-1Z" style="fill: #fff;"/>
      <path d="M558.2,0l.29,1c.47,1.63,1.74,2.9,3.37,3.37l1,.29-1,.29c-1.63.47-2.9,1.74-3.37,3.37l-.29,1-.29-1c-.47-1.63-1.74-2.9-3.37-3.37l-1-.29,1-.29c1.63-.47,2.9-1.74,3.37-3.37l.29-1Z" style="fill: #fff;"/>
      <path d="M101.34,434.53l1-.29c1.63-.47,2.9-1.74,3.37-3.37l.29-1,.29,1c.47,1.63,1.74,2.9,3.37,3.37l1,.29-1,.29c-1.63.47-2.9,1.74-3.37,3.37l-.29,1-.29-1c-.47-1.63-1.74-2.9-3.37-3.37l-1-.29Z" style="fill: #fff;"/>
      <path d="M1.56,382.3l1-.29c1.63-.47,2.9-1.74,3.37-3.37l.29-1,.29,1c.47,1.63,1.74,2.9,3.37,3.37l1,.29-1,.29c-1.63.47-2.9,1.74-3.37,3.37l-.29,1-.29-1c-.47-1.63-1.74-2.9-3.37-3.37l-1-.29Z" style="fill: #fff;"/>
      <path d="M165.11,377.65l1-.29c1.63-.47,2.9-1.74,3.37-3.37l.29-1,.29,1c.47,1.63,1.74,2.9,3.37,3.37l1,.29-1,.29c-1.63.47-2.9,1.74-3.37,3.37l-.29,1-.29-1c-.47-1.63-1.74-2.9-3.37-3.37l-1-.29Z" style="fill: #fff;"/>
      <path d="M123.81,526.96l.86-.25c1.72-.49,3.06-1.83,3.55-3.55h0c.07-.25.42-.25.49,0h0c.49,1.72,1.83,3.06,3.55,3.55h0c.25.07.25.42,0,.49h0c-1.72.49-3.06,1.83-3.55,3.55h0c-.07.25-.42.25-.49,0h0c-.49-1.72-1.83-3.06-3.55-3.55l-.86-.25Z" style="fill: #fff;"/>
      <path d="M170.63,574.65h0c1.72-.49,3.06-1.83,3.55-3.55h0c.07-.25.42-.25.49,0h0c.49,1.72,1.83,3.06,3.55,3.55h0c.25.07.25.42,0,.49h0c-1.72.49-3.06,1.83-3.55,3.55h0c-.07.25-.42.25-.49,0h0c-.49-1.72-1.83-3.06-3.55-3.55h0c-.25-.07-.25-.42,0-.49Z" style="fill: #fff;"/>
      <path d="M217.91,493.34h0c1.72-.49,3.06-1.83,3.55-3.55h0c.07-.25.42-.25.49,0h0c.49,1.72,1.83,3.06,3.55,3.55h0c.25.07.25.42,0,.49h0c-1.72.49-3.06,1.83-3.55,3.55h0c-.07.25-.42.25-.49,0h0c-.49-1.72-1.83-3.06-3.55-3.55h0c-.25-.07-.25-.42,0-.49Z" style="fill: #fff;"/>
      <path d="M71.05,358.99h0c1.72-.49,3.06-1.83,3.55-3.55h0c.07-.25.42-.25.49,0h0c.49,1.72,1.83,3.06,3.55,3.55h0c.25.07.25.42,0,.49h0c-1.72.49-3.06,1.83-3.55,3.55h0c-.07.25-.42.25-.49,0h0c-.49-1.72-1.83-3.06-3.55-3.55h0c-.25-.07-.25-.42,0-.49Z" style="fill: #fff;"/>
      <path d="M370.98,363.51h0c1.72-.49,3.06-1.83,3.55-3.55h0c.07-.25.42-.25.49,0h0c.49,1.72,1.83,3.06,3.55,3.55h0c.25.07.25.42,0,.49h0c-1.72.49-3.06,1.83-3.55,3.55l-.25.86-.25-.86c-.49-1.72-1.83-3.06-3.55-3.55h0c-.25-.07-.25-.42,0-.49Z" style="fill: #fff;"/>
      <path d="M429.19,311.28h0c1.72-.49,3.06-1.83,3.55-3.55h0c.07-.25.42-.25.49,0h0c.49,1.72,1.83,3.06,3.55,3.55h0c.25.07.25.42,0,.49h0c-1.72.49-3.06,1.83-3.55,3.55h0c-.07.25-.42.25-.49,0h0c-.49-1.72-1.83-3.06-3.55-3.55h0c-.25-.07-.25-.42,0-.49Z" style="fill: #fff;"/>
      <path d="M339.09,269.69l.86-.25c1.72-.49,3.06-1.83,3.55-3.55h0c.07-.25.42-.25.49,0h0c.49,1.72,1.83,3.06,3.55,3.55h0c.25.07.25.42,0,.49h0c-1.72.49-3.06,1.83-3.55,3.55h0c-.07.25-.42.25-.49,0h0c-.49-1.72-1.83-3.06-3.55-3.55l-.86-.25Z" style="fill: #fff;"/>
      <path d="M306.38,327.21l.86-.25c1.72-.49,3.06-1.83,3.55-3.55h0c.07-.25.42-.25.49,0h0c.49,1.72,1.83,3.06,3.55,3.55h0c.25.07.25.42,0,.49h0c-1.72.49-3.06,1.83-3.55,3.55h0c-.07.25-.42.25-.49,0h0c-.49-1.72-1.83-3.06-3.55-3.55l-.86-.25Z" style="fill: #fff;"/>
      <path d="M385.91,317.38h0c1.72-.49,3.06-1.83,3.55-3.55h0c.07-.25.42-.25.49,0h0c.49,1.72,1.83,3.06,3.55,3.55h0c.25.07.25.42,0,.49h0c-1.72.49-3.06,1.83-3.55,3.55h0c-.07.25-.42.25-.49,0h0c-.49-1.72-1.83-3.06-3.55-3.55h0c-.25-.07-.25-.42,0-.49Z" style="fill: #fff;"/>
      <path d="M433.19,236.07h0c1.72-.49,3.06-1.83,3.55-3.55h0c.07-.25.42-.25.49,0h0c.49,1.72,1.83,3.06,3.55,3.55h0c.25.07.25.42,0,.49h0c-1.72.49-3.06,1.83-3.55,3.55h0c-.07.25-.42.25-.49,0h0c-.49-1.72-1.83-3.06-3.55-3.55h0c-.25-.07-.25-.42,0-.49Z" style="fill: #fff;"/>
      <path d="M13.68,551.41l1-.29c1.63-.47,2.9-1.74,3.37-3.37l.29-1,.29,1c.47,1.63,1.74,2.9,3.37,3.37l1,.29-1,.29c-1.63.47-2.9,1.74-3.37,3.37l-.29,1-.29-1c-.47-1.63-1.74-2.9-3.37-3.37l-1-.29Z" style="fill: #fff;"/>
      <path d="M504.22,707.67l1-.29c1.63-.47,2.9-1.74,3.37-3.37l.29-1,.29,1c.47,1.63,1.74,2.9,3.37,3.37l1,.29-1,.29c-1.63.47-2.9,1.74-3.37,3.37l-.29,1-.29-1c-.47-1.63-1.74-2.9-3.37-3.37l-1-.29Z" style="fill: #fff;"/>
      <path d="M480.54,593.59l1-.29c1.63-.47,2.9-1.74,3.37-3.37l.29-1,.29,1c.47,1.63,1.74,2.9,3.37,3.37l1,.29-1,.29c-1.63.47-2.9,1.74-3.37,3.37l-.29,1-.29-1c-.47-1.63-1.74-2.9-3.37-3.37l-1-.29Z" style="fill: #fff;"/>
      <path d="M405.19,728.37l1-.29c1.63-.47,2.9-1.74,3.37-3.37l.29-1,.29,1c.47,1.63,1.74,2.9,3.37,3.37l1,.29-1,.29c-1.63.47-2.9,1.74-3.37,3.37l-.29,1-.29-1c-.47-1.63-1.74-2.9-3.37-3.37l-1-.29Z" style="fill: #fff;"/>
      <path d="M376.6,622.3l1-.29c1.63-.47,2.9-1.74,3.37-3.37l.29-1,.29,1c.47,1.63,1.74,2.9,3.37,3.37l1,.29-1,.29c-1.63.47-2.9,1.74-3.37,3.37l-.29,1-.29-1c-.47-1.63-1.74-2.9-3.37-3.37l-1-.29Z" style="fill: #fff;"/>
      <path d="M390.89,534.53l1-.29c1.63-.47,2.9-1.74,3.37-3.37l.29-1,.29,1c.47,1.63,1.74,2.9,3.37,3.37l1,.29-1,.29c-1.63.47-2.9,1.74-3.37,3.37l-.29,1-.29-1c-.47-1.63-1.74-2.9-3.37-3.37l-1-.29Z" style="fill: #fff;"/>
      <path d="M548.88,534.53l1-.29c1.63-.47,2.9-1.74,3.37-3.37l.29-1,.29,1c.47,1.63,1.74,2.9,3.37,3.37l1,.29-1,.29c-1.63.47-2.9,1.74-3.37,3.37l-.29,1-.29-1c-.47-1.63-1.74-2.9-3.37-3.37l-1-.29Z" style="fill: #fff;"/>
      <path d="M449.11,482.31l1-.29c1.63-.47,2.9-1.74,3.37-3.37l.29-1,.29,1c.47,1.63,1.74,2.9,3.37,3.37l1,.29-1,.29c-1.63.47-2.9,1.74-3.37,3.37l-.29,1-.29-1c-.47-1.63-1.74-2.9-3.37-3.37l-1-.29Z" style="fill: #fff;"/>
      <path d="M571.35,626.96l1-.29c1.63-.47,2.9-1.74,3.37-3.37l.29-1,.29,1c.47,1.63,1.74,2.9,3.37,3.37l1,.29-1,.29c-1.63.47-2.9,1.74-3.37,3.37l-.29,1-.29-1c-.47-1.63-1.74-2.9-3.37-3.37l-1-.29Z" style="fill: #fff;"/>
      <path d="M461.22,651.41l1-.29c1.63-.47,2.9-1.74,3.37-3.37l.29-1,.29,1c.47,1.63,1.74,2.9,3.37,3.37l1,.29-1,.29c-1.63.47-2.9,1.74-3.37,3.37l-.29,1-.29-1c-.47-1.63-1.74-2.9-3.37-3.37l-1-.29Z" style="fill: #fff;"/>
      <path d="M278.01,486.67l1-.29c1.63-.47,2.9-1.74,3.37-3.37l.29-1,.29,1c.47,1.63,1.74,2.9,3.37,3.37l1,.29-1,.29c-1.63.47-2.9,1.74-3.37,3.37l-.29,1-.29-1c-.47-1.63-1.74-2.9-3.37-3.37l-1-.29Z" style="fill: #fff;"/>
      <path d="M353.69,514.27l1-.29c1.63-.47,2.9-1.74,3.37-3.37l.29-1,.29,1c.47,1.63,1.74,2.9,3.37,3.37l1,.29-1,.29c-1.63.47-2.9,1.74-3.37,3.37l-.29,1-.29-1c-.47-1.63-1.74-2.9-3.37-3.37l-1-.29Z" style="fill: #fff;"/>
      <path d="M310.7,458.01l1-.29c1.63-.47,2.9-1.74,3.37-3.37l.29-1,.29,1c.47,1.63,1.74,2.9,3.37,3.37l1,.29-1,.29c-1.63.47-2.9,1.74-3.37,3.37l-.29,1-.29-1c-.47-1.63-1.74-2.9-3.37-3.37l-1-.29Z" style="fill: #fff;"/>
      <path d="M281.67,378.82l1-.29c1.63-.47,2.9-1.74,3.37-3.37l.29-1,.29,1c.47,1.63,1.74,2.9,3.37,3.37l1,.29-1,.29c-1.63.47-2.9,1.74-3.37,3.37l-.29,1-.29-1c-.47-1.63-1.74-2.9-3.37-3.37l-1-.29Z" style="fill: #fff;"/>
      <path d="M257.99,264.73l1-.29c1.63-.47,2.9-1.74,3.37-3.37l.29-1,.29,1c.47,1.63,1.74,2.9,3.37,3.37l1,.29-1,.29c-1.63.47-2.9,1.74-3.37,3.37l-.29,1-.29-1c-.47-1.63-1.74-2.9-3.37-3.37l-1-.29Z" style="fill: #fff;"/>
      <path d="M182.64,399.52l1-.29c1.63-.47,2.9-1.74,3.37-3.37l.29-1,.29,1c.47,1.63,1.74,2.9,3.37,3.37l1,.29-1,.29c-1.63.47-2.9,1.74-3.37,3.37l-.29,1-.29-1c-.47-1.63-1.74-2.9-3.37-3.37l-1-.29Z" style="fill: #fff;"/>
      <path d="M154.05,293.45l1-.29c1.63-.47,2.9-1.74,3.37-3.37l.29-1,.29,1c.47,1.63,1.74,2.9,3.37,3.37l1,.29-1,.29c-1.63.47-2.9,1.74-3.37,3.37l-.29,1-.29-1c-.47-1.63-1.74-2.9-3.37-3.37l-1-.29Z" style="fill: #fff;"/>
      <path d="M70.18,288.8l1-.29c1.63-.47,2.9-1.74,3.37-3.37l.29-1,.29,1c.47,1.63,1.74,2.9,3.37,3.37l1,.29-1,.29c-1.63.47-2.9,1.74-3.37,3.37l-.29,1-.29-1c-.47-1.63-1.74-2.9-3.37-3.37l-1-.29Z" style="fill: #fff;"/>
      <path d="M168.35,205.68l1-.29c1.63-.47,2.9-1.74,3.37-3.37l.29-1,.29,1c.47,1.63,1.74,2.9,3.37,3.37l1,.29-1,.29c-1.63.47-2.9,1.74-3.37,3.37l-.29,1-.29-1c-.47-1.63-1.74-2.9-3.37-3.37l-1-.29Z" style="fill: #fff;"/>
      <path d="M326.34,205.68l1-.29c1.63-.47,2.9-1.74,3.37-3.37l.29-1,.29,1c.47,1.63,1.74,2.9,3.37,3.37l1,.29-1,.29c-1.63.47-2.9,1.74-3.37,3.37l-.29,1-.29-1c-.47-1.63-1.74-2.9-3.37-3.37l-1-.29Z" style="fill: #fff;"/>
      <path d="M226.56,153.45l1-.29c1.63-.47,2.9-1.74,3.37-3.37l.29-1,.29,1c.47,1.63,1.74,2.9,3.37,3.37l1,.29-1,.29c-1.63.47-2.9,1.74-3.37,3.37l-.29,1-.29-1c-.47-1.63-1.74-2.9-3.37-3.37l-1-.29Z" style="fill: #fff;"/>
      <path d="M317.48,82.9l1-.29c1.63-.47,2.9-1.74,3.37-3.37l.29-1,.29,1c.47,1.63,1.74,2.9,3.37,3.37l1,.29-1,.29c-1.63.47-2.9,1.74-3.37,3.37l-.29,1-.29-1c-.47-1.63-1.74-2.9-3.37-3.37l-1-.29Z" style="fill: #fff;"/>
      <path d="M257.99,19.19l1-.29c1.63-.47,2.9-1.74,3.37-3.37l.29-1,.29,1c.47,1.63,1.74,2.9,3.37,3.37l1,.29-1,.29c-1.63.47-2.9,1.74-3.37,3.37l-.29,1-.29-1c-.47-1.63-1.74-2.9-3.37-3.37l-1-.29Z" style="fill: #fff;"/>
      <path d="M390.11,148.8l1-.29c1.63-.47,2.9-1.74,3.37-3.37l.29-1,.29,1c.47,1.63,1.74,2.9,3.37,3.37l1,.29-1,.29c-1.63.47-2.9,1.74-3.37,3.37l-.29,1-.29-1c-.47-1.63-1.74-2.9-3.37-3.37l-1-.29Z" style="fill: #fff;"/>
      <path d="M356.86,387.96l1-.29c1.63-.47,2.9-1.74,3.37-3.37l.29-1,.29,1c.47,1.63,1.74,2.9,3.37,3.37l1,.29-1,.29c-1.63.47-2.9,1.74-3.37,3.37l-.29,1-.29-1c-.47-1.63-1.74-2.9-3.37-3.37l-1-.29Z" style="fill: #fff;"/>
      <path d="M402.82,435.9l1-.29c1.63-.47,2.9-1.74,3.37-3.37l.29-1,.29,1c.47,1.63,1.74,2.9,3.37,3.37l1,.29-1,.29c-1.63.47-2.9,1.74-3.37,3.37l-.29,1-.29-1c-.47-1.63-1.74-2.9-3.37-3.37l-1-.29Z" style="fill: #fff;"/>
      <path d="M450.11,354.58l1-.29c1.63-.47,2.9-1.74,3.37-3.37l.29-1,.29,1c.47,1.63,1.74,2.9,3.37,3.37l1,.29-1,.29c-1.63.47-2.9,1.74-3.37,3.37l-.29,1-.29-1c-.47-1.63-1.74-2.9-3.37-3.37l-1-.29Z" style="fill: #fff;"/>
      <path d="M273.36,131.41l1-.29c1.63-.47,2.9-1.74,3.37-3.37l.29-1,.29,1c.47,1.63,1.74,2.9,3.37,3.37l1,.29-1,.29c-1.63.47-2.9,1.74-3.37,3.37l-.29,1-.29-1c-.47-1.63-1.74-2.9-3.37-3.37l-1-.29Z" style="fill: #fff;"/>
      <path d="M238.67,322.56l1-.29c1.63-.47,2.9-1.74,3.37-3.37l.29-1,.29,1c.47,1.63,1.74,2.9,3.37,3.37l1,.29-1,.29c-1.63.47-2.9,1.74-3.37,3.37l-.29,1-.29-1c-.47-1.63-1.74-2.9-3.37-3.37l-1-.29Z" style="fill: #fff;"/>
      <path d="M70.18,192.33l1-.29c1.63-.47,2.9-1.74,3.37-3.37l.29-1,.29,1c.47,1.63,1.74,2.9,3.37,3.37l1,.29-1,.29c-1.63.47-2.9,1.74-3.37,3.37l-.29,1-.29-1c-.47-1.63-1.74-2.9-3.37-3.37l-1-.29Z" style="fill: #fff;"/>
      <path d="M46.5,78.25l1-.29c1.63-.47,2.9-1.74,3.37-3.37l.29-1,.29,1c.47,1.63,1.74,2.9,3.37,3.37l1,.29-1,.29c-1.63.47-2.9,1.74-3.37,3.37l-.29,1-.29-1c-.47-1.63-1.74-2.9-3.37-3.37l-1-.29Z" style="fill: #fff;"/>
      <path d="M114.85,19.19l1-.29c1.63-.47,2.9-1.74,3.37-3.37l.29-1,.29,1c.47,1.63,1.74,2.9,3.37,3.37l1,.29-1,.29c-1.63.47-2.9,1.74-3.37,3.37l-.29,1-.29-1c-.47-1.63-1.74-2.9-3.37-3.37l-1-.29Z" style="fill: #fff;"/>
      <path d="M137.32,111.62l1-.29c1.63-.47,2.9-1.74,3.37-3.37l.29-1,.29,1c.47,1.63,1.74,2.9,3.37,3.37l1,.29-1,.29c-1.63.47-2.9,1.74-3.37,3.37l-.29,1-.29-1c-.47-1.63-1.74-2.9-3.37-3.37l-1-.29Z" style="fill: #fff;"/>
      <path d="M183.28,159.56l1-.29c1.63-.47,2.9-1.74,3.37-3.37l.29-1,.29,1c.47,1.63,1.74,2.9,3.37,3.37l1,.29-1,.29c-1.63.47-2.9,1.74-3.37,3.37l-.29,1-.29-1c-.47-1.63-1.74-2.9-3.37-3.37l-1-.29Z" style="fill: #fff;"/>
      <path d="M230.56,78.25l1-.29c1.63-.47,2.9-1.74,3.37-3.37l.29-1,.29,1c.47,1.63,1.74,2.9,3.37,3.37l1,.29-1,.29c-1.63.47-2.9,1.74-3.37,3.37l-.29,1-.29-1c-.47-1.63-1.74-2.9-3.37-3.37l-1-.29Z" style="fill: #fff;"/>
      <path d="M27.19,136.07l1-.29c1.63-.47,2.9-1.74,3.37-3.37l.29-1,.29,1c.47,1.63,1.74,2.9,3.37,3.37l1,.29-1,.29c-1.63.47-2.9,1.74-3.37,3.37l-.29,1-.29-1c-.47-1.63-1.74-2.9-3.37-3.37l-1-.29Z" style="fill: #fff;"/>
      <path d="M525.79,382.18l1-.29c1.63-.47,2.9-1.74,3.37-3.37l.29-1,.29,1c.47,1.63,1.74,2.9,3.37,3.37l1,.29-1,.29c-1.63.47-2.9,1.74-3.37,3.37l-.29,1-.29-1c-.47-1.63-1.74-2.9-3.37-3.37l-1-.29Z" style="fill: #fff;"/>
      <path d="M169.77,458.01l1-.29c1.63-.47,2.9-1.74,3.37-3.37l.29-1,.29,1c.47,1.63,1.74,2.9,3.37,3.37l1,.29-1,.29c-1.63.47-2.9,1.74-3.37,3.37l-.29,1-.29-1c-.47-1.63-1.74-2.9-3.37-3.37l-1-.29Z" style="fill: #fff;"/>
      <path d="M494.05,178.25l1-.29c1.63-.47,2.9-1.74,3.37-3.37l.29-1,.29,1c.47,1.63,1.74,2.9,3.37,3.37l1,.29-1,.29c-1.63.47-2.9,1.74-3.37,3.37l-.29,1-.29-1c-.47-1.63-1.74-2.9-3.37-3.37l-1-.29Z" style="fill: #fff;"/>
      <path d="M426.76,402.89l1-.29c1.63-.47,2.9-1.74,3.37-3.37l.29-1,.29,1c.47,1.63,1.74,2.9,3.37,3.37l1,.29-1,.29c-1.63.47-2.9,1.74-3.37,3.37l-.29,1-.29-1c-.47-1.63-1.74-2.9-3.37-3.37l-1-.29Z" style="fill: #fff;"/>
      <path d="M390.11,206.97l1-.29c1.63-.47,2.9-1.74,3.37-3.37l.29-1,.29,1c.47,1.63,1.74,2.9,3.37,3.37l1,.29-1,.29c-1.63.47-2.9,1.74-3.37,3.37l-.29,1-.29-1c-.47-1.63-1.74-2.9-3.37-3.37l-1-.29Z" style="fill: #fff;"/>
      <path d="M404.4,119.2l1-.29c1.63-.47,2.9-1.74,3.37-3.37l.29-1,.29,1c.47,1.63,1.74,2.9,3.37,3.37l1,.29-1,.29c-1.63.47-2.9,1.74-3.37,3.37l-.29,1-.29-1c-.47-1.63-1.74-2.9-3.37-3.37l-1-.29Z" style="fill: #fff;"/>
      <path d="M562.39,119.2l1-.29c1.63-.47,2.9-1.74,3.37-3.37l.29-1,.29,1c.47,1.63,1.74,2.9,3.37,3.37l1,.29-1,.29c-1.63.47-2.9,1.74-3.37,3.37l-.29,1-.29-1c-.47-1.63-1.74-2.9-3.37-3.37l-1-.29Z" style="fill: #fff;"/>
      <path d="M462.62,66.97l1-.29c1.63-.47,2.9-1.74,3.37-3.37l.29-1,.29,1c.47,1.63,1.74,2.9,3.37,3.37l1,.29-1,.29c-1.63.47-2.9,1.74-3.37,3.37l-.29,1-.29-1c-.47-1.63-1.74-2.9-3.37-3.37l-1-.29Z" style="fill: #fff;"/>
      <path d="M567.42,235.79l1-.29c1.63-.47,2.9-1.74,3.37-3.37l.29-1,.29,1c.47,1.63,1.74,2.9,3.37,3.37l1,.29-1,.29c-1.63.47-2.9,1.74-3.37,3.37l-.29,1-.29-1c-.47-1.63-1.74-2.9-3.37-3.37l-1-.29Z" style="fill: #fff;"/>
      <path d="M474.73,236.07l1-.29c1.63-.47,2.9-1.74,3.37-3.37l.29-1,.29,1c.47,1.63,1.74,2.9,3.37,3.37l1,.29-1,.29c-1.63.47-2.9,1.74-3.37,3.37l-.29,1-.29-1c-.47-1.63-1.74-2.9-3.37-3.37l-1-.29Z" style="fill: #fff;"/>
      <path d="M149.03,334.96l1-.29c1.63-.47,2.9-1.74,3.37-3.37l.29-1,.29,1c.47,1.63,1.74,2.9,3.37,3.37l1,.29-1,.29c-1.63.47-2.9,1.74-3.37,3.37l-.29,1-.29-1c-.47-1.63-1.74-2.9-3.37-3.37l-1-.29Z" style="fill: #fff;"/>
    </g>
    <g id="big">
      <path d="M285.21,733.17l1.63-.47c2.67-.76,4.75-2.85,5.52-5.52l.47-1.63.47,1.63c.76,2.67,2.85,4.75,5.52,5.52l1.63.47-1.63.47c-2.67.76-4.75,2.85-5.52,5.52l-.47,1.63-.47-1.63c-.76-2.67-2.85-4.75-5.52-5.52l-1.63-.47Z" style="fill: #fff;"/>
      <path d="M263.5,653.88l1.63-.47c2.67-.76,4.75-2.85,5.52-5.52l.47-1.63.47,1.63c.76,2.67,2.85,4.75,5.52,5.52l1.63.47-1.63.47c-2.67.76-4.75,2.85-5.52,5.52l-.47,1.63-.47-1.63c-.76-2.67-2.85-4.75-5.52-5.52l-1.63-.47Z" style="fill: #fff;"/>
      <path d="M116.53,779.76h0c2.81-.8,5-3,5.8-5.8h0c.12-.41.69-.41.81,0h0c.8,2.81,3,5,5.8,5.8h0c.41.12.41.69,0,.81h0c-2.81.8-5,3-5.8,5.8h0c-.12.41-.69.41-.81,0h0c-.8-2.81-3-5-5.8-5.8h0c-.41-.12-.41-.69,0-.81Z" style="fill: #fff;"/>
      <path d="M1.41,746.9h0c2.81-.8,5-3,5.8-5.8h0c.12-.41.69-.41.81,0h0c.8,2.81,3,5,5.8,5.8h0c.41.12.41.69,0,.81h0c-2.81.8-5,3-5.8,5.8h0c-.12.41-.69.41-.81,0h0c-.8-2.81-3-5-5.8-5.8h0c-.41-.12-.41-.69,0-.81Z" style="fill: #fff;"/>
      <path d="M139.93,636.13h0c2.81-.8,5-3,5.8-5.8h0c.12-.41.69-.41.81,0h0c.8,2.81,3,5,5.8,5.8h0c.41.12.41.69,0,.81h0c-2.81.8-5,3-5.8,5.8l-.4,1.41-.4-1.41c-.8-2.81-3-5-5.8-5.8h0c-.41-.12-.41-.69,0-.81Z" style="fill: #fff;"/>
      <path d="M397.05,636.54l1.63-.47c2.67-.76,4.75-2.85,5.52-5.52l.47-1.63.47,1.63c.76,2.67,2.85,4.75,5.52,5.52l1.63.47-1.63.47c-2.67.76-4.75,2.85-5.52,5.52l-.47,1.63-.47-1.63c-.76-2.67-2.85-4.75-5.52-5.52l-1.63-.47Z" style="fill: #fff;"/>
      <path d="M340.08,535.84l1.63-.47c2.67-.76,4.75-2.85,5.52-5.52l.47-1.63.47,1.63c.76,2.67,2.85,4.75,5.52,5.52l1.63.47-1.63.47c-2.67.76-4.75,2.85-5.52,5.52l-.47,1.63-.47-1.63c-.76-2.67-2.85-4.75-5.52-5.52l-1.63-.47Z" style="fill: #fff;"/>
      <path d="M235.19,550.67h0c2.81-.8,5-3,5.8-5.8h0c.12-.41.69-.41.81,0h0c.8,2.81,3,5,5.8,5.8h0c.41.12.41.69,0,.81h0c-2.81.8-5,3-5.8,5.8h0c-.12.41-.69.41-.81,0h0c-.8-2.81-3-5-5.8-5.8h0c-.41-.12-.41-.69,0-.81Z" style="fill: #fff;"/>
      <path d="M501.4,543.45l1.63-.47c2.67-.76,4.75-2.85,5.52-5.52l.47-1.63.47,1.63c.76,2.67,2.85,4.75,5.52,5.52l1.63.47-1.63.47c-2.67.76-4.75,2.85-5.52,5.52l-.47,1.63-.47-1.63c-.76-2.67-2.85-4.75-5.52-5.52l-1.63-.47Z" style="fill: #fff;"/>
      <path d="M433.81,787.78l1.63-.47c2.67-.76,4.75-2.85,5.52-5.52l.47-1.63.47,1.63c.76,2.67,2.85,4.75,5.52,5.52l1.63.47-1.63.47c-2.67.76-4.75,2.85-5.52,5.52l-.47,1.63-.47-1.63c-.76-2.67-2.85-4.75-5.52-5.52l-1.63-.47Z" style="fill: #fff;"/>
      <path d="M550.99,734.19l1.63-.47c2.67-.76,4.75-2.85,5.52-5.52l.47-1.63.47,1.63c.76,2.67,2.85,4.75,5.52,5.52l1.63.47-1.63.47c-2.67.76-4.75,2.85-5.52,5.52l-.47,1.63-.47-1.63c-.76-2.67-2.85-4.75-5.52-5.52l-1.63-.47Z" style="fill: #fff;"/>
      <path d="M50.98,331.38l1.63-.47c2.67-.76,4.75-2.85,5.52-5.52l.47-1.63.47,1.63c.76,2.67,2.85,4.75,5.52,5.52l1.63.47-1.63.47c-2.67.76-4.75,2.85-5.52,5.52l-.47,1.63-.47-1.63c-.76-2.67-2.85-4.75-5.52-5.52l-1.63-.47Z" style="fill: #fff;"/>
      <path d="M155.33,238.3l1.63-.47c2.67-.76,4.75-2.85,5.52-5.52l.47-1.63.47,1.63c.76,2.67,2.85,4.75,5.52,5.52l1.63.47-1.63.47c-2.67.76-4.75,2.85-5.52,5.52l-.47,1.63-.47-1.63c-.76-2.67-2.85-4.75-5.52-5.52l-1.63-.47Z" style="fill: #fff;"/>
      <path d="M87.75,482.62l1.41-.4c2.81-.8,5-3,5.8-5.8h0c.12-.41.69-.41.81,0h0c.8,2.81,3,5,5.8,5.8h0c.41.12.41.69,0,.81h0c-2.81.8-5,3-5.8,5.8h0c-.12.41-.69.41-.81,0h0c-.8-2.81-3-5-5.8-5.8l-1.41-.4Z" style="fill: #fff;"/>
      <path d="M164.36,560.66h0c2.81-.8,5-3,5.8-5.8h0c.12-.41.69-.41.81,0h0c.8,2.81,3,5,5.8,5.8h0c.41.12.41.69,0,.81h0c-2.81.8-5,3-5.8,5.8h0c-.12.41-.69.41-.81,0h0c-.8-2.81-3-5-5.8-5.8h0c-.41-.12-.41-.69,0-.81Z" style="fill: #fff;"/>
      <path d="M241.74,427.6h0c2.81-.8,5-3,5.8-5.8h0c.12-.41.69-.41.81,0h0c.8,2.81,3,5,5.8,5.8h0c.41.12.41.69,0,.81h0c-2.81.8-5,3-5.8,5.8h0c-.12.41-.69.41-.81,0h0c-.8-2.81-3-5-5.8-5.8h0c-.41-.12-.41-.69,0-.81Z" style="fill: #fff;"/>
      <path d="M1.41,207.77h0c2.81-.8,5-3,5.8-5.8h0c.12-.41.69-.41.81,0h0c.8,2.81,3,5,5.8,5.8h0c.41.12.41.69,0,.81h0c-2.81.8-5,3-5.8,5.8h0c-.12.41-.69.41-.81,0h0c-.8-2.81-3-5-5.8-5.8h0c-.41-.12-.41-.69,0-.81Z" style="fill: #fff;"/>
      <path d="M492.2,215.16h0c2.81-.8,5-3,5.8-5.8h0c.12-.41.69-.41.81,0h0c.8,2.81,3,5,5.8,5.8h0c.41.12.41.69,0,.81h0c-2.81.8-5,3-5.8,5.8l-.4,1.41-.4-1.41c-.8-2.81-3-5-5.8-5.8h0c-.41-.12-.41-.69,0-.81Z" style="fill: #fff;"/>
      <path d="M560.74,170.05h0c2.81-.8,5-3,5.8-5.8h0c.12-.41.69-.41.81,0h0c.8,2.81,3,5,5.8,5.8h0c.41.12.41.69,0,.81h0c-2.81.8-5,3-5.8,5.8h0c-.12.41-.69.41-.81,0h0c-.8-2.81-3-5-5.8-5.8h0c-.41-.12-.41-.69,0-.81Z" style="fill: #fff;"/>
      <path d="M440.02,61.64l1.41-.4c2.81-.8,5-3,5.8-5.8h0c.12-.41.69-.41.81,0h0c.8,2.81,3,5,5.8,5.8h0c.41.12.41.69,0,.81h0c-2.81.8-5,3-5.8,5.8h0c-.12.41-.69.41-.81,0h0c-.8-2.81-3-5-5.8-5.8l-1.41-.4Z" style="fill: #fff;"/>
      <path d="M386.49,155.77l1.41-.4c2.81-.8,5-3,5.8-5.8h0c.12-.41.69-.41.81,0h0c.8,2.81,3,5,5.8,5.8h0c.41.12.41.69,0,.81h0c-2.81.8-5,3-5.8,5.8h0c-.12.41-.69.41-.81,0h0c-.8-2.81-3-5-5.8-5.8l-1.41-.4Z" style="fill: #fff;"/>
      <path d="M516.63,139.68h0c2.81-.8,5-3,5.8-5.8h0c.12-.41.69-.41.81,0h0c.8,2.81,3,5,5.8,5.8h0c.41.12.41.69,0,.81h0c-2.81.8-5,3-5.8,5.8h0c-.12.41-.69.41-.81,0h0c-.8-2.81-3-5-5.8-5.8h0c-.41-.12-.41-.69,0-.81Z" style="fill: #fff;"/>
      <path d="M548.19,812.21l1.63-.47c2.67-.76,4.75-2.85,5.52-5.52l.47-1.63.47,1.63c.76,2.67,2.85,4.75,5.52,5.52l1.63.47-1.63.47c-2.67.76-4.75,2.85-5.52,5.52l-.47,1.63-.47-1.63c-.76-2.67-2.85-4.75-5.52-5.52l-1.63-.47Z" style="fill: #fff;"/>
      <path d="M501.4,638.64l1.63-.47c2.67-.76,4.75-2.85,5.52-5.52l.47-1.63.47,1.63c.76,2.67,2.85,4.75,5.52,5.52l1.63.47-1.63.47c-2.67.76-4.75,2.85-5.52,5.52l-.47,1.63-.47-1.63c-.76-2.67-2.85-4.75-5.52-5.52l-1.63-.47Z" style="fill: #fff;"/>
      <path d="M524.79,495.02l1.63-.47c2.67-.76,4.75-2.85,5.52-5.52l.47-1.63.47,1.63c.76,2.67,2.85,4.75,5.52,5.52l1.63.47-1.63.47c-2.67.76-4.75,2.85-5.52,5.52l-.47,1.63-.47-1.63c-.76-2.67-2.85-4.75-5.52-5.52l-1.63-.47Z" style="fill: #fff;"/>
      <path d="M340.08,416.7l1.63-.47c2.67-.76,4.75-2.85,5.52-5.52l.47-1.63.47,1.63c.76,2.67,2.85,4.75,5.52,5.52l1.63.47-1.63.47c-2.67.76-4.75,2.85-5.52,5.52l-.47,1.63-.47-1.63c-.76-2.67-2.85-4.75-5.52-5.52l-1.63-.47Z" style="fill: #fff;"/>
      <path d="M463.92,461.87l1.63-.47c2.67-.76,4.75-2.85,5.52-5.52l.47-1.63.47,1.63c.76,2.67,2.85,4.75,5.52,5.52l1.63.47-1.63.47c-2.67.76-4.75,2.85-5.52,5.52l-.47,1.63-.47-1.63c-.76-2.67-2.85-4.75-5.52-5.52l-1.63-.47Z" style="fill: #fff;"/>
      <path d="M393.56,369.8l1.63-.47c2.67-.76,4.75-2.85,5.52-5.52l.47-1.63.47,1.63c.76,2.67,2.85,4.75,5.52,5.52l1.63.47-1.63.47c-2.67.76-4.75,2.85-5.52,5.52l-.47,1.63-.47-1.63c-.76-2.67-2.85-4.75-5.52-5.52l-1.63-.47Z" style="fill: #fff;"/>
      <path d="M346.06,240.21l1.63-.47c2.67-.76,4.75-2.85,5.52-5.52l.47-1.63.47,1.63c.76,2.67,2.85,4.75,5.52,5.52l1.63.47-1.63.47c-2.67.76-4.75,2.85-5.52,5.52l-.47,1.63-.47-1.63c-.76-2.67-2.85-4.75-5.52-5.52l-1.63-.47Z" style="fill: #fff;"/>
      <path d="M307.31,53.53l1.63-.47c2.67-.76,4.75-2.85,5.52-5.52l.47-1.63.47,1.63c.76,2.67,2.85,4.75,5.52,5.52l1.63.47-1.63.47c-2.67.76-4.75,2.85-5.52,5.52l-.47,1.63-.47-1.63c-.76-2.67-2.85-4.75-5.52-5.52l-1.63-.47Z" style="fill: #fff;"/>
      <path d="M184.02,274.09l1.63-.47c2.67-.76,4.75-2.85,5.52-5.52l.47-1.63.47,1.63c.76,2.67,2.85,4.75,5.52,5.52l1.63.47-1.63.47c-2.67.76-4.75,2.85-5.52,5.52l-.47,1.63-.47-1.63c-.76-2.67-2.85-4.75-5.52-5.52l-1.63-.47Z" style="fill: #fff;"/>
      <path d="M137.23,100.52l1.63-.47c2.67-.76,4.75-2.85,5.52-5.52l.47-1.63.47,1.63c.76,2.67,2.85,4.75,5.52,5.52l1.63.47-1.63.47c-2.67.76-4.75,2.85-5.52,5.52l-.47,1.63-.47-1.63c-.76-2.67-2.85-4.75-5.52-5.52l-1.63-.47Z" style="fill: #fff;"/>
      <path d="M0,92.9l1.63-.47c2.67-.76,4.75-2.85,5.52-5.52l.47-1.63.47,1.63c.76,2.67,2.85,4.75,5.52,5.52l1.63.47-1.63.47c-2.67.76-4.75,2.85-5.52,5.52l-.47,1.63-.47-1.63c-.76-2.67-2.85-4.75-5.52-5.52l-1.63-.47Z" style="fill: #fff;"/>
      <path d="M469.11,255.17l1.63-.47c2.67-.76,4.75-2.85,5.52-5.52l.47-1.63.47,1.63c.76,2.67,2.85,4.75,5.52,5.52l1.63.47-1.63.47c-2.67.76-4.75,2.85-5.52,5.52l-.47,1.63-.47-1.63c-.76-2.67-2.85-4.75-5.52-5.52l-1.63-.47Z" style="fill: #fff;"/>
      <path d="M544.31,333.61l1.63-.47c2.67-.76,4.75-2.85,5.52-5.52l.47-1.63.47,1.63c.76,2.67,2.85,4.75,5.52,5.52l1.63.47-1.63.47c-2.67.76-4.75,2.85-5.52,5.52l-.47,1.63-.47-1.63c-.76-2.67-2.85-4.75-5.52-5.52l-1.63-.47Z" style="fill: #fff;"/>
      <path d="M275.7,148.15l1.63-.47c2.67-.76,4.75-2.85,5.52-5.52l.47-1.63.47,1.63c.76,2.67,2.85,4.75,5.52,5.52l1.63.47-1.63.47c-2.67.76-4.75,2.85-5.52,5.52l-.47,1.63-.47-1.63c-.76-2.67-2.85-4.75-5.52-5.52l-1.63-.47Z" style="fill: #fff;"/>
      <path d="M162.95,369.8l1.63-.47c2.67-.76,4.75-2.85,5.52-5.52l.47-1.63.47,1.63c.76,2.67,2.85,4.75,5.52,5.52l1.63.47-1.63.47c-2.67.76-4.75,2.85-5.52,5.52l-.47,1.63-.47-1.63c-.76-2.67-2.85-4.75-5.52-5.52l-1.63-.47Z" style="fill: #fff;"/>
      <path d="M518.12,282.15l1.63-.47c2.67-.76,4.75-2.85,5.52-5.52l.47-1.63.47,1.63c.76,2.67,2.85,4.75,5.52,5.52l1.63.47-1.63.47c-2.67.76-4.75,2.85-5.52,5.52l-.47,1.63-.47-1.63c-.76-2.67-2.85-4.75-5.52-5.52l-1.63-.47Z" style="fill: #fff;"/>
      <path d="M129.02,168.44l1.63-.47c2.67-.76,4.75-2.85,5.52-5.52l.47-1.63.47,1.63c.76,2.67,2.85,4.75,5.52,5.52l1.63.47-1.63.47c-2.67.76-4.75,2.85-5.52,5.52l-.47,1.63-.47-1.63c-.76-2.67-2.85-4.75-5.52-5.52l-1.63-.47Z" style="fill: #fff;"/>
    </g>
  </g>
</svg>