<?xml version="1.0" encoding="UTF-8"?>
<svg id="Layer_2" xmlns="http://www.w3.org/2000/svg" viewBox="0 0 573.46 773.91">
  <g id="Layer_5">
    <g id="big">
      <path d="M285.21,687.26l1.63-.47c2.67-.76,4.75-2.85,5.52-5.52l.47-1.63.47,1.63c.76,2.67,2.85,4.75,5.52,5.52l1.63.47-1.63.47c-2.67.76-4.75,2.85-5.52,5.52l-.47,1.63-.47-1.63c-.76-2.67-2.85-4.75-5.52-5.52l-1.63-.47Z" style="fill: #fff;"/>
      <path d="M263.5,607.97l1.63-.47c2.67-.76,4.75-2.85,5.52-5.52l.47-1.63.47,1.63c.76,2.67,2.85,4.75,5.52,5.52l1.63.47-1.63.47c-2.67.76-4.75,2.85-5.52,5.52l-.47,1.63-.47-1.63c-.76-2.67-2.85-4.75-5.52-5.52l-1.63-.47Z" style="fill: #fff;"/>
      <path d="M116.53,733.84h0c2.81-.8,5-3,5.8-5.8h0c.12-.41.69-.41.81,0h0c.8,2.81,3,5,5.8,5.8h0c.41.12.41.69,0,.81h0c-2.81.8-5,3-5.8,5.8h0c-.12.41-.69.41-.81,0h0c-.8-2.81-3-5-5.8-5.8h0c-.41-.12-.41-.69,0-.81Z" style="fill: #fff;"/>
      <path d="M1.41,700.98h0c2.81-.8,5-3,5.8-5.8h0c.12-.41.69-.41.81,0h0c.8,2.81,3,5,5.8,5.8h0c.41.12.41.69,0,.81h0c-2.81.8-5,3-5.8,5.8h0c-.12.41-.69.41-.81,0h0c-.8-2.81-3-5-5.8-5.8h0c-.41-.12-.41-.69,0-.81Z" style="fill: #fff;"/>
      <path d="M139.93,590.22h0c2.81-.8,5-3,5.8-5.8h0c.12-.41.69-.41.81,0h0c.8,2.81,3,5,5.8,5.8h0c.41.12.41.69,0,.81h0c-2.81.8-5,3-5.8,5.8l-.4,1.41-.4-1.41c-.8-2.81-3-5-5.8-5.8h0c-.41-.12-.41-.69,0-.81Z" style="fill: #fff;"/>
      <path d="M397.05,590.63l1.63-.47c2.67-.76,4.75-2.85,5.52-5.52l.47-1.63.47,1.63c.76,2.67,2.85,4.75,5.52,5.52l1.63.47-1.63.47c-2.67.76-4.75,2.85-5.52,5.52l-.47,1.63-.47-1.63c-.76-2.67-2.85-4.75-5.52-5.52l-1.63-.47Z" style="fill: #fff;"/>
      <path d="M340.08,489.92l1.63-.47c2.67-.76,4.75-2.85,5.52-5.52l.47-1.63.47,1.63c.76,2.67,2.85,4.75,5.52,5.52l1.63.47-1.63.47c-2.67.76-4.75,2.85-5.52,5.52l-.47,1.63-.47-1.63c-.76-2.67-2.85-4.75-5.52-5.52l-1.63-.47Z" style="fill: #fff;"/>
      <path d="M235.19,504.76h0c2.81-.8,5-3,5.8-5.8h0c.12-.41.69-.41.81,0h0c.8,2.81,3,5,5.8,5.8h0c.41.12.41.69,0,.81h0c-2.81.8-5,3-5.8,5.8h0c-.12.41-.69.41-.81,0h0c-.8-2.81-3-5-5.8-5.8h0c-.41-.12-.41-.69,0-.81Z" style="fill: #fff;"/>
      <path d="M501.4,497.54l1.63-.47c2.67-.76,4.75-2.85,5.52-5.52l.47-1.63.47,1.63c.76,2.67,2.85,4.75,5.52,5.52l1.63.47-1.63.47c-2.67.76-4.75,2.85-5.52,5.52l-.47,1.63-.47-1.63c-.76-2.67-2.85-4.75-5.52-5.52l-1.63-.47Z" style="fill: #fff;"/>
      <path d="M433.81,741.87l1.63-.47c2.67-.76,4.75-2.85,5.52-5.52l.47-1.63.47,1.63c.76,2.67,2.85,4.75,5.52,5.52l1.63.47-1.63.47c-2.67.76-4.75,2.85-5.52,5.52l-.47,1.63-.47-1.63c-.76-2.67-2.85-4.75-5.52-5.52l-1.63-.47Z" style="fill: #fff;"/>
      <path d="M550.99,688.28l1.63-.47c2.67-.76,4.75-2.85,5.52-5.52l.47-1.63.47,1.63c.76,2.67,2.85,4.75,5.52,5.52l1.63.47-1.63.47c-2.67.76-4.75,2.85-5.52,5.52l-.47,1.63-.47-1.63c-.76-2.67-2.85-4.75-5.52-5.52l-1.63-.47Z" style="fill: #fff;"/>
      <path d="M50.98,285.47l1.63-.47c2.67-.76,4.75-2.85,5.52-5.52l.47-1.63.47,1.63c.76,2.67,2.85,4.75,5.52,5.52l1.63.47-1.63.47c-2.67.76-4.75,2.85-5.52,5.52l-.47,1.63-.47-1.63c-.76-2.67-2.85-4.75-5.52-5.52l-1.63-.47Z" style="fill: #fff;"/>
      <path d="M155.33,192.38l1.63-.47c2.67-.76,4.75-2.85,5.52-5.52l.47-1.63.47,1.63c.76,2.67,2.85,4.75,5.52,5.52l1.63.47-1.63.47c-2.67.76-4.75,2.85-5.52,5.52l-.47,1.63-.47-1.63c-.76-2.67-2.85-4.75-5.52-5.52l-1.63-.47Z" style="fill: #fff;"/>
      <path d="M87.75,436.71l1.41-.4c2.81-.8,5-3,5.8-5.8h0c.12-.41.69-.41.81,0h0c.8,2.81,3,5,5.8,5.8h0c.41.12.41.69,0,.81h0c-2.81.8-5,3-5.8,5.8h0c-.12.41-.69.41-.81,0h0c-.8-2.81-3-5-5.8-5.8l-1.41-.4Z" style="fill: #fff;"/>
      <path d="M164.36,514.75h0c2.81-.8,5-3,5.8-5.8h0c.12-.41.69-.41.81,0h0c.8,2.81,3,5,5.8,5.8h0c.41.12.41.69,0,.81h0c-2.81.8-5,3-5.8,5.8h0c-.12.41-.69.41-.81,0h0c-.8-2.81-3-5-5.8-5.8h0c-.41-.12-.41-.69,0-.81Z" style="fill: #fff;"/>
      <path d="M241.74,381.69h0c2.81-.8,5-3,5.8-5.8h0c.12-.41.69-.41.81,0h0c.8,2.81,3,5,5.8,5.8h0c.41.12.41.69,0,.81h0c-2.81.8-5,3-5.8,5.8h0c-.12.41-.69.41-.81,0h0c-.8-2.81-3-5-5.8-5.8h0c-.41-.12-.41-.69,0-.81Z" style="fill: #fff;"/>
      <path d="M1.41,161.86h0c2.81-.8,5-3,5.8-5.8h0c.12-.41.69-.41.81,0h0c.8,2.81,3,5,5.8,5.8h0c.41.12.41.69,0,.81h0c-2.81.8-5,3-5.8,5.8h0c-.12.41-.69.41-.81,0h0c-.8-2.81-3-5-5.8-5.8h0c-.41-.12-.41-.69,0-.81Z" style="fill: #fff;"/>
      <path d="M492.2,169.25h0c2.81-.8,5-3,5.8-5.8h0c.12-.41.69-.41.81,0h0c.8,2.81,3,5,5.8,5.8h0c.41.12.41.69,0,.81h0c-2.81.8-5,3-5.8,5.8l-.4,1.41-.4-1.41c-.8-2.81-3-5-5.8-5.8h0c-.41-.12-.41-.69,0-.81Z" style="fill: #fff;"/>
      <path d="M560.74,124.13h0c2.81-.8,5-3,5.8-5.8h0c.12-.41.69-.41.81,0h0c.8,2.81,3,5,5.8,5.8h0c.41.12.41.69,0,.81h0c-2.81.8-5,3-5.8,5.8h0c-.12.41-.69.41-.81,0h0c-.8-2.81-3-5-5.8-5.8h0c-.41-.12-.41-.69,0-.81Z" style="fill: #fff;"/>
      <path d="M440.02,15.73l1.41-.4c2.81-.8,5-3,5.8-5.8h0c.12-.41.69-.41.81,0h0c.8,2.81,3,5,5.8,5.8h0c.41.12.41.69,0,.81h0c-2.81.8-5,3-5.8,5.8h0c-.12.41-.69.41-.81,0h0c-.8-2.81-3-5-5.8-5.8l-1.41-.4Z" style="fill: #fff;"/>
      <path d="M386.49,109.86l1.41-.4c2.81-.8,5-3,5.8-5.8h0c.12-.41.69-.41.81,0h0c.8,2.81,3,5,5.8,5.8h0c.41.12.41.69,0,.81h0c-2.81.8-5,3-5.8,5.8h0c-.12.41-.69.41-.81,0h0c-.8-2.81-3-5-5.8-5.8l-1.41-.4Z" style="fill: #fff;"/>
      <path d="M516.63,93.77h0c2.81-.8,5-3,5.8-5.8h0c.12-.41.69-.41.81,0h0c.8,2.81,3,5,5.8,5.8h0c.41.12.41.69,0,.81h0c-2.81.8-5,3-5.8,5.8h0c-.12.41-.69.41-.81,0h0c-.8-2.81-3-5-5.8-5.8h0c-.41-.12-.41-.69,0-.81Z" style="fill: #fff;"/>
      <path d="M548.19,766.3l1.63-.47c2.67-.76,4.75-2.85,5.52-5.52l.47-1.63.47,1.63c.76,2.67,2.85,4.75,5.52,5.52l1.63.47-1.63.47c-2.67.76-4.75,2.85-5.52,5.52l-.47,1.63-.47-1.63c-.76-2.67-2.85-4.75-5.52-5.52l-1.63-.47Z" style="fill: #fff;"/>
      <path d="M501.4,592.73l1.63-.47c2.67-.76,4.75-2.85,5.52-5.52l.47-1.63.47,1.63c.76,2.67,2.85,4.75,5.52,5.52l1.63.47-1.63.47c-2.67.76-4.75,2.85-5.52,5.52l-.47,1.63-.47-1.63c-.76-2.67-2.85-4.75-5.52-5.52l-1.63-.47Z" style="fill: #fff;"/>
      <path d="M524.79,449.11l1.63-.47c2.67-.76,4.75-2.85,5.52-5.52l.47-1.63.47,1.63c.76,2.67,2.85,4.75,5.52,5.52l1.63.47-1.63.47c-2.67.76-4.75,2.85-5.52,5.52l-.47,1.63-.47-1.63c-.76-2.67-2.85-4.75-5.52-5.52l-1.63-.47Z" style="fill: #fff;"/>
      <path d="M340.08,370.79l1.63-.47c2.67-.76,4.75-2.85,5.52-5.52l.47-1.63.47,1.63c.76,2.67,2.85,4.75,5.52,5.52l1.63.47-1.63.47c-2.67.76-4.75,2.85-5.52,5.52l-.47,1.63-.47-1.63c-.76-2.67-2.85-4.75-5.52-5.52l-1.63-.47Z" style="fill: #fff;"/>
      <path d="M463.92,415.95l1.63-.47c2.67-.76,4.75-2.85,5.52-5.52l.47-1.63.47,1.63c.76,2.67,2.85,4.75,5.52,5.52l1.63.47-1.63.47c-2.67.76-4.75,2.85-5.52,5.52l-.47,1.63-.47-1.63c-.76-2.67-2.85-4.75-5.52-5.52l-1.63-.47Z" style="fill: #fff;"/>
      <path d="M393.56,323.89l1.63-.47c2.67-.76,4.75-2.85,5.52-5.52l.47-1.63.47,1.63c.76,2.67,2.85,4.75,5.52,5.52l1.63.47-1.63.47c-2.67.76-4.75,2.85-5.52,5.52l-.47,1.63-.47-1.63c-.76-2.67-2.85-4.75-5.52-5.52l-1.63-.47Z" style="fill: #fff;"/>
      <path d="M346.06,194.3l1.63-.47c2.67-.76,4.75-2.85,5.52-5.52l.47-1.63.47,1.63c.76,2.67,2.85,4.75,5.52,5.52l1.63.47-1.63.47c-2.67.76-4.75,2.85-5.52,5.52l-.47,1.63-.47-1.63c-.76-2.67-2.85-4.75-5.52-5.52l-1.63-.47Z" style="fill: #fff;"/>
      <path d="M307.31,7.62l1.63-.47c2.67-.76,4.75-2.85,5.52-5.52l.47-1.63.47,1.63c.76,2.67,2.85,4.75,5.52,5.52l1.63.47-1.63.47c-2.67.76-4.75,2.85-5.52,5.52l-.47,1.63-.47-1.63c-.76-2.67-2.85-4.75-5.52-5.52l-1.63-.47Z" style="fill: #fff;"/>
      <path d="M184.02,228.18l1.63-.47c2.67-.76,4.75-2.85,5.52-5.52l.47-1.63.47,1.63c.76,2.67,2.85,4.75,5.52,5.52l1.63.47-1.63.47c-2.67.76-4.75,2.85-5.52,5.52l-.47,1.63-.47-1.63c-.76-2.67-2.85-4.75-5.52-5.52l-1.63-.47Z" style="fill: #fff;"/>
      <path d="M137.23,54.61l1.63-.47c2.67-.76,4.75-2.85,5.52-5.52l.47-1.63.47,1.63c.76,2.67,2.85,4.75,5.52,5.52l1.63.47-1.63.47c-2.67.76-4.75,2.85-5.52,5.52l-.47,1.63-.47-1.63c-.76-2.67-2.85-4.75-5.52-5.52l-1.63-.47Z" style="fill: #fff;"/>
      <path d="M0,46.99l1.63-.47c2.67-.76,4.75-2.85,5.52-5.52l.47-1.63.47,1.63c.76,2.67,2.85,4.75,5.52,5.52l1.63.47-1.63.47c-2.67.76-4.75,2.85-5.52,5.52l-.47,1.63-.47-1.63c-.76-2.67-2.85-4.75-5.52-5.52l-1.63-.47Z" style="fill: #fff;"/>
      <path d="M469.11,209.26l1.63-.47c2.67-.76,4.75-2.85,5.52-5.52l.47-1.63.47,1.63c.76,2.67,2.85,4.75,5.52,5.52l1.63.47-1.63.47c-2.67.76-4.75,2.85-5.52,5.52l-.47,1.63-.47-1.63c-.76-2.67-2.85-4.75-5.52-5.52l-1.63-.47Z" style="fill: #fff;"/>
      <path d="M544.31,287.7l1.63-.47c2.67-.76,4.75-2.85,5.52-5.52l.47-1.63.47,1.63c.76,2.67,2.85,4.75,5.52,5.52l1.63.47-1.63.47c-2.67.76-4.75,2.85-5.52,5.52l-.47,1.63-.47-1.63c-.76-2.67-2.85-4.75-5.52-5.52l-1.63-.47Z" style="fill: #fff;"/>
      <path d="M275.7,102.24l1.63-.47c2.67-.76,4.75-2.85,5.52-5.52l.47-1.63.47,1.63c.76,2.67,2.85,4.75,5.52,5.52l1.63.47-1.63.47c-2.67.76-4.75,2.85-5.52,5.52l-.47,1.63-.47-1.63c-.76-2.67-2.85-4.75-5.52-5.52l-1.63-.47Z" style="fill: #fff;"/>
      <path d="M162.95,323.89l1.63-.47c2.67-.76,4.75-2.85,5.52-5.52l.47-1.63.47,1.63c.76,2.67,2.85,4.75,5.52,5.52l1.63.47-1.63.47c-2.67.76-4.75,2.85-5.52,5.52l-.47,1.63-.47-1.63c-.76-2.67-2.85-4.75-5.52-5.52l-1.63-.47Z" style="fill: #fff;"/>
      <path d="M518.12,236.24l1.63-.47c2.67-.76,4.75-2.85,5.52-5.52l.47-1.63.47,1.63c.76,2.67,2.85,4.75,5.52,5.52l1.63.47-1.63.47c-2.67.76-4.75,2.85-5.52,5.52l-.47,1.63-.47-1.63c-.76-2.67-2.85-4.75-5.52-5.52l-1.63-.47Z" style="fill: #fff;"/>
      <path d="M129.02,122.53l1.63-.47c2.67-.76,4.75-2.85,5.52-5.52l.47-1.63.47,1.63c.76,2.67,2.85,4.75,5.52,5.52l1.63.47-1.63.47c-2.67.76-4.75,2.85-5.52,5.52l-.47,1.63-.47-1.63c-.76-2.67-2.85-4.75-5.52-5.52l-1.63-.47Z" style="fill: #fff;"/>
    </g>
  </g>
</svg>