<?xml version="1.0" encoding="UTF-8"?>
<svg id="Layer_2" xmlns="http://www.w3.org/2000/svg" viewBox="0 0 579.1 803.47">
  <g id="Layer_5">
    <g id="medium">
      <path d="M266.6,794.15l1-.29c1.63-.47,2.9-1.74,3.37-3.37l.29-1,.29,1c.47,1.63,1.74,2.9,3.37,3.37l1,.29-1,.29c-1.63.47-2.9,1.74-3.37,3.37l-.29,1-.29-1c-.47-1.63-1.74-2.9-3.37-3.37l-1-.29Z" style="fill: #fff;"/>
      <path d="M242.92,680.07l1-.29c1.63-.47,2.9-1.74,3.37-3.37l.29-1,.29,1c.47,1.63,1.74,2.9,3.37,3.37l1,.29-1,.29c-1.63.47-2.9,1.74-3.37,3.37l-.29,1-.29-1c-.47-1.63-1.74-2.9-3.37-3.37l-1-.29Z" style="fill: #fff;"/>
      <path d="M229.65,631.62l1-.29c1.63-.47,2.9-1.74,3.37-3.37l.29-1,.29,1c.47,1.63,1.74,2.9,3.37,3.37l1,.29-1,.29c-1.63.47-2.9,1.74-3.37,3.37l-.29,1-.29-1c-.47-1.63-1.74-2.9-3.37-3.37l-1-.29Z" style="fill: #fff;"/>
      <path d="M168.2,798.81l1-.29c1.63-.47,2.9-1.74,3.37-3.37l.29-1,.29,1c.47,1.63,1.74,2.9,3.37,3.37l1,.29-1,.29c-1.63.47-2.9,1.74-3.37,3.37l-.29,1-.29-1c-.47-1.63-1.74-2.9-3.37-3.37l-1-.29Z" style="fill: #fff;"/>
      <path d="M139.84,708.54h0c1.72-.49,3.06-1.83,3.55-3.55h0c.07-.25.42-.25.49,0h0c.49,1.72,1.83,3.06,3.55,3.55h0c.25.07.25.42,0,.49h0c-1.72.49-3.06,1.83-3.55,3.55h0c-.07.25-.42.25-.49,0h0c-.49-1.72-1.83-3.06-3.55-3.55h0c-.25-.07-.25-.42,0-.49Z" style="fill: #fff;"/>
      <path d="M69.48,688.46h0c1.72-.49,3.06-1.83,3.55-3.55h0c.07-.25.42-.25.49,0h0c.49,1.72,1.83,3.06,3.55,3.55h0c.25.07.25.42,0,.49h0c-1.72.49-3.06,1.83-3.55,3.55h0c-.07.25-.42.25-.49,0h0c-.49-1.72-1.83-3.06-3.55-3.55h0c-.25-.07-.25-.42,0-.49Z" style="fill: #fff;"/>
      <path d="M154.13,620.77h0c1.72-.49,3.06-1.83,3.55-3.55h0c.07-.25.42-.25.49,0h0c.49,1.72,1.83,3.06,3.55,3.55h0c.25.07.25.42,0,.49h0c-1.72.49-3.06,1.83-3.55,3.55l-.25.86-.25-.86c-.49-1.72-1.83-3.06-3.55-3.55h0c-.25-.07-.25-.42,0-.49Z" style="fill: #fff;"/>
      <path d="M26.48,784.6h0c1.72-.49,3.06-1.83,3.55-3.55h0c.07-.25.42-.25.49,0h0c.49,1.72,1.83,3.06,3.55,3.55h0c.25.07.25.42,0,.49h0c-1.72.49-3.06,1.83-3.55,3.55l-.25.86-.25-.86c-.49-1.72-1.83-3.06-3.55-3.55h0c-.25-.07-.25-.42,0-.49Z" style="fill: #fff;"/>
      <path d="M311.26,621.02l1-.29c1.63-.47,2.9-1.74,3.37-3.37l.29-1,.29,1c.47,1.63,1.74,2.9,3.37,3.37l1,.29-1,.29c-1.63.47-2.9,1.74-3.37,3.37l-.29,1-.29-1c-.47-1.63-1.74-2.9-3.37-3.37l-1-.29Z" style="fill: #fff;"/>
      <path d="M276.45,559.48l1-.29c1.63-.47,2.9-1.74,3.37-3.37l.29-1,.29,1c.47,1.63,1.74,2.9,3.37,3.37l1,.29-1,.29c-1.63.47-2.9,1.74-3.37,3.37l-.29,1-.29-1c-.47-1.63-1.74-2.9-3.37-3.37l-1-.29Z" style="fill: #fff;"/>
      <path d="M212.35,568.54h0c1.72-.49,3.06-1.83,3.55-3.55h0c.07-.25.42-.25.49,0h0c.49,1.72,1.83,3.06,3.55,3.55h0c.25.07.25.42,0,.49h0c-1.72.49-3.06,1.83-3.55,3.55h0c-.07.25-.42.25-.49,0h0c-.49-1.72-1.83-3.06-3.55-3.55h0c-.25-.07-.25-.42,0-.49Z" style="fill: #fff;"/>
      <path d="M375.03,564.13l1-.29c1.63-.47,2.9-1.74,3.37-3.37l.29-1,.29,1c.47,1.63,1.74,2.9,3.37,3.37l1,.29-1,.29c-1.63.47-2.9,1.74-3.37,3.37l-.29,1-.29-1c-.47-1.63-1.74-2.9-3.37-3.37l-1-.29Z" style="fill: #fff;"/>
      <path d="M333.73,713.44l1-.29c1.63-.47,2.9-1.74,3.37-3.37l.29-1,.29,1c.47,1.63,1.74,2.9,3.37,3.37l1,.29-1,.29c-1.63.47-2.9,1.74-3.37,3.37l-.29,1-.29-1c-.47-1.63-1.74-2.9-3.37-3.37l-1-.29Z" style="fill: #fff;"/>
      <path d="M379.69,761.38l1-.29c1.63-.47,2.9-1.74,3.37-3.37l.29-1,.29,1c.47,1.63,1.74,2.9,3.37,3.37l1,.29-1,.29c-1.63.47-2.9,1.74-3.37,3.37l-.29,1-.29-1c-.47-1.63-1.74-2.9-3.37-3.37l-1-.29Z" style="fill: #fff;"/>
      <path d="M426.97,680.07l1-.29c1.63-.47,2.9-1.74,3.37-3.37l.29-1,.29,1c.47,1.63,1.74,2.9,3.37,3.37l1,.29-1,.29c-1.63.47-2.9,1.74-3.37,3.37l-.29,1-.29-1c-.47-1.63-1.74-2.9-3.37-3.37l-1-.29Z" style="fill: #fff;"/>
      <path d="M223.6,737.89l1-.29c1.63-.47,2.9-1.74,3.37-3.37l.29-1,.29,1c.47,1.63,1.74,2.9,3.37,3.37l1,.29-1,.29c-1.63.47-2.9,1.74-3.37,3.37l-.29,1-.29-1c-.47-1.63-1.74-2.9-3.37-3.37l-1-.29Z" style="fill: #fff;"/>
      <path d="M55.11,607.67l1-.29c1.63-.47,2.9-1.74,3.37-3.37l.29-1,.29,1c.47,1.63,1.74,2.9,3.37,3.37l1,.29-1,.29c-1.63.47-2.9,1.74-3.37,3.37l-.29,1-.29-1c-.47-1.63-1.74-2.9-3.37-3.37l-1-.29Z" style="fill: #fff;"/>
      <path d="M31.43,493.58l1-.29c1.63-.47,2.9-1.74,3.37-3.37l.29-1,.29,1c.47,1.63,1.74,2.9,3.37,3.37l1,.29-1,.29c-1.63.47-2.9,1.74-3.37,3.37l-.29,1-.29-1c-.47-1.63-1.74-2.9-3.37-3.37l-1-.29Z" style="fill: #fff;"/>
      <path d="M412.17,30.19l.29,1c.47,1.63,1.74,2.9,3.37,3.37l1,.29-1,.29c-1.63.47-2.9,1.74-3.37,3.37l-.29,1-.29-1c-.47-1.63-1.74-2.9-3.37-3.37l-1-.29,1-.29c1.63-.47,2.9-1.74,3.37-3.37l.29-1Z" style="fill: #fff;"/>
      <path d="M556.63,0l.29,1c.47,1.63,1.74,2.9,3.37,3.37l1,.29-1,.29c-1.63.47-2.9,1.74-3.37,3.37l-.29,1-.29-1c-.47-1.63-1.74-2.9-3.37-3.37l-1-.29,1-.29c1.63-.47,2.9-1.74,3.37-3.37l.29-1Z" style="fill: #fff;"/>
      <path d="M99.78,434.53l1-.29c1.63-.47,2.9-1.74,3.37-3.37l.29-1,.29,1c.47,1.63,1.74,2.9,3.37,3.37l1,.29-1,.29c-1.63.47-2.9,1.74-3.37,3.37l-.29,1-.29-1c-.47-1.63-1.74-2.9-3.37-3.37l-1-.29Z" style="fill: #fff;"/>
      <path d="M0,382.3l1-.29c1.63-.47,2.9-1.74,3.37-3.37l.29-1,.29,1c.47,1.63,1.74,2.9,3.37,3.37l1,.29-1,.29c-1.63.47-2.9,1.74-3.37,3.37l-.29,1-.29-1c-.47-1.63-1.74-2.9-3.37-3.37l-1-.29Z" style="fill: #fff;"/>
      <path d="M163.55,377.65l1-.29c1.63-.47,2.9-1.74,3.37-3.37l.29-1,.29,1c.47,1.63,1.74,2.9,3.37,3.37l1,.29-1,.29c-1.63.47-2.9,1.74-3.37,3.37l-.29,1-.29-1c-.47-1.63-1.74-2.9-3.37-3.37l-1-.29Z" style="fill: #fff;"/>
      <path d="M122.25,526.96l.86-.25c1.72-.49,3.06-1.83,3.55-3.55h0c.07-.25.42-.25.49,0h0c.49,1.72,1.83,3.06,3.55,3.55h0c.25.07.25.42,0,.49h0c-1.72.49-3.06,1.83-3.55,3.55h0c-.07.25-.42.25-.49,0h0c-.49-1.72-1.83-3.06-3.55-3.55l-.86-.25Z" style="fill: #fff;"/>
      <path d="M169.07,574.65h0c1.72-.49,3.06-1.83,3.55-3.55h0c.07-.25.42-.25.49,0h0c.49,1.72,1.83,3.06,3.55,3.55h0c.25.07.25.42,0,.49h0c-1.72.49-3.06,1.83-3.55,3.55h0c-.07.25-.42.25-.49,0h0c-.49-1.72-1.83-3.06-3.55-3.55h0c-.25-.07-.25-.42,0-.49Z" style="fill: #fff;"/>
      <path d="M216.35,493.34h0c1.72-.49,3.06-1.83,3.55-3.55h0c.07-.25.42-.25.49,0h0c.49,1.72,1.83,3.06,3.55,3.55h0c.25.07.25.42,0,.49h0c-1.72.49-3.06,1.83-3.55,3.55h0c-.07.25-.42.25-.49,0h0c-.49-1.72-1.83-3.06-3.55-3.55h0c-.25-.07-.25-.42,0-.49Z" style="fill: #fff;"/>
      <path d="M69.48,358.99h0c1.72-.49,3.06-1.83,3.55-3.55h0c.07-.25.42-.25.49,0h0c.49,1.72,1.83,3.06,3.55,3.55h0c.25.07.25.42,0,.49h0c-1.72.49-3.06,1.83-3.55,3.55h0c-.07.25-.42.25-.49,0h0c-.49-1.72-1.83-3.06-3.55-3.55h0c-.25-.07-.25-.42,0-.49Z" style="fill: #fff;"/>
      <path d="M369.41,363.51h0c1.72-.49,3.06-1.83,3.55-3.55h0c.07-.25.42-.25.49,0h0c.49,1.72,1.83,3.06,3.55,3.55h0c.25.07.25.42,0,.49h0c-1.72.49-3.06,1.83-3.55,3.55l-.25.86-.25-.86c-.49-1.72-1.83-3.06-3.55-3.55h0c-.25-.07-.25-.42,0-.49Z" style="fill: #fff;"/>
      <path d="M427.63,311.28h0c1.72-.49,3.06-1.83,3.55-3.55h0c.07-.25.42-.25.49,0h0c.49,1.72,1.83,3.06,3.55,3.55h0c.25.07.25.42,0,.49h0c-1.72.49-3.06,1.83-3.55,3.55h0c-.07.25-.42.25-.49,0h0c-.49-1.72-1.83-3.06-3.55-3.55h0c-.25-.07-.25-.42,0-.49Z" style="fill: #fff;"/>
      <path d="M337.53,269.69l.86-.25c1.72-.49,3.06-1.83,3.55-3.55h0c.07-.25.42-.25.49,0h0c.49,1.72,1.83,3.06,3.55,3.55h0c.25.07.25.42,0,.49h0c-1.72.49-3.06,1.83-3.55,3.55h0c-.07.25-.42.25-.49,0h0c-.49-1.72-1.83-3.06-3.55-3.55l-.86-.25Z" style="fill: #fff;"/>
      <path d="M304.81,327.21l.86-.25c1.72-.49,3.06-1.83,3.55-3.55h0c.07-.25.42-.25.49,0h0c.49,1.72,1.83,3.06,3.55,3.55h0c.25.07.25.42,0,.49h0c-1.72.49-3.06,1.83-3.55,3.55h0c-.07.25-.42.25-.49,0h0c-.49-1.72-1.83-3.06-3.55-3.55l-.86-.25Z" style="fill: #fff;"/>
      <path d="M384.34,317.38h0c1.72-.49,3.06-1.83,3.55-3.55h0c.07-.25.42-.25.49,0h0c.49,1.72,1.83,3.06,3.55,3.55h0c.25.07.25.42,0,.49h0c-1.72.49-3.06,1.83-3.55,3.55h0c-.07.25-.42.25-.49,0h0c-.49-1.72-1.83-3.06-3.55-3.55h0c-.25-.07-.25-.42,0-.49Z" style="fill: #fff;"/>
      <path d="M431.63,236.07h0c1.72-.49,3.06-1.83,3.55-3.55h0c.07-.25.42-.25.49,0h0c.49,1.72,1.83,3.06,3.55,3.55h0c.25.07.25.42,0,.49h0c-1.72.49-3.06,1.83-3.55,3.55h0c-.07.25-.42.25-.49,0h0c-.49-1.72-1.83-3.06-3.55-3.55h0c-.25-.07-.25-.42,0-.49Z" style="fill: #fff;"/>
      <path d="M12.11,551.41l1-.29c1.63-.47,2.9-1.74,3.37-3.37l.29-1,.29,1c.47,1.63,1.74,2.9,3.37,3.37l1,.29-1,.29c-1.63.47-2.9,1.74-3.37,3.37l-.29,1-.29-1c-.47-1.63-1.74-2.9-3.37-3.37l-1-.29Z" style="fill: #fff;"/>
      <path d="M502.66,707.67l1-.29c1.63-.47,2.9-1.74,3.37-3.37l.29-1,.29,1c.47,1.63,1.74,2.9,3.37,3.37l1,.29-1,.29c-1.63.47-2.9,1.74-3.37,3.37l-.29,1-.29-1c-.47-1.63-1.74-2.9-3.37-3.37l-1-.29Z" style="fill: #fff;"/>
      <path d="M478.98,593.59l1-.29c1.63-.47,2.9-1.74,3.37-3.37l.29-1,.29,1c.47,1.63,1.74,2.9,3.37,3.37l1,.29-1,.29c-1.63.47-2.9,1.74-3.37,3.37l-.29,1-.29-1c-.47-1.63-1.74-2.9-3.37-3.37l-1-.29Z" style="fill: #fff;"/>
      <path d="M403.63,728.37l1-.29c1.63-.47,2.9-1.74,3.37-3.37l.29-1,.29,1c.47,1.63,1.74,2.9,3.37,3.37l1,.29-1,.29c-1.63.47-2.9,1.74-3.37,3.37l-.29,1-.29-1c-.47-1.63-1.74-2.9-3.37-3.37l-1-.29Z" style="fill: #fff;"/>
      <path d="M375.03,622.3l1-.29c1.63-.47,2.9-1.74,3.37-3.37l.29-1,.29,1c.47,1.63,1.74,2.9,3.37,3.37l1,.29-1,.29c-1.63.47-2.9,1.74-3.37,3.37l-.29,1-.29-1c-.47-1.63-1.74-2.9-3.37-3.37l-1-.29Z" style="fill: #fff;"/>
      <path d="M389.33,534.53l1-.29c1.63-.47,2.9-1.74,3.37-3.37l.29-1,.29,1c.47,1.63,1.74,2.9,3.37,3.37l1,.29-1,.29c-1.63.47-2.9,1.74-3.37,3.37l-.29,1-.29-1c-.47-1.63-1.74-2.9-3.37-3.37l-1-.29Z" style="fill: #fff;"/>
      <path d="M547.32,534.53l1-.29c1.63-.47,2.9-1.74,3.37-3.37l.29-1,.29,1c.47,1.63,1.74,2.9,3.37,3.37l1,.29-1,.29c-1.63.47-2.9,1.74-3.37,3.37l-.29,1-.29-1c-.47-1.63-1.74-2.9-3.37-3.37l-1-.29Z" style="fill: #fff;"/>
      <path d="M447.54,482.31l1-.29c1.63-.47,2.9-1.74,3.37-3.37l.29-1,.29,1c.47,1.63,1.74,2.9,3.37,3.37l1,.29-1,.29c-1.63.47-2.9,1.74-3.37,3.37l-.29,1-.29-1c-.47-1.63-1.74-2.9-3.37-3.37l-1-.29Z" style="fill: #fff;"/>
      <path d="M569.79,626.96l1-.29c1.63-.47,2.9-1.74,3.37-3.37l.29-1,.29,1c.47,1.63,1.74,2.9,3.37,3.37l1,.29-1,.29c-1.63.47-2.9,1.74-3.37,3.37l-.29,1-.29-1c-.47-1.63-1.74-2.9-3.37-3.37l-1-.29Z" style="fill: #fff;"/>
      <path d="M459.66,651.41l1-.29c1.63-.47,2.9-1.74,3.37-3.37l.29-1,.29,1c.47,1.63,1.74,2.9,3.37,3.37l1,.29-1,.29c-1.63.47-2.9,1.74-3.37,3.37l-.29,1-.29-1c-.47-1.63-1.74-2.9-3.37-3.37l-1-.29Z" style="fill: #fff;"/>
      <path d="M276.45,486.67l1-.29c1.63-.47,2.9-1.74,3.37-3.37l.29-1,.29,1c.47,1.63,1.74,2.9,3.37,3.37l1,.29-1,.29c-1.63.47-2.9,1.74-3.37,3.37l-.29,1-.29-1c-.47-1.63-1.74-2.9-3.37-3.37l-1-.29Z" style="fill: #fff;"/>
      <path d="M352.13,514.27l1-.29c1.63-.47,2.9-1.74,3.37-3.37l.29-1,.29,1c.47,1.63,1.74,2.9,3.37,3.37l1,.29-1,.29c-1.63.47-2.9,1.74-3.37,3.37l-.29,1-.29-1c-.47-1.63-1.74-2.9-3.37-3.37l-1-.29Z" style="fill: #fff;"/>
      <path d="M309.13,458.01l1-.29c1.63-.47,2.9-1.74,3.37-3.37l.29-1,.29,1c.47,1.63,1.74,2.9,3.37,3.37l1,.29-1,.29c-1.63.47-2.9,1.74-3.37,3.37l-.29,1-.29-1c-.47-1.63-1.74-2.9-3.37-3.37l-1-.29Z" style="fill: #fff;"/>
      <path d="M280.11,378.82l1-.29c1.63-.47,2.9-1.74,3.37-3.37l.29-1,.29,1c.47,1.63,1.74,2.9,3.37,3.37l1,.29-1,.29c-1.63.47-2.9,1.74-3.37,3.37l-.29,1-.29-1c-.47-1.63-1.74-2.9-3.37-3.37l-1-.29Z" style="fill: #fff;"/>
      <path d="M256.43,264.73l1-.29c1.63-.47,2.9-1.74,3.37-3.37l.29-1,.29,1c.47,1.63,1.74,2.9,3.37,3.37l1,.29-1,.29c-1.63.47-2.9,1.74-3.37,3.37l-.29,1-.29-1c-.47-1.63-1.74-2.9-3.37-3.37l-1-.29Z" style="fill: #fff;"/>
      <path d="M181.08,399.52l1-.29c1.63-.47,2.9-1.74,3.37-3.37l.29-1,.29,1c.47,1.63,1.74,2.9,3.37,3.37l1,.29-1,.29c-1.63.47-2.9,1.74-3.37,3.37l-.29,1-.29-1c-.47-1.63-1.74-2.9-3.37-3.37l-1-.29Z" style="fill: #fff;"/>
      <path d="M152.48,293.45l1-.29c1.63-.47,2.9-1.74,3.37-3.37l.29-1,.29,1c.47,1.63,1.74,2.9,3.37,3.37l1,.29-1,.29c-1.63.47-2.9,1.74-3.37,3.37l-.29,1-.29-1c-.47-1.63-1.74-2.9-3.37-3.37l-1-.29Z" style="fill: #fff;"/>
      <path d="M68.62,288.8l1-.29c1.63-.47,2.9-1.74,3.37-3.37l.29-1,.29,1c.47,1.63,1.74,2.9,3.37,3.37l1,.29-1,.29c-1.63.47-2.9,1.74-3.37,3.37l-.29,1-.29-1c-.47-1.63-1.74-2.9-3.37-3.37l-1-.29Z" style="fill: #fff;"/>
      <path d="M166.78,205.68l1-.29c1.63-.47,2.9-1.74,3.37-3.37l.29-1,.29,1c.47,1.63,1.74,2.9,3.37,3.37l1,.29-1,.29c-1.63.47-2.9,1.74-3.37,3.37l-.29,1-.29-1c-.47-1.63-1.74-2.9-3.37-3.37l-1-.29Z" style="fill: #fff;"/>
      <path d="M324.77,205.68l1-.29c1.63-.47,2.9-1.74,3.37-3.37l.29-1,.29,1c.47,1.63,1.74,2.9,3.37,3.37l1,.29-1,.29c-1.63.47-2.9,1.74-3.37,3.37l-.29,1-.29-1c-.47-1.63-1.74-2.9-3.37-3.37l-1-.29Z" style="fill: #fff;"/>
      <path d="M224.99,153.45l1-.29c1.63-.47,2.9-1.74,3.37-3.37l.29-1,.29,1c.47,1.63,1.74,2.9,3.37,3.37l1,.29-1,.29c-1.63.47-2.9,1.74-3.37,3.37l-.29,1-.29-1c-.47-1.63-1.74-2.9-3.37-3.37l-1-.29Z" style="fill: #fff;"/>
      <path d="M315.92,82.9l1-.29c1.63-.47,2.9-1.74,3.37-3.37l.29-1,.29,1c.47,1.63,1.74,2.9,3.37,3.37l1,.29-1,.29c-1.63.47-2.9,1.74-3.37,3.37l-.29,1-.29-1c-.47-1.63-1.74-2.9-3.37-3.37l-1-.29Z" style="fill: #fff;"/>
      <path d="M256.43,19.19l1-.29c1.63-.47,2.9-1.74,3.37-3.37l.29-1,.29,1c.47,1.63,1.74,2.9,3.37,3.37l1,.29-1,.29c-1.63.47-2.9,1.74-3.37,3.37l-.29,1-.29-1c-.47-1.63-1.74-2.9-3.37-3.37l-1-.29Z" style="fill: #fff;"/>
      <path d="M388.54,148.8l1-.29c1.63-.47,2.9-1.74,3.37-3.37l.29-1,.29,1c.47,1.63,1.74,2.9,3.37,3.37l1,.29-1,.29c-1.63.47-2.9,1.74-3.37,3.37l-.29,1-.29-1c-.47-1.63-1.74-2.9-3.37-3.37l-1-.29Z" style="fill: #fff;"/>
      <path d="M355.3,387.96l1-.29c1.63-.47,2.9-1.74,3.37-3.37l.29-1,.29,1c.47,1.63,1.74,2.9,3.37,3.37l1,.29-1,.29c-1.63.47-2.9,1.74-3.37,3.37l-.29,1-.29-1c-.47-1.63-1.74-2.9-3.37-3.37l-1-.29Z" style="fill: #fff;"/>
      <path d="M401.26,435.9l1-.29c1.63-.47,2.9-1.74,3.37-3.37l.29-1,.29,1c.47,1.63,1.74,2.9,3.37,3.37l1,.29-1,.29c-1.63.47-2.9,1.74-3.37,3.37l-.29,1-.29-1c-.47-1.63-1.74-2.9-3.37-3.37l-1-.29Z" style="fill: #fff;"/>
      <path d="M448.54,354.58l1-.29c1.63-.47,2.9-1.74,3.37-3.37l.29-1,.29,1c.47,1.63,1.74,2.9,3.37,3.37l1,.29-1,.29c-1.63.47-2.9,1.74-3.37,3.37l-.29,1-.29-1c-.47-1.63-1.74-2.9-3.37-3.37l-1-.29Z" style="fill: #fff;"/>
      <path d="M271.79,131.41l1-.29c1.63-.47,2.9-1.74,3.37-3.37l.29-1,.29,1c.47,1.63,1.74,2.9,3.37,3.37l1,.29-1,.29c-1.63.47-2.9,1.74-3.37,3.37l-.29,1-.29-1c-.47-1.63-1.74-2.9-3.37-3.37l-1-.29Z" style="fill: #fff;"/>
      <path d="M237.11,322.56l1-.29c1.63-.47,2.9-1.74,3.37-3.37l.29-1,.29,1c.47,1.63,1.74,2.9,3.37,3.37l1,.29-1,.29c-1.63.47-2.9,1.74-3.37,3.37l-.29,1-.29-1c-.47-1.63-1.74-2.9-3.37-3.37l-1-.29Z" style="fill: #fff;"/>
      <path d="M68.62,192.33l1-.29c1.63-.47,2.9-1.74,3.37-3.37l.29-1,.29,1c.47,1.63,1.74,2.9,3.37,3.37l1,.29-1,.29c-1.63.47-2.9,1.74-3.37,3.37l-.29,1-.29-1c-.47-1.63-1.74-2.9-3.37-3.37l-1-.29Z" style="fill: #fff;"/>
      <path d="M44.94,78.25l1-.29c1.63-.47,2.9-1.74,3.37-3.37l.29-1,.29,1c.47,1.63,1.74,2.9,3.37,3.37l1,.29-1,.29c-1.63.47-2.9,1.74-3.37,3.37l-.29,1-.29-1c-.47-1.63-1.74-2.9-3.37-3.37l-1-.29Z" style="fill: #fff;"/>
      <path d="M113.29,19.19l1-.29c1.63-.47,2.9-1.74,3.37-3.37l.29-1,.29,1c.47,1.63,1.74,2.9,3.37,3.37l1,.29-1,.29c-1.63.47-2.9,1.74-3.37,3.37l-.29,1-.29-1c-.47-1.63-1.74-2.9-3.37-3.37l-1-.29Z" style="fill: #fff;"/>
      <path d="M135.76,111.62l1-.29c1.63-.47,2.9-1.74,3.37-3.37l.29-1,.29,1c.47,1.63,1.74,2.9,3.37,3.37l1,.29-1,.29c-1.63.47-2.9,1.74-3.37,3.37l-.29,1-.29-1c-.47-1.63-1.74-2.9-3.37-3.37l-1-.29Z" style="fill: #fff;"/>
      <path d="M181.71,159.56l1-.29c1.63-.47,2.9-1.74,3.37-3.37l.29-1,.29,1c.47,1.63,1.74,2.9,3.37,3.37l1,.29-1,.29c-1.63.47-2.9,1.74-3.37,3.37l-.29,1-.29-1c-.47-1.63-1.74-2.9-3.37-3.37l-1-.29Z" style="fill: #fff;"/>
      <path d="M229,78.25l1-.29c1.63-.47,2.9-1.74,3.37-3.37l.29-1,.29,1c.47,1.63,1.74,2.9,3.37,3.37l1,.29-1,.29c-1.63.47-2.9,1.74-3.37,3.37l-.29,1-.29-1c-.47-1.63-1.74-2.9-3.37-3.37l-1-.29Z" style="fill: #fff;"/>
      <path d="M25.62,136.07l1-.29c1.63-.47,2.9-1.74,3.37-3.37l.29-1,.29,1c.47,1.63,1.74,2.9,3.37,3.37l1,.29-1,.29c-1.63.47-2.9,1.74-3.37,3.37l-.29,1-.29-1c-.47-1.63-1.74-2.9-3.37-3.37l-1-.29Z" style="fill: #fff;"/>
      <path d="M524.22,382.18l1-.29c1.63-.47,2.9-1.74,3.37-3.37l.29-1,.29,1c.47,1.63,1.74,2.9,3.37,3.37l1,.29-1,.29c-1.63.47-2.9,1.74-3.37,3.37l-.29,1-.29-1c-.47-1.63-1.74-2.9-3.37-3.37l-1-.29Z" style="fill: #fff;"/>
      <path d="M168.2,458.01l1-.29c1.63-.47,2.9-1.74,3.37-3.37l.29-1,.29,1c.47,1.63,1.74,2.9,3.37,3.37l1,.29-1,.29c-1.63.47-2.9,1.74-3.37,3.37l-.29,1-.29-1c-.47-1.63-1.74-2.9-3.37-3.37l-1-.29Z" style="fill: #fff;"/>
      <path d="M492.48,178.25l1-.29c1.63-.47,2.9-1.74,3.37-3.37l.29-1,.29,1c.47,1.63,1.74,2.9,3.37,3.37l1,.29-1,.29c-1.63.47-2.9,1.74-3.37,3.37l-.29,1-.29-1c-.47-1.63-1.74-2.9-3.37-3.37l-1-.29Z" style="fill: #fff;"/>
      <path d="M425.2,402.89l1-.29c1.63-.47,2.9-1.74,3.37-3.37l.29-1,.29,1c.47,1.63,1.74,2.9,3.37,3.37l1,.29-1,.29c-1.63.47-2.9,1.74-3.37,3.37l-.29,1-.29-1c-.47-1.63-1.74-2.9-3.37-3.37l-1-.29Z" style="fill: #fff;"/>
      <path d="M388.54,206.97l1-.29c1.63-.47,2.9-1.74,3.37-3.37l.29-1,.29,1c.47,1.63,1.74,2.9,3.37,3.37l1,.29-1,.29c-1.63.47-2.9,1.74-3.37,3.37l-.29,1-.29-1c-.47-1.63-1.74-2.9-3.37-3.37l-1-.29Z" style="fill: #fff;"/>
      <path d="M402.84,119.2l1-.29c1.63-.47,2.9-1.74,3.37-3.37l.29-1,.29,1c.47,1.63,1.74,2.9,3.37,3.37l1,.29-1,.29c-1.63.47-2.9,1.74-3.37,3.37l-.29,1-.29-1c-.47-1.63-1.74-2.9-3.37-3.37l-1-.29Z" style="fill: #fff;"/>
      <path d="M560.83,119.2l1-.29c1.63-.47,2.9-1.74,3.37-3.37l.29-1,.29,1c.47,1.63,1.74,2.9,3.37,3.37l1,.29-1,.29c-1.63.47-2.9,1.74-3.37,3.37l-.29,1-.29-1c-.47-1.63-1.74-2.9-3.37-3.37l-1-.29Z" style="fill: #fff;"/>
      <path d="M461.05,66.97l1-.29c1.63-.47,2.9-1.74,3.37-3.37l.29-1,.29,1c.47,1.63,1.74,2.9,3.37,3.37l1,.29-1,.29c-1.63.47-2.9,1.74-3.37,3.37l-.29,1-.29-1c-.47-1.63-1.74-2.9-3.37-3.37l-1-.29Z" style="fill: #fff;"/>
      <path d="M565.85,235.79l1-.29c1.63-.47,2.9-1.74,3.37-3.37l.29-1,.29,1c.47,1.63,1.74,2.9,3.37,3.37l1,.29-1,.29c-1.63.47-2.9,1.74-3.37,3.37l-.29,1-.29-1c-.47-1.63-1.74-2.9-3.37-3.37l-1-.29Z" style="fill: #fff;"/>
      <path d="M473.17,236.07l1-.29c1.63-.47,2.9-1.74,3.37-3.37l.29-1,.29,1c.47,1.63,1.74,2.9,3.37,3.37l1,.29-1,.29c-1.63.47-2.9,1.74-3.37,3.37l-.29,1-.29-1c-.47-1.63-1.74-2.9-3.37-3.37l-1-.29Z" style="fill: #fff;"/>
      <path d="M147.47,334.96l1-.29c1.63-.47,2.9-1.74,3.37-3.37l.29-1,.29,1c.47,1.63,1.74,2.9,3.37,3.37l1,.29-1,.29c-1.63.47-2.9,1.74-3.37,3.37l-.29,1-.29-1c-.47-1.63-1.74-2.9-3.37-3.37l-1-.29Z" style="fill: #fff;"/>
    </g>
  </g>
</svg>