<?xml version="1.0" encoding="UTF-8"?>
<svg id="Layer_2" xmlns="http://www.w3.org/2000/svg" viewBox="0 0 554.95 776.64">
  <g id="Layer_5">
    <g id="small">
      <path d="M15.84,561.91l.16.56c.26.91.98,1.63,1.89,1.89l.56.16-.56.16c-.91.26-1.63.98-1.89,1.89l-.16.56-.16-.56c-.26-.91-.98-1.63-1.89-1.89l-.56-.16.56-.16c.91-.26,1.63-.98,1.89-1.89l.16-.56Z" style="fill: #fff; opacity: .5;"/>
      <path d="M13.23,506.73l.16.56c.26.91.98,1.63,1.89,1.89l.56.16-.56.16c-.91.26-1.63.98-1.89,1.89l-.16.56-.16-.56c-.26-.91-.98-1.63-1.89-1.89l-.56-.16.56-.16c.91-.26,1.63-.98,1.89-1.89l.16-.56Z" style="fill: #fff; opacity: .5;"/>
      <path d="M128.47,582.98h0c.28.96,1.03,1.71,1.99,1.99h0c.14.04.14.24,0,.28h0c-.96.28-1.71,1.03-1.99,1.99h0c-.04.14-.24.14-.28,0h0c-.28-.96-1.03-1.71-1.99-1.99h0c-.14-.04-.14-.24,0-.28h0c.96-.28,1.71-1.03,1.99-1.99h0c.04-.14.24-.14.28,0Z" style="fill: #fff; opacity: .5;"/>
      <path d="M282.44,486.41h0c.28.96,1.03,1.71,1.99,1.99h0c.14.04.14.24,0,.28h0c-.96.28-1.71,1.03-1.99,1.99h0c-.04.14-.24.14-.28,0h0c-.28-.96-1.03-1.71-1.99-1.99h0c-.14-.04-.14-.24,0-.28h0c.96-.28,1.71-1.03,1.99-1.99h0c.04-.14.24-.14.28,0Z" style="fill: #fff; opacity: .5;"/>
      <path d="M75.12,451.37h0c.28.96,1.03,1.71,1.99,1.99h0c.14.04.14.24,0,.28h0c-.96.28-1.71,1.03-1.99,1.99h0c-.04.14-.24.14-.28,0h0c-.28-.96-1.03-1.71-1.99-1.99h0c-.14-.04-.14-.24,0-.28h0c.96-.28,1.71-1.03,1.99-1.99h0c.04-.14.24-.14.28,0Z" style="fill: #fff; opacity: .5;"/>
      <path d="M21.21,427.25h0c.28.96,1.03,1.71,1.99,1.99h0c.14.04.14.24,0,.28h0c-.96.28-1.71,1.03-1.99,1.99h0c-.04.14-.24.14-.28,0h0c-.28-.96-1.03-1.71-1.99-1.99l-.48-.14.48-.14c.96-.28,1.71-1.03,1.99-1.99h0c.04-.14.24-.14.28,0Z" style="fill: #fff; opacity: .5;"/>
      <path d="M184.41,430.03l.16.56c.26.91.98,1.63,1.89,1.89l.56.16-.56.16c-.91.26-1.63.98-1.89,1.89l-.16.56-.16-.56c-.26-.91-.98-1.63-1.89-1.89l-.56-.16.56-.16c.91-.26,1.63-.98,1.89-1.89l.16-.56Z" style="fill: #fff; opacity: .5;"/>
      <path d="M541.71,695.04c-.26-.91-.98-1.63-1.89-1.89l-.56-.16.56-.16c.91-.26,1.63-.98,1.89-1.89l.16-.56.16.56c.26.91.98,1.63,1.89,1.89l.56.16-.56.16c-.91.26-1.63.98-1.89,1.89" style="fill: #fff; opacity: .5;"/>
      <path d="M514.01,774.03l-.56.16c-.91.26-1.63.98-1.89,1.89l-.16.56-.16-.56c-.26-.91-.98-1.63-1.89-1.89l-.56-.16.56-.16c.91-.26,1.63-.98,1.89-1.89l.16-.56.16.56c.26.91.98,1.63,1.89,1.89l.56.16Z" style="fill: #fff; opacity: .5;"/>
      <path d="M217.53,468.36l.16.56c.26.91.98,1.63,1.89,1.89l.56.16-.56.16c-.91.26-1.63.98-1.89,1.89l-.16.56-.16-.56c-.26-.91-.98-1.63-1.89-1.89l-.56-.16.56-.16c.91-.26,1.63-.98,1.89-1.89l.16-.56Z" style="fill: #fff; opacity: .5;"/>
      <path d="M246.82,412.4l.16.56c.26.91.98,1.63,1.89,1.89l.56.16-.56.16c-.91.26-1.63.98-1.89,1.89l-.16.56-.16-.56c-.26-.91-.98-1.63-1.89-1.89l-.56-.16.56-.16c.91-.26,1.63-.98,1.89-1.89l.16-.56Z" style="fill: #fff; opacity: .5;"/>
      <path d="M136.12,549.84h0c.28.96,1.03,1.71,1.99,1.99h0c.14.04.14.24,0,.28h0c-.96.28-1.71,1.03-1.99,1.99h0c-.04.14-.24.14-.28,0h0c-.28-.96-1.03-1.71-1.99-1.99h0c-.14-.04-.14-.24,0-.28h0c.96-.28,1.71-1.03,1.99-1.99h0c.04-.14.24-.14.28,0Z" style="fill: #fff; opacity: .5;"/>
      <path d="M257.36,619.58h0c.28.96,1.03,1.71,1.99,1.99h0c.14.04.14.24,0,.28h0c-.96.28-1.71,1.03-1.99,1.99h0c-.04.14-.24.14-.28,0h0c-.28-.96-1.03-1.71-1.99-1.99l-.48-.14.48-.14c.96-.28,1.71-1.03,1.99-1.99h0c.04-.14.24-.14.28,0Z" style="fill: #fff; opacity: .5;"/>
      <path d="M151.98,419.19l.16.56c.26.91.98,1.63,1.89,1.89l.56.16-.56.16c-.91.26-1.63.98-1.89,1.89l-.16.56-.16-.56c-.26-.91-.98-1.63-1.89-1.89l-.56-.16.56-.16c.91-.26,1.63-.98,1.89-1.89l.16-.56Z" style="fill: #fff; opacity: .5;"/>
      <path d="M74.8,650.7l.16.56c.26.91.98,1.63,1.89,1.89l.56.16-.56.16c-.91.26-1.63.98-1.89,1.89l-.16.56-.16-.56c-.26-.91-.98-1.63-1.89-1.89l-.56-.16.56-.16c.91-.26,1.63-.98,1.89-1.89l.16-.56Z" style="fill: #fff; opacity: .5;"/>
      <path d="M111.66,734.4l.56.16-.56.16c-.91.26-1.63.98-1.89,1.89l-.16.56-.16-.56c-.26-.91-.98-1.63-1.89-1.89l-.56-.16.56-.16" style="fill: #fff; opacity: .5;"/>
      <path d="M519.72,580.45l.16.56c.26.91.98,1.63,1.89,1.89l.56.16-.56.16c-.91.26-1.63.98-1.89,1.89l-.16.56-.16-.56c-.26-.91-.98-1.63-1.89-1.89l-.56-.16.56-.16c.91-.26,1.63-.98,1.89-1.89l.16-.56Z" style="fill: #fff; opacity: .5;"/>
      <path d="M200.25,673.01l.16.56c.26.91.98,1.63,1.89,1.89l.56.16-.56.16c-.91.26-1.63.98-1.89,1.89l-.16.56-.16-.56c-.26-.91-.98-1.63-1.89-1.89l-.56-.16.56-.16c.91-.26,1.63-.98,1.89-1.89l.16-.56Z" style="fill: #fff; opacity: .5;"/>
      <path d="M353.36,450.88l.16.56c.26.91.98,1.63,1.89,1.89l.56.16-.56.16c-.91.26-1.63.98-1.89,1.89l-.16.56-.16-.56c-.26-.91-.98-1.63-1.89-1.89l-.56-.16.56-.16c.91-.26,1.63-.98,1.89-1.89l.16-.56Z" style="fill: #fff; opacity: .5;"/>
      <path d="M417.34,437.6l.16.56c.26.91.98,1.63,1.89,1.89l.56.16-.56.16c-.91.26-1.63.98-1.89,1.89l-.16.56-.16-.56c-.26-.91-.98-1.63-1.89-1.89l-.56-.16.56-.16c.91-.26,1.63-.98,1.89-1.89l.16-.56Z" style="fill: #fff; opacity: .5;"/>
      <path d="M398.62,488.53l.16.56c.26.91.98,1.63,1.89,1.89l.56.16-.56.16c-.91.26-1.63.98-1.89,1.89l-.16.56-.16-.56c-.26-.91-.98-1.63-1.89-1.89l-.56-.16.56-.16c.91-.26,1.63-.98,1.89-1.89l.16-.56Z" style="fill: #fff; opacity: .5;"/>
      <path d="M537.28,427.91l.16.56c.26.91.98,1.63,1.89,1.89l.56.16-.56.16c-.91.26-1.63.98-1.89,1.89l-.16.56-.16-.56c-.26-.91-.98-1.63-1.89-1.89l-.56-.16.56-.16c.91-.26,1.63-.98,1.89-1.89l.16-.56Z" style="fill: #fff; opacity: .5;"/>
      <path d="M246.89,706.4l.16.56c.26.91.98,1.63,1.89,1.89l.56.16-.56.16c-.91.26-1.63.98-1.89,1.89l-.16.56-.16-.56c-.26-.91-.98-1.63-1.89-1.89l-.56-.16.56-.16c.91-.26,1.63-.98,1.89-1.89l.16-.56Z" style="fill: #fff; opacity: .5;"/>
      <path d="M225.94,559.72l.16.56c.26.91.98,1.63,1.89,1.89l.56.16-.56.16c-.91.26-1.63.98-1.89,1.89l-.16.56-.16-.56c-.26-.91-.98-1.63-1.89-1.89l-.56-.16.56-.16c.91-.26,1.63-.98,1.89-1.89l.16-.56Z" style="fill: #fff; opacity: .5;"/>
      <path d="M299.1,694.48l.16.56c.26.91.98,1.63,1.89,1.89l.56.16-.56.16c-.91.26-1.63.98-1.89,1.89l-.16.56-.16-.56c-.26-.91-.98-1.63-1.89-1.89l-.56-.16.56-.16c.91-.26,1.63-.98,1.89-1.89l.16-.56Z" style="fill: #fff; opacity: .5;"/>
      <path d="M198.72,768.01l.16.56c.26.91.98,1.63,1.89,1.89l.56.16-.56.16c-.91.26-1.63.98-1.89,1.89l-.16.56-.16-.56c-.26-.91-.98-1.63-1.89-1.89l-.56-.16.56-.16c.91-.26,1.63-.98,1.89-1.89l.16-.56Z" style="fill: #fff; opacity: .5;"/>
      <path d="M394.37,638.32l.16.56c.26.91.98,1.63,1.89,1.89l.56.16-.56.16c-.91.26-1.63.98-1.89,1.89l-.16.56-.16-.56c-.26-.91-.98-1.63-1.89-1.89l-.56-.16.56-.16c.91-.26,1.63-.98,1.89-1.89l.16-.56Z" style="fill: #fff; opacity: .5;"/>
      <path d="M394.37,726.93l.16.56c.26.91.98,1.63,1.89,1.89l.56.16-.56.16c-.91.26-1.63.98-1.89,1.89l-.16.56-.16-.56c-.26-.91-.98-1.63-1.89-1.89l-.56-.16.56-.16c.91-.26,1.63-.98,1.89-1.89l.16-.56Z" style="fill: #fff; opacity: .5;"/>
      <path d="M328.99,729.74l.16.56c.26.91.98,1.63,1.89,1.89l.56.16-.56.16c-.91.26-1.63.98-1.89,1.89l-.16.56-.16-.56c-.26-.91-.98-1.63-1.89-1.89l-.56-.16.56-.16c.91-.26,1.63-.98,1.89-1.89l.16-.56Z" style="fill: #fff; opacity: .5;"/>
      <path d="M315.98,660.25l.16.56c.26.91.98,1.63,1.89,1.89l.56.16-.56.16c-.91.26-1.63.98-1.89,1.89l-.16.56-.16-.56c-.26-.91-.98-1.63-1.89-1.89l-.56-.16.56-.16c.91-.26,1.63-.98,1.89-1.89l.16-.56Z" style="fill: #fff; opacity: .5;"/>
      <path d="M2.61,161.9l.16.56c.26.91.98,1.63,1.89,1.89l.56.16-.56.16c-.91.26-1.63.98-1.89,1.89l-.16.56-.16-.56c-.26-.91-.98-1.63-1.89-1.89l-.56-.16.56-.16c.91-.26,1.63-.98,1.89-1.89l.16-.56Z" style="fill: #fff; opacity: .5;"/>
      <path d="M90.79,92.16l.16.56c.26.91.98,1.63,1.89,1.89l.56.16-.56.16c-.91.26-1.63.98-1.89,1.89l-.16.56-.16-.56c-.26-.91-.98-1.63-1.89-1.89l-.56-.16.56-.16c.91-.26,1.63-.98,1.89-1.89l.16-.56Z" style="fill: #fff; opacity: .5;"/>
      <path d="M102.88,149.67h0c.28.96,1.03,1.71,1.99,1.99h0c.14.04.14.24,0,.28h0c-.96.28-1.71,1.03-1.99,1.99h0c-.04.14-.24.14-.28,0h0c-.28-.96-1.03-1.71-1.99-1.99h0c-.14-.04-.14-.24,0-.28h0c.96-.28,1.71-1.03,1.99-1.99h0c.04-.14.24-.14.28,0Z" style="fill: #fff; opacity: .5;"/>
      <path d="M269.21,86.4h0c.28.96,1.03,1.71,1.99,1.99h0c.14.04.14.24,0,.28h0c-.96.28-1.71,1.03-1.99,1.99h0c-.04.14-.24.14-.28,0h0c-.28-.96-1.03-1.71-1.99-1.99h0c-.14-.04-.14-.24,0-.28h0c.96-.28,1.71-1.03,1.99-1.99h0c.04-.14.24-.14.28,0Z" style="fill: #fff; opacity: .5;"/>
      <path d="M61.89,51.36h0c.28.96,1.03,1.71,1.99,1.99h0c.14.04.14.24,0,.28h0c-.96.28-1.71,1.03-1.99,1.99h0c-.04.14-.24.14-.28,0h0c-.28-.96-1.03-1.71-1.99-1.99h0c-.14-.04-.14-.24,0-.28h0c.96-.28,1.71-1.03,1.99-1.99h0c.04-.14.24-.14.28,0Z" style="fill: #fff; opacity: .5;"/>
      <path d="M7.97,27.24h0c.28.96,1.03,1.71,1.99,1.99h0c.14.04.14.24,0,.28h0c-.96.28-1.71,1.03-1.99,1.99h0c-.04.14-.24.14-.28,0h0c-.28-.96-1.03-1.71-1.99-1.99l-.48-.14.48-.14c.96-.28,1.71-1.03,1.99-1.99h0c.04-.14.24-.14.28,0Z" style="fill: #fff; opacity: .5;"/>
      <path d="M171.18,30.02l.16.56c.26.91.98,1.63,1.89,1.89l.56.16-.56.16c-.91.26-1.63.98-1.89,1.89l-.16.56-.16-.56c-.26-.91-.98-1.63-1.89-1.89l-.56-.16.56-.16c.91-.26,1.63-.98,1.89-1.89l.16-.56Z" style="fill: #fff; opacity: .5;"/>
      <path d="M528.48,295.03c-.26-.91-.98-1.63-1.89-1.89l-.56-.16.56-.16c.91-.26,1.63-.98,1.89-1.89l.16-.56.16.56c.26.91.98,1.63,1.89,1.89l.56.16-.56.16c-.91.26-1.63.98-1.89,1.89" style="fill: #fff; opacity: .5;"/>
      <path d="M500.78,374.01l-.56.16c-.91.26-1.63.98-1.89,1.89l-.16.56-.16-.56c-.26-.91-.98-1.63-1.89-1.89l-.56-.16.56-.16c.91-.26,1.63-.98,1.89-1.89l.16-.56.16.56c.26.91.98,1.63,1.89,1.89l.56.16Z" style="fill: #fff; opacity: .5;"/>
      <path d="M204.3,68.35l.16.56c.26.91.98,1.63,1.89,1.89l.56.16-.56.16c-.91.26-1.63.98-1.89,1.89l-.16.56-.16-.56c-.26-.91-.98-1.63-1.89-1.89l-.56-.16.56-.16c.91-.26,1.63-.98,1.89-1.89l.16-.56Z" style="fill: #fff; opacity: .5;"/>
      <path d="M264.05,0l.16.56c.26.91.98,1.63,1.89,1.89l.56.16-.56.16c-.91.26-1.63.98-1.89,1.89l-.16.56-.16-.56c-.26-.91-.98-1.63-1.89-1.89l-.56-.16.56-.16c.91-.26,1.63-.98,1.89-1.89l.16-.56Z" style="fill: #fff; opacity: .5;"/>
      <path d="M145.32,204.09h0c.28.96,1.03,1.71,1.99,1.99h0c.14.04.14.24,0,.28h0c-.96.28-1.71,1.03-1.99,1.99h0c-.04.14-.24.14-.28,0h0c-.28-.96-1.03-1.71-1.99-1.99h0c-.14-.04-.14-.24,0-.28h0c.96-.28,1.71-1.03,1.99-1.99h0c.04-.14.24-.14.28,0Z" style="fill: #fff; opacity: .5;"/>
      <path d="M332.95,183.72h0c.28.96,1.03,1.71,1.99,1.99h0c.14.04.14.24,0,.28h0c-.96.28-1.71,1.03-1.99,1.99h0c-.04.14-.24.14-.28,0h0c-.28-.96-1.03-1.71-1.99-1.99l-.48-.14.48-.14c.96-.28,1.71-1.03,1.99-1.99h0c.04-.14.24-.14.28,0Z" style="fill: #fff; opacity: .5;"/>
      <path d="M138.75,19.18l.16.56c.26.91.98,1.63,1.89,1.89l.56.16-.56.16c-.91.26-1.63.98-1.89,1.89l-.16.56-.16-.56c-.26-.91-.98-1.63-1.89-1.89l-.56-.16.56-.16c.91-.26,1.63-.98,1.89-1.89l.16-.56Z" style="fill: #fff; opacity: .5;"/>
      <path d="M61.57,250.69l.16.56c.26.91.98,1.63,1.89,1.89l.56.16-.56.16c-.91.26-1.63.98-1.89,1.89l-.16.56-.16-.56c-.26-.91-.98-1.63-1.89-1.89l-.56-.16.56-.16c.91-.26,1.63-.98,1.89-1.89l.16-.56Z" style="fill: #fff; opacity: .5;"/>
      <path d="M98.43,334.39l.56.16-.56.16c-.91.26-1.63.98-1.89,1.89l-.16.56-.16-.56c-.26-.91-.98-1.63-1.89-1.89l-.56-.16.56-.16" style="fill: #fff; opacity: .5;"/>
      <path d="M552.34,245.35l.16.56c.26.91.98,1.63,1.89,1.89l.56.16-.56.16c-.91.26-1.63.98-1.89,1.89l-.16.56-.16-.56c-.26-.91-.98-1.63-1.89-1.89l-.56-.16.56-.16c.91-.26,1.63-.98,1.89-1.89l.16-.56Z" style="fill: #fff; opacity: .5;"/>
      <path d="M187.02,273l.16.56c.26.91.98,1.63,1.89,1.89l.56.16-.56.16c-.91.26-1.63.98-1.89,1.89l-.16.56-.16-.56c-.26-.91-.98-1.63-1.89-1.89l-.56-.16.56-.16c.91-.26,1.63-.98,1.89-1.89l.16-.56Z" style="fill: #fff; opacity: .5;"/>
      <path d="M340.13,50.87l.16.56c.26.91.98,1.63,1.89,1.89l.56.16-.56.16c-.91.26-1.63.98-1.89,1.89l-.16.56-.16-.56c-.26-.91-.98-1.63-1.89-1.89l-.56-.16.56-.16c.91-.26,1.63-.98,1.89-1.89l.16-.56Z" style="fill: #fff; opacity: .5;"/>
      <path d="M404.11,37.59l.16.56c.26.91.98,1.63,1.89,1.89l.56.16-.56.16c-.91.26-1.63.98-1.89,1.89l-.16.56-.16-.56c-.26-.91-.98-1.63-1.89-1.89l-.56-.16.56-.16c.91-.26,1.63-.98,1.89-1.89l.16-.56Z" style="fill: #fff; opacity: .5;"/>
      <path d="M385.39,88.52l.16.56c.26.91.98,1.63,1.89,1.89l.56.16-.56.16c-.91.26-1.63.98-1.89,1.89l-.16.56-.16-.56c-.26-.91-.98-1.63-1.89-1.89l-.56-.16.56-.16c.91-.26,1.63-.98,1.89-1.89l.16-.56Z" style="fill: #fff; opacity: .5;"/>
      <path d="M524.04,27.9l.16.56c.26.91.98,1.63,1.89,1.89l.56.16-.56.16c-.91.26-1.63.98-1.89,1.89l-.16.56-.16-.56c-.26-.91-.98-1.63-1.89-1.89l-.56-.16.56-.16c.91-.26,1.63-.98,1.89-1.89l.16-.56Z" style="fill: #fff; opacity: .5;"/>
      <path d="M233.65,306.39l.16.56c.26.91.98,1.63,1.89,1.89l.56.16-.56.16c-.91.26-1.63.98-1.89,1.89l-.16.56-.16-.56c-.26-.91-.98-1.63-1.89-1.89l-.56-.16.56-.16c.91-.26,1.63-.98,1.89-1.89l.16-.56Z" style="fill: #fff; opacity: .5;"/>
      <path d="M212.7,159.71l.16.56c.26.91.98,1.63,1.89,1.89l.56.16-.56.16c-.91.26-1.63.98-1.89,1.89l-.16.56-.16-.56c-.26-.91-.98-1.63-1.89-1.89l-.56-.16.56-.16c.91-.26,1.63-.98,1.89-1.89l.16-.56Z" style="fill: #fff; opacity: .5;"/>
      <path d="M285.87,294.47l.16.56c.26.91.98,1.63,1.89,1.89l.56.16-.56.16c-.91.26-1.63.98-1.89,1.89l-.16.56-.16-.56c-.26-.91-.98-1.63-1.89-1.89l-.56-.16.56-.16c.91-.26,1.63-.98,1.89-1.89l.16-.56Z" style="fill: #fff; opacity: .5;"/>
      <path d="M185.49,368l.16.56c.26.91.98,1.63,1.89,1.89l.56.16-.56.16c-.91.26-1.63.98-1.89,1.89l-.16.56-.16-.56c-.26-.91-.98-1.63-1.89-1.89l-.56-.16.56-.16c.91-.26,1.63-.98,1.89-1.89l.16-.56Z" style="fill: #fff; opacity: .5;"/>
      <path d="M404.11,265.46l.16.56c.26.91.98,1.63,1.89,1.89l.56.16-.56.16c-.91.26-1.63.98-1.89,1.89l-.16.56-.16-.56c-.26-.91-.98-1.63-1.89-1.89l-.56-.16.56-.16c.91-.26,1.63-.98,1.89-1.89l.16-.56Z" style="fill: #fff; opacity: .5;"/>
      <path d="M381.14,326.92l.16.56c.26.91.98,1.63,1.89,1.89l.56.16-.56.16c-.91.26-1.63.98-1.89,1.89l-.16.56-.16-.56c-.26-.91-.98-1.63-1.89-1.89l-.56-.16.56-.16c.91-.26,1.63-.98,1.89-1.89l.16-.56Z" style="fill: #fff; opacity: .5;"/>
      <path d="M315.76,329.73l.16.56c.26.91.98,1.63,1.89,1.89l.56.16-.56.16c-.91.26-1.63.98-1.89,1.89l-.16.56-.16-.56c-.26-.91-.98-1.63-1.89-1.89l-.56-.16.56-.16c.91-.26,1.63-.98,1.89-1.89l.16-.56Z" style="fill: #fff; opacity: .5;"/>
      <path d="M302.75,260.24l.16.56c.26.91.98,1.63,1.89,1.89l.56.16-.56.16c-.91.26-1.63.98-1.89,1.89l-.16.56-.16-.56c-.26-.91-.98-1.63-1.89-1.89l-.56-.16.56-.16c.91-.26,1.63-.98,1.89-1.89l.16-.56Z" style="fill: #fff; opacity: .5;"/>
    </g>
  </g>
</svg>